<?xml version="1.0" encoding="UTF-8"?>
<svg id="_ÎÓÈ_1" data-name="—ÎÓÈ_1" xmlns="http://www.w3.org/2000/svg" viewBox="0 0 818.97 1600">
  <defs>
    <style>
      .cls-1 {
        fill: #1f3b73;
      }

      .cls-2 {
        fill: #d8bfaa;
      }
    </style>
  </defs>
  <g>
    <path id="south_caloocan" data-name="south caloocan" class="cls-2" d="M304.58,543.16c1.99-3.98,1.27-7.81-.07-13.19-.08-.16-.25-.49-.43-.85-.85-1.65-.87-1.68-.87-2.04,0-1.93,1.66-3.51,3.26-5.03.98-.93,2.09-1.99,2.35-2.78.38-1.14.55-2.37.73-3.66.23-1.64.46-3.33,1.15-5.04.3-.76.76-2.13,1.28-3.72,1.78-5.38,3.25-9.59,4.55-10.9.41-.41.9-.48,1.3-.44.45-1.3,1-3.52,1.5-5.53,1.26-5.06,1.9-7.37,2.75-8.22.75-.75,1.06-1.85,1.46-3.23.32-1.14.69-2.44,1.39-3.83.63-1.26,1.52-1.91,2.17-2.38.17-.12.34-.24.47-.36.4-.68,1.72-4.12,2.69-6.65,1.1-2.86,2.14-5.56,2.68-6.65,1.03-2.07.44-6.44-.12-10.67-.65-4.82-1.26-9.38.12-12.15,1.78-3.56,5.96-6.52,10.38-9.65,2.77-1.96,5.63-3.98,7.75-6.1,4.96-4.96,8.93-9.94,13.53-15.7l1.18-1.47c1.28-1.61,3.03-2.77,4.43-3.7.75-.5,1.46-.97,1.83-1.34,2.86-2.86,6.33-6.49,9.7-10,3.45-3.61,7.03-7.34,10.04-10.35.85-.85,1.7-2.02,2.52-3.16.83-1.14,1.61-2.21,2.41-3.01.46-.46,1.06-.73,1.69-1.02.62-.29,1.27-.58,1.68-1.03-.01-.06-.02-.12-.04-.18-.11-.58-.27-1.45.37-2.09,1.19-1.19,2.95-3.67,4.81-6.29,4.47-6.31,8.07-11.11,11.27-12.67-.1-.06-.2-.12-.29-.19-.37-.04-1.02-.09-1.82-.16-8.68-.74-10.34-1.05-11.01-1.55-1.24-.54-8.1-1.99-9.28-1.71l-5.44,2.73c-1.34.67-2.23.55-2.76.49-.01,0-.03,0-.04,0-.11.14-.31.44-.64,1.1-.38,1.09.71,7.64,1.23,8.72.38.76.28,1.78.19,2.68-.03.26-.05.5-.05.67s.03.57.07,1.04c.29,3.44.26,4.71-.45,5.42-.55.55-1.06,1.89-1.47,2.97-.43,1.15-.78,2.05-1.31,2.58l-2.47,2.47c-.03.06-.07.33-.1.52-.08.56-.2,1.33-.82,1.95-.49.49-1.11.47-2.36.38h-.13s0,0,0,0c-3.92,0-6.52-2.61-9.03-5.14l-.48-.48c-.3-.3-.55-.62-.8-.93-.4-.51-.65-.8-1.03-.99-1.11-.56-2.07-1.58-3-2.56-.69-.73-1.4-1.49-1.94-1.76-2.76-1.38-3.66-2.3-5.15-3.81l-.74-.74c-.56-.56-1.61-.96-2.53-1.31-.53-.2-1.03-.4-1.45-.61-.11-.01-.76.05-1.07.08-.67.06-1.05.06-1.72,0-.31-.03-.9-.09-1.22-.07-.77.87-3.17,4.17-3.45,4.83,0,.03,0,.12,0,.21,0,.45-.01,1.21-.62,1.81-2.73,2.73-7.41,2.58-9.41,2.52-.01,0-.02,0-.04,0-.14.36-.29.89-.39,1.26-.18.65-.37,1.33-.65,1.93,0,.16.06.46.09.66.14.83.32,1.85-.4,2.57-2.42,2.43-1.44,9.93-.92,13.96l.05.39c.05.4-.08.79-.37,1.07-.72.72-2.2,1.37-4.21,2.22-.68.29-1.6.67-1.93.87-.14.47.09,1.9.23,2.77.27,1.65.53,3.2-.02,4.3-.57,1.14-1.55,1.44-2.04,1.59-.23.46-.41.98-.6,1.53-.13.37-.25.74-.4,1.11-.08.21-.23.38-.4.52.02.1.05.19.05.3-.14,3.85.37,4.49.47,4.58.12.11.95-.04,1.39-.12,1.36-.24,3.22-.58,5.28.45l.64.31c1.6.77,2.98,1.46,3.62,2.11.67.67.7,1.55.73,2.2.01.35.03.74.14.86.47.47,2.9,5.46,1.31,7.05-.64.64-1.69.67-4.2.66-1.67,0-5.17-.02-5.83.65-.26.26-.56.86-.83,1.39-.38.75-.78,1.53-1.35,2.1l-6.54,6.54c-.8.8-1.78,1.24-2.64,1.62-.68.3-1.32.59-1.72.99-.25.25-.68,1.06-1.04,1.72-.58,1.08-1.24,2.3-2.02,3.08-.84.84-2.49.85-6.71.49-.44-.04-.84-.07-1.15-.09-.99.87-1.95,1.73-2.91,2.58-4.99,4.45-9.7,8.65-14.86,11.23-1.18.59-2.48.71-3.63.82-.94.09-1.84.17-2.48.49l-.12.06c-.68.35-1.96,1-3.21.37-1.27-.64-1.85-2.1-2.4-3.51-.3-.76-.64-1.63-.98-1.97-.56-.42-3.24-.79-4.15-.49-.05.37-.14.92-.58,1.36-1.01,1.01-2.37.83-3.36.7-.49-.06-1.09-.14-1.33-.02-.25.13-.54.17-.82.11-2.48-.48-3.29-1.48-4.01-2.63-.18-.28-.33-.53-.54-.74-.28.24-.66.84-.8,1.06-.18.28-.3.48-.47.65-.56.56-1.36.52-2.72.4-.16-.01-.3-.03-.37-.03-.72,0-1.26.22-1.95.5-.9.36-2.01.81-3.71.81-1.31,0-2.24-.83-2.98-1.49-.27-.24-.54-.48-.79-.65-1.71.28-8.61,1.79-9.82,2.31-.49.5-.98,1.05-1.48,1.61-1.5,1.68-3.2,3.58-5.28,4.62-1.92.96-3.86.53-5.56.14-1.28-.29-2.38-.54-3.16-.14-.03.08-.13.58-.18.89-.12.66-.26,1.4-.79,1.93-1.56,1.56-4.18-.02-7.8-2.19-2.18-1.31-6.14-3.68-7.3-3.15,0,.05,0,.09,0,.14-.03.47-.06,1.18-.59,1.71-1.39,1.39-2.07,2.74-2.07,4.12,0,2.92,3.02,5.93,5.94,8.84l.49.49c.88.88.25,1.8-.79,3.31-.81,1.18-2.96,4.31-2.46,5.31.11.15.78.33,1.14.42.72.19,1.53.4,2.11.99.39.39.69,1.05,1.13,2.08.11.25.2.47.27.62.17.14.45.37.8.65,3.82,3.07,5.42,4.71,4.87,6.29-.21.58-.77,1.27-2.3,1.27-.19.09-.69.84-.93,1.2-.26.39-.5.76-.78,1.04l-4.29,4.29c.17.33.43.77.66,1.14,1.62,2.76,4.34,7.38,1.46,10.27-.67.68-1.48.88-2.28.88-.68,0-1.37-.15-1.99-.28-.29-.06-.57-.12-.83-.16-.02.18-.06.34-.12.49.07,1.12-.09,2.13-.96,2.63-1.14.66-2.28-.23-3.19-.94-.13-.1-.32-.25-.48-.37-1.92,2.04-1.76,2.74-1.76,2.75.25.49,1.98,1.13,10.75-.2,2.75-.42,3.25-.49,3.82.08.95.95.65,2.47.35,3.94-.1.53-.28,1.38-.24,1.73,1.87,1.94,2.66,4.76,3.36,7.25.44,1.56.89,3.17,1.46,3.74,1.07,1.07,2.77,1.14,4.58,1.21,3.43.14,8.14.33,8.14,8.95,0,.08-.03.16-.05.24,1.12.02,2.3.05,3.52.07,6.05.12,12.9.26,18.63.26,1.04,0,2.28.27,3.59.55,1.97.43,4.2.91,5.56.4.38-.14.78-.41,1.19-.7.02-.01.04-.02.05-.04-.63-4.18-1.03-8.67.63-10.6.46-.54,1.05-.86,1.72-.94,2.97-1.48,4.93-1.64,6.05-.52.41.41.52.92.57,1.35.29.05.53.19.74.4.4.4.87,1.08,1.48,1.94.41.58,1.05,1.51,1.56,2.11.31-.67.53-1.56.74-2.44.39-1.57.79-3.19,1.82-4.22.92-.92,1.75-1.55,2.64-2.22.93-.7,1.89-1.43,3.03-2.58.46-.46.94-1.29,1.46-2.18.66-1.12,1.4-2.39,2.36-3.39.18-.34.64-1.42,1.02-2.31,1.61-3.78,2.39-5.46,3.01-6.09.67-.67,1.78-.7,4.76-.44.42.04.77.07.95.07.53,0,1.13-.05,1.73-.1,1.94-.16,4.15-.33,5.5.91.69.64,1.04,1.53,1.04,2.65,0,1.49-1.07,3.31-3.26,5.54-.03.19-.04.49-.05.69-.03.65-.07,1.27-.31,1.76-.33.67-.73,1.3-1.15,1.97-.68,1.09-1.39,2.21-1.83,3.53-.04.12-.03.41-.02.64.03.67.07,1.68-.73,2.48-.84.84-2.65,2.98-3.39,4.01.47.66,1.53,1.87,2.28,2.65.18-.02.43-.07.6-.11.87-.17,1.95-.39,2.69.35.32.32.43.73.56,1.25.02.08.04.15.05.22.97.84,2.61,1.38,4.2,1.9.98.32,1.99.65,2.88,1.06.15,0,.29.04.44.06-.11-.43-.11-.9.13-1.39Z"/>
    <path id="malabon" class="cls-2" d="M73.89,298.28c-1.93,3.06-3.76,5.96-6.33,7.24-1.15.58-2.79.57-4.53.56-1.32,0-3.32-.02-3.78.44-.39.39-.54,1.06-.71,1.77-.2.85-.42,1.82-1.14,2.55-.35.35-.84.48-1.52.65-.17.04-.33.08-.46.12-.33.39-.34.71-.3.98.13.92,1.39,3.57,10.11,8.26.57.31.66.35.81.51,1.71,1.71,2.85,7.18,2.85,8.93,0,.96-.78,1.81-2.4,3.12.59.47,1.21.92,1.87,1.39,1.1.79,2.24,1.6,3.25,2.61.54.54.81,1.3,1.11,2.12.38,1.05.77,2.14,1.64,2.58.8.31,6.07.79,7.8.94q2.05.18,2.4.53c.43.43,1.32.99,2.1,1.49.87.55,1.7,1.08,2.22,1.59,1.19,1.19,1.83,2.42,2.39,3.5.4.78.76,1.46,1.25,1.99.24.06.86.02,1.24,0,1.09-.06,2.32-.14,3.14.68,2.44,2.44,5.33,4.13,8.92,5.93,1.68.84,2.29,2.34,2.84,3.66.34.82.66,1.59,1.2,2.14.11.11.24.17.52.27.6.22,1.51.56,2.18,1.92.43.85.02,1.76-1.48,4.76-.47.94-1.14,2.29-1.38,2.97,1.66,2.55,3.34,4.58,4.97,6.54,2.4,2.89,4.88,5.88,7.14,10.4.46.92.88,2.86,1.54,5.95.52,2.47,1.4,6.61,1.94,7.31,1.04,1.04,1.91,2.75,2.83,4.56.99,1.96,2.02,3.99,3.32,5.29,1.21,1.21,2.69,2.29,4.26,3.43,1.85,1.35,3.76,2.74,5.61,4.59.89.89,1.73,2.05,2.54,3.17.78,1.08,1.59,2.19,2.39,3,.74.74.53,1.83.35,2.7-.04.18-.09.45-.11.63,2.06,2.29,3.48,6.89,4.85,11.35,1.14,3.7,2.32,7.53,3.55,8.75.7.7.83,2.05,1.06,5.31.17,2.32.4,5.49,1.03,6.75.58,1.16.44,2.88.3,4.7-.09,1.12-.26,3.19.08,3.61.8.8,1.33,1.88,1.89,3.02.64,1.3,1.3,2.64,2.42,3.76,1.84,1.84,3.21,3.41,4.42,4.8.75.86,1.41,1.62,2.05,2.28,4.5.41,5.41-1.11,6.74-3.37.58-.98,1.24-2.09,2.24-3.1,1.1-1.1,2.11-1.19,2.77-1.07,1.84.32,2.84,2.46,3.72,4.35.27.58.68,1.46.88,1.66.13.13.65.32.93.42.55.2,1.13.41,1.54.82.42.42.6.94,1.52,5.41.12.6.27,1.3.38,1.81.02.03.04.06.06.08.18.28.26.62.26,1.01,0,1.03-.74,1.38-1.18,1.42-.25.03-.44.02-.61-.02-.23.29-.45.62-.58.87,1.09,1.76,2.09,3.02,3.64,4.06,2.51,1.67,4.42,3.65,6.45,5.75.57.6,1.16,1.2,1.77,1.81.14.14.74,1.08,1.22,2.18.67,0,1.32.14,1.96.28.74.16,1.66.36,1.92.1,1.48-1.48-.61-5.03-1.85-7.15-1.04-1.78-1.68-2.85-.76-3.76l4.8-4.8c.1-.1.29-.4.45-.64.55-.84,1.28-1.93,2.39-2.26-.93-1.02-2.78-2.51-3.5-3.09-.53-.43-.93-.76-1.1-.92-.26-.26-.41-.6-.72-1.34-.17-.4-.48-1.13-.63-1.32-.08-.06-.58-.19-.91-.28-.92-.24-2.19-.58-2.78-1.76-1.18-2.36,1.03-5.57,2.64-7.92.15-.22.31-.46.46-.67-3.24-3.23-6.55-6.58-6.55-10.51,0-2.01.89-3.95,2.65-5.77,0-.06,0-.13,0-.2.03-.47.06-1.18.59-1.71,2.32-2.32,6.53.21,10.61,2.66,1.52.91,3.74,2.25,4.67,2.42.02-.12.05-.3.07-.43.16-.85.4-2.13,1.56-2.71,1.6-.8,3.34-.41,4.88-.06,1.41.32,2.74.62,3.85.06,1.65-.82,3.1-2.46,4.52-4.04.58-.65,1.14-1.27,1.69-1.83.65-.65,11.32-3.39,12.39-2.86.65.32,1.17.79,1.64,1.2.49.43.95.84,1.28.84,1.2,0,1.95-.3,2.75-.63.79-.32,1.69-.68,2.92-.68.11,0,.32.02.58.04.2.02.57.05.86.06.52-.81,1.36-2.09,2.71-2.24.5-.06,1.26.03,2,.77.43.43.69.85.93,1.22.42.67.69,1.1,1.98,1.4.81-.24,1.65-.13,2.35-.04.28.04.8.11,1.07.08.05-.37.14-.92.58-1.35,1.57-1.57,6.65-.84,7.93.44.72.72,1.15,1.8,1.56,2.85.31.78.77,1.95,1.16,2.15.14.02.69-.26.89-.36l.14-.07c1.08-.54,2.25-.65,3.39-.75,1.01-.09,1.96-.18,2.71-.56,4.86-2.43,9.44-6.52,14.3-10.85,1.08-.96,2.18-1.94,3.31-2.93.23-.2.53-.32.85-.32.36,0,1.03.05,1.83.12,1.21.1,3.98.34,4.78.14.48-.54,1-1.51,1.46-2.37.52-.97.97-1.81,1.48-2.32.74-.74,1.63-1.14,2.49-1.52.72-.32,1.4-.63,1.87-1.1l6.54-6.54c.28-.28.59-.9.87-1.45.37-.74.76-1.5,1.31-2.04,1.32-1.32,4.12-1.42,7.66-1.4.7,0,1.59,0,2.16-.03-.15-.97-.84-2.83-1.16-3.36-.76-.81-.8-1.83-.83-2.51,0-.2-.02-.49-.05-.58-.32-.29-2.03-1.11-2.85-1.51l-.67-.33c-1.3-.65-2.51-.43-3.67-.22-1.16.21-2.47.45-3.53-.47-1-.86-1.4-2.46-1.38-5.52-.89.71-2.19.65-3.46.58-.45-.02-1.11-.06-1.4,0-1.1,1.12-2.46,2.78-3.78,4.38-1.38,1.68-2.81,3.42-4.03,4.66-.02.13-.03.35-.04.5-.03.62-.08,1.47-.68,2.07-.68.68-1.64.52-2.41.39-.17-.03-.4-.07-.54-.08-4.97,2.49-10.22,5.39-14.99,9.61-.24.21-.54.32-.85.32-.2,0-.39-.04-.57-.14-1.27-.63-1.96-2.07-2.64-3.46-.43-.89-.88-1.82-1.4-2.33-.69-.69-1.08-1.15-1.35-1.49-.5-.6-.6-.72-2.48-1.66-1.07-.53-3.1-.77-3.64-.66-4.86.97-12.17-1.03-15.35-4.21-2.09-2.09-1.82-5.75-1.57-8.98.1-1.34.25-3.38-.04-3.81-.75-.34-4.09,1.32-5.51,2.03-2.43,1.22-3.65,1.83-4.6.89-.52-.52-1.06-1.03-1.58-1.53-2.63-2.5-5.11-4.87-4.97-7.82.05-1.05.43-2.07,1.16-3.08-.15.01-.3.02-.46.03-4.8.33-10.22.69-14.4-4.11-3.93-1.74-8.51,2.06-12.48,6.03-.63.65-2.38,2.61-3.15,3.67.02.35-.03.74-.31,1.09-.27.35-.69.55-1.15.55-.52,0-1.1-.37-1.3-.85-.12-.3-.08-.68.08-1.13-.04-.17-.06-.35-.06-.54v-6.17c0-1.06.13-2.22.27-3.45.29-2.53.61-5.4-.21-7.86-.1-.29-.3-.59-.51-.91-.37-.55-.79-1.17-.79-1.97,0-2.73-2.24-4.9-4.62-7.2-.39-.38-.79-.76-1.17-1.15-.75-.75-.98-1.89-1.18-2.89-.09-.44-.19-.93-.29-1.14-1.01-2.01-3.92-4.05-6.25-5.7-1.39-.97-2.58-1.81-3.38-2.61-1.32-1.32-1.62-4.34-1.92-8.79-.12-1.83-.3-4.33-.61-4.86-3.15-3.14-6.76-7.19-8.9-14.67-.03-.12-.05-.23-.05-.35v-3.08c0-.28.04-.81.1-1.47.07-.83.22-2.53.18-3.48-1.95.42-7.11,2.71-7.98,3.42-.82.83-1.69,1.93-2.53,3-2.18,2.78-4.44,5.64-7.35,5.31-2.17-.25-4.1-2.25-6.04-6.22-.97,3.61-5.54,8.89-7.01,10.36-.22.22.22,1.09,0,1.31-3.87,3.87-4.39,8.86-9.16,12.65-1.03-.52-3.9-1.28-4.36-1.74-1.59-1.59-3.79-4.67-5.67-6.54-2.37-2.37-4.44-3.13-6.98-5.67-1.59-1.59-3.05-4.36-4.36-5.67-2.24-2.24-5.89-4.14-7.85-6.11-.79-.79-.99-2.3-1.74-3.05-1.4-1.4-3.14-2.27-4.8-3.93-2.89-2.89-4.08-5.82-6.98-8.72-2.08-2.08-4.78-3.47-6.98-5.67-.84-.84-2.75-1.01-3.49-1.74-1.56-1.56-2.56-3.43-3.93-4.8-.77-.77-2.86-1.56-3.49-2.18-.5-.5-1.02-1.03-1.54-1.58-.03.04-.05.09-.08.13-1.39,1.4-2.65,3.4-3.88,5.34Z"/>
    <path id="navotas" class="cls-2" d="M175.23,547.67c1.65.37,6.02,1.36,6.73.68.89-.89,2.02-1.07,2.93-1.22.5-.08.98-.16,1.33-.33.71-.36,1.94-1.59,2.54-2.19l.18-.19c.53-.54,2.69-.95,6.42-1.23,5.94-.44,6.78.39,7.18.79.32.32.43.73.56,1.25.01.05.03.1.04.15.54.19,1.76-.35,2.68-.75,1.55-.69,3.32-1.47,4.58-.22.62.62.99,1.71,1.34,2.78.12.37.3.9.42,1.14.96.21,4.35-2.24,4.95-3.23.23-.39.65-.62,1.1-.62,1.45,0,3.32.02,5.46.06-.01-.07-.04-.12-.04-.19,0-6.15-2.26-6.25-5.67-6.38-2.11-.08-4.51-.18-6.29-1.96-1.04-1.05-1.54-2.82-2.12-4.87-.63-2.23-1.34-4.77-2.81-6.24-.95-.95-.65-2.47-.35-3.94.07-.34.16-.8.21-1.19-.44.06-.98.14-1.48.22-6.28.95-12.03,1.57-13.43-1.18-1.05-2.09,1.04-4.54,2.71-6.21,1.11-1.11,2.5-.06,3.35.6,0-.05-.01-.09-.02-.14-.03-.25,0-.49.11-.71-.25-.78-.77-1.99-1.01-2.29-.59-.58-1.18-1.2-1.76-1.8-1.93-2-3.75-3.88-6.02-5.4-2.31-1.54-3.59-3.48-4.71-5.34-.12-.2-.18-.43-.18-.66,0-.95.98-2.64,2.09-3.55-.08-.38-.17-.81-.27-1.3-.27-1.3-.7-3.39-.94-4.15-.13-.05-.33-.12-.48-.17-.63-.23-1.35-.49-1.88-1.02-.52-.52-.92-1.39-1.39-2.39-.36-.77-1.32-2.82-1.84-2.9-.04,0-.22.07-.51.36-.78.78-1.3,1.66-1.85,2.59-1.47,2.49-3.13,5.31-9.69,4.57-.29-.03-.56-.16-.77-.37-.79-.79-1.57-1.69-2.48-2.73-1.19-1.36-2.53-2.9-4.31-4.68-1.42-1.42-2.21-3.02-2.91-4.44-.49-.99-.91-1.84-1.41-2.34-1.18-1.18-1.01-3.34-.83-5.63.1-1.19.23-2.83-.03-3.35-.85-1.71-1.09-4.9-1.29-7.71-.1-1.38-.24-3.24-.42-3.78-1.62-1.73-2.76-5.43-4.08-9.71-1.27-4.13-2.72-8.81-4.45-10.54-.74-.74-.53-1.83-.35-2.7.04-.18.09-.44.11-.63-.85-.9-1.65-2-2.42-3.06-.79-1.09-1.54-2.12-2.28-2.86-1.71-1.71-3.54-3.04-5.31-4.33-1.65-1.2-3.21-2.33-4.56-3.69-1.59-1.59-2.76-3.91-3.8-5.95-.82-1.62-1.6-3.15-2.37-3.92-.93-.93-1.54-3.45-2.62-8.57-.46-2.19-.98-4.66-1.32-5.34-2.13-4.26-4.41-7-6.82-9.91-1.78-2.14-3.62-4.35-5.45-7.25-.13-.21-.2-.44-.2-.69,0-.78.5-1.87,1.74-4.36.44-.89,1.08-2.17,1.3-2.78-.14-.18-.29-.24-.6-.35-.39-.15-.93-.35-1.45-.86-.91-.9-1.36-2-1.76-2.97-.49-1.19-.83-1.95-1.61-2.34-3.78-1.89-6.85-3.7-9.52-6.34-.24-.06-.86-.02-1.24,0-1.09.07-2.32.14-3.14-.68-.81-.81-1.3-1.77-1.78-2.69-.5-.96-1.01-1.95-1.92-2.86-.31-.31-1.09-.81-1.77-1.24-.78-.5-1.59-1.01-2.2-1.53-.27-.03-.67-.06-1.16-.1-5.76-.52-7.96-.82-8.72-1.2-1.79-.9-2.44-2.69-2.91-4.01-.15-.41-.37-1.03-.51-1.17-.85-.85-1.86-1.57-2.92-2.33-1.1-.79-2.24-1.6-3.25-2.61-.26-.26-.4-.63-.38-1,.04-.62.36-.88,1.15-1.49.41-.32,1.6-1.25,1.93-1.71-.08-1.86-1.16-5.78-2-6.81-.08-.04-.18-.1-.3-.16-7.26-3.91-11-7.23-11.43-10.15-.18-1.23.22-2.38,1.16-3.32.35-.35.84-.48,1.52-.65.15-.04.3-.07.43-.11.15-.26.25-.72.36-1.17.22-.94.48-2.1,1.4-3.01,1.21-1.21,3.34-1.2,5.61-1.19,1.29,0,2.76.02,3.36-.29,1.92-.96,3.64-3.68,5.3-6.31,1.3-2.06,2.64-4.19,4.23-5.78.05-.05.12-.08.18-.12-5.48-5.8-11.91-12.92-17.67-15.81-7.21-3.61-8.76-15.27-19.19-15.27-.41,0-2.35-.26-2.62,0-1.84,1.84-5.43,1.94-7.42,3.93-.89.89,1.77,13.49,0,15.27-2.56,2.56-3.76,5.51-6.54,8.29-.62.62-.56,2.3-1.31,3.05-1.38,1.38-3.42,4.34-6.11,5.23-.23.08-1.95.2-2.18.44-3.65,3.65-8.12,5.69-13.09,8.29,1.48.74,4.17,5.04,6.54,7.42.92.92,2.41,1.39,3.49,1.74.84.28,2.9,2.9,3.49,3.49,1.47,1.47,2.01,3.75,3.49,5.23,1.39,1.39,4.95,2.34,6.11,3.49,2.28,2.28,3.35,4.71,6.11,6.54,1.89,1.26,4.87,2.69,6.54,4.36,2.26,2.26,3.52,5.26,6.11,7.85,1.06,1.06,3.25,2.38,4.36,3.49.72.72,1.16,1.89,1.74,2.18,1.94.97,13.4,8.47,14.4,10.47.41.82,1.95,5.46.87,6.54-.27.27-5.34.34-3.49,2.18,1.2,1.2,1.05,3.23,2.62,4.8,1.46,1.46,4.42,2.24,5.67,3.49,1.05,1.05,1.28,5.2,2.18,6.11.15.15.73-.15.87,0,1.2,1.2,1.35,3.14,2.18,4.8.6,1.2,4.28,1.7,5.23,2.18,1.69.84,6.58,8.65,8.72,10.91.71,2.12,9.66,17.95,11.34,19.63.94.94,2.89,2.28,3.49,3.49,4.16,8.31,11.24,18.65,19.19,26.61,2.85,2.85,6.33,10.47,8.29,14.4.38.76,1.35.52,1.74,1.31.19.39-.24.95,0,1.31.16.24.67-.21.87,0,2.87,2.87,6.17,8.79,9.16,11.78.92.92.23,4.16,1.31,5.23,1.46,1.46,7.58,8.56,5.23,10.91-1.11,1.11-7.03,1.2-5.23,4.8.74,1.48,1.61,8.15,2.18,8.72,2.03,2.03,4.22,4.52,5.23,6.54,1.26,2.51,6.95,6.89,7.85,9.6.74,2.23.56,3.44,1.31,5.67.82,2.46,4.15,3.95,5.23,6.11.78,1.56.87,2.61,2.18,3.93.76.76,4.15,3.66,5.11,5.41.07-.01.14-.04.21-.04.73,0,1.85.25,3.27.57Z"/>
    <path id="valenzuela" class="cls-2" d="M158.22,324.19c2.09,4.49,3.6,5.3,4.32,5.39,1.48.16,3.37-2.22,5.03-4.34.89-1.13,1.8-2.3,2.77-3.26.75-.75,4.08-2.23,5.3-2.74,4.79-1.99,5.76-1.59,6.38-.96.75.75.78,2.18.47,5.83-.05.56-.09,1.01-.09,1.25v2.9c1.78,6.1,4.48,9.68,8.26,13.46.87.87,1.04,2.8,1.29,6.42.16,2.4.44,6.41,1.18,7.15.64.64,1.8,1.45,3.04,2.32,2.71,1.9,5.78,4.06,7.08,6.65.26.52.38,1.13.51,1.79.1.48.28,1.38.48,1.58.37.37.76.75,1.14,1.12,2.66,2.57,5.4,5.23,5.4,9.05.02.05.22.34.35.53.27.4.61.91.82,1.53,1,3,.64,6.17.32,8.97-.13,1.16-.26,2.25-.26,3.16v3.14c.49-.54,1.01-1.08,1.51-1.58,3.08-3.08,9.5-9.5,15.67-6.41.16.08.3.19.41.33,3.37,4.03,7.78,3.73,12.44,3.41,1.26-.09,2.56-.17,3.84-.17.55,0,1.04.35,1.21.87.18.52,0,1.09-.42,1.43-1.67,1.31-2.55,2.53-2.6,3.62-.09,1.78,1.98,3.75,4.17,5.84.4.38.81.77,1.22,1.17.51-.2,1.37-.63,2.04-.96,2.77-1.39,5.9-2.96,7.91-1.96,1.76.88,1.57,3.36,1.36,6.23-.19,2.54-.43,5.71.83,6.97,2.57,2.57,9.02,4.31,13.03,3.5,1.28-.26,3.9.18,5.3.88,2.16,1.08,2.53,1.38,3.31,2.32.26.31.58.7,1.19,1.31.82.82,1.37,1.94,1.89,3.03.28.58.6,1.24.93,1.71,4.8-4.05,9.95-6.86,14.82-9.3.61-.3,1.29-.19,1.95-.09.03,0,.07.01.11.02,0-.03,0-.06,0-.08.03-.62.08-1.47.68-2.07,1.15-1.15,2.58-2.9,3.97-4.58,1.4-1.71,2.85-3.47,4.05-4.68.77-.77,1.97-.7,3.25-.63.56.03,1.5.08,1.77-.04l.05-.07c.53-.53,1.16-1.17,2.32-1.4.03-.09.06-.17.09-.26.26-.76.52-1.54.97-2.29.36-.6.96-.77,1.32-.87.38-.11.42-.14.49-.27.17-.38-.07-1.85-.22-2.73-.33-2.01-.64-3.9.46-5,.42-.42,1.2-.76,2.78-1.42.87-.36,2.19-.92,2.92-1.34-.65-4.96-1.5-12.14,1.46-15.5-.02-.16-.06-.39-.09-.56-.13-.72-.25-1.46.08-2.13.21-.41.38-1.02.54-1.6.3-1.07.58-2.08,1.25-2.75.43-.43.87-.42,1.74-.39,1.49.05,5.38.17,7.37-1.64,0-.05,0-.1,0-.15,0-.28,0-.64.13-1.02.25-.74,3.73-5.84,4.66-6.3.69-.35,1.55-.29,2.69-.19.48.05.76.05,1.24,0,1.04-.1,1.82-.14,2.47.18.35.18.77.33,1.22.5,1.16.44,2.48.95,3.43,1.9l.75.76c1.43,1.46,2.08,2.13,4.46,3.32.95.47,1.78,1.36,2.66,2.3.77.82,1.57,1.67,2.27,2.02.91.45,1.43,1.11,1.89,1.7.18.23.37.47.6.7l.49.49c2.24,2.25,4.35,4.38,7.24,4.38.03,0,.13,0,.27.01.17.01.32.02.44.03,0-.06.02-.12.03-.18.08-.56.2-1.33.82-1.95l2.47-2.47c.16-.2.5-1.09.72-1.68.49-1.29,1.04-2.74,1.89-3.7.12-.68-.06-2.76-.13-3.57-.05-.57-.08-1.03-.08-1.25,0-.25.03-.57.07-.93.04-.38.11-1.1.05-1.32-.54-1.06-2.23-8.94-1.21-10.97.93-1.86,1.66-2.71,3.31-2.5.36.05.64.08,1.28-.24l5.55-2.78c1.73-.86,11.1,1.22,11.97,2.09-.14-.14-.26-.19-.26-.19.95.39,7.41.94,9.84,1.14q2.71.23,3.07.59c.16.16.39.28.64.39.22-.73.42-1.5.62-2.26.59-2.32,1.14-4.51,2.47-5.84.42-.42.9-.49,1.29-.45-.07-1.07-1.01-3.25-1.61-3.68-.76-.38-1.24-1.19-1.7-1.99-.21-.36-.56-.96-.74-1.08-4.53-2.27-7.38-5.23-10.68-8.67-.82-.86-1.67-1.75-2.59-2.67-1.09-1.09-1.84-2.2-2.5-3.18-.57-.85-1.11-1.66-1.82-2.37-1-1-.67-2.65-.35-4.25.12-.6.31-1.56.27-1.97-1.45-.7-9.28-.71-10.97.02-.23.45-.67,1.08-1.47,1.23-.34.06-1.01.07-1.67-.59-2.45-2.45-.67-8.64,1.91-16.47.63-1.91,1.4-4.25,1.46-5-.17-.29-.43-.63-.72-1.02-.51-.67-1.14-1.5-1.66-2.53-.4-.8-.61-1.92-.69-3.17-.1-.06-.21-.11-.3-.2-.6-.6-1.52-1.01-2.49-1.44-1.2-.54-2.56-1.14-3.68-2.26-1.92-1.92-2.87-4.45-3.63-6.48-.43-1.15-.87-2.34-1.31-2.77-.53-.1-2.47,1.27-3.3,1.85-.91.64-1.65,1.16-2.31,1.42-.09.42-.31.98-.92,1.28-7.95,3.98-24.02-6.39-27.89-9.39-.15-.12-.28-.27-.36-.44-.61-1.23-1.04-2.44-1.45-3.62-.6-1.7-1.11-3.18-2.01-4.07-2.78-2.78,2.28-17.73,3.6-19.58.03-.16.03-.51.03-.76,0-.79,0-1.77.68-2.45.28-.28.68-.61,1.12-.98.82-.68,1.95-1.61,2.34-2.39.86-1.72-1.59-6.51-2.84-7.77-1.49-1.49-1.41-5.63-.91-6.92.19-.5.67-.82,1.2-.82.08-.02.72-.21,1.23-.37,3.7-1.12,6.88-1.93,8.32-.49,1.27,1.27,7.53,4.84,10.52,1.85,1.87-1.87-6.15-16.01-8.02-17.92-1.7-1.71.92-4.36,4.24-7.72.69-.7,1.55-1.57,1.71-1.82.18-.36.39-.7.6-1.03.58-.92.94-1.47.5-3.65-.02-.08-.03-.17-.03-.25,0-.47-.01-1.61-.03-3.07-.15-13.32-.13-13.34.4-13.87.89-.89,2.46-2.77,3.97-4.59,1.5-1.8,2.92-3.5,3.86-4.48-.07-.26-.26-.67-.37-.92-.24-.52-.44-.97-.44-1.45s.07-.88.13-1.16c0,0,0,0,0,0-.7-.57-1.75-1.04-2.86-1.53-1.53-.68-3.12-1.38-4.29-2.56-.93-.93-1.68-2.02-2.41-3.07-.64-.93-1.25-1.82-1.91-2.48-.25-.25-.98-.5-1.62-.71-1.11-.37-2.36-.8-3.32-1.75-4.68-4.68-7.73-7.92-11.35-15.14-.8-1.61-1.71-2.78-2.58-3.91-1.51-1.96-2.93-3.8-3.1-7.08,0-.15.02-.28.06-.42-.03.05-.05.09-.08.14-.54-.54-2.02-3-2.62-4.8-.4-1.19-2.66-1.35-3.49-2.18-.9-.9-5.54-2.24-7.42-1.31-1.27.64-1.41,1.58-2.62,2.18-3.38,1.69-9.24,3.57-11.34,5.67-.62.62-1.27,2.62-3.05,2.62-.2,0,.66,1.09,0,1.74-.82.82-1.04,7.78-.44,9.6.69,2.06,3.52,4.75,2.18,7.42-.75,1.49-8.99,9.68-12.65,7.85-3.86-1.93-6.69-6-11.34-3.93-1.99,1.99-3.5,5.68-4.8,8.29-.66,1.31-3.23,2.53-3.93,3.93-.73,1.45-1.86,3.28-2.62,4.8-.81,1.61-1.61,3.95-2.18,5.67-.31.92.31,2.14,0,3.05-2.1,6.31-2.18,13.42-2.18,20.94,0,2.7-1.8,9.05-.44,11.78,1.64,3.28,2.57,7.52,3.93,10.91.26.65,1.52,1.07,1.74,1.74,1.24,3.72,1.82,5.16-.87,7.85-2.5,2.5-8.71,1.75-11.34.44-3.05-1.53-9.53.42-12.21,1.31-1.49.5-3.84-.7-5.23,0-3.57,1.79-4.79,3.92-7.42,6.54-.31.31-2.53.61-3.05.87-1.14.57-1.8,1.99-3.05,2.62-3.44,1.72-5.14-2.96-6.54-4.36-.66-.66-2.66-.44-3.93-.44-.27,0-1.57-.17-1.74,0-.97.97-3.22.61-4.36,1.74-.75.75-1.88,2.32-2.62,3.05-.42.42-2.12.37-2.62.87-.57.57-.49,1.37-1.31,2.18-3.85,3.85-8.44,4.8-13.96,4.8-.27,0-2.4.22-2.62,0-1.98-1.98-2.92-4.23-4.36-5.67-1.07-1.07-2.68-.5-3.49-1.31-1.64-1.64-.94-6.67-2.18-9.16-1.64-3.27-4.08-4.66-6.11-8.72-1.03-2.06-1.97-7.21-3.05-8.29-1.44-1.44-4.91-.54-6.54-2.18-.39-.39-1.16-9.01-1.74-9.6-.79-.79-4.6-6.66-5.23-6.98-2.11-1.05-4.47.98-5.23,1.74-.32.32-13.03-.38-13.09-.44-2.4-2.4-5.32-4.44-8.29-7.42-.94-.94-.61-2.8-1.74-3.93-.82-.82-2.44-1.57-3.49-2.62-.17-.17-13.47.19-13.96.44-.57.29-.64,1.28-.87,1.74-.8,1.6-1.96,1.74-2.62,3.05-2.25,4.51-.25,6.11-7.42,6.11-1.57,0-5.14.7-6.54,0-2.79-1.4-15.6-9.26-18.32-6.54-.38.38-.93,1.8-1.31,2.18-.29.29-1.45-.29-1.74,0-.57.57-.24,4.46-.44,5.23-3.58,14.33,11.15,15.25,9.6,27.92,2.39,8.36,11.25,13.06,14.4,20.94,1.41,3.53,4.19,6.29,5.23,10.47.31,1.23-.87,6.11,0,6.98,4.21,4.21,9.76,9.49,12.65,15.27.49.99.62,2.45,1.31,3.49,2.21,3.31,5.86,5.49,8.29,8.72,3.71,4.95,7.41,10.25,10.47,14.83,1.43,2.15,3.94,3.73,5.23,5.67.5.75.87,2.62,1.31,3.05.25.25,1.48.47,1.74.87,1.45,2.18,2.08,5.07,3.49,7.42,1.06,1.76,2.42,2.91,3.05,4.8.66,1.97,2.7,1.48,3.49,3.05.9,1.79,2.86,3.98,3.93,6.11.02.05.03.11.05.16.09-.08.18-.16.29-.22.64-.3,1.41-.02,1.71.62Z"/>
    <path id="las_pinas" data-name="las pinas" class="cls-2" d="M358.12,1427.93c1.55-2.5,3.01-4.87,3.76-6.37.06-.23-.1-1.15-.19-1.7-.24-1.45-.49-2.95.43-3.87,2.33-2.33,2.84-6.12,3.39-10.13.35-2.55.7-5.18,1.54-7.69.18-.54.14-1.51.1-2.45-.08-1.77-.16-3.78,1.08-5.03,2.26-2.25,3.56-5.86,4.94-9.68.8-2.2,1.62-4.48,2.67-6.57,1.11-2.22,2.93-3.98,4.69-5.68,1.63-1.58,3.17-3.07,4.03-4.79.99-1.98,1.5-4.08,2.03-6.29.7-2.89,1.42-5.87,3.28-8.68,1.77-2.66,3.57-4.98,5.31-7.22,2.58-3.33,5.01-6.47,6.83-10.09.34-.67.32-1.79.3-2.88-.02-1.4-.05-2.85.57-4.1,1.23-2.45.77-5.97.32-9.38-.49-3.74-.99-7.61.55-10.69.51-1.01,1.22-4.55,1.8-7.39,1.01-4.98,1.33-6.31,1.93-6.91,1.69-1.69,3.19-3.89,4.65-6.02.33-.49.66-.97.99-1.44-1.36-1.42-2.73-2.72-4.43-3.56-1.47-.73-5.2-1.51-9.14-2.34-9.81-2.05-16.88-3.75-18.48-6.96-.95-1.89-.97-5.93-.9-12.37.04-3.95.11-9.92-.62-10.87-1.98-1.97-3.81-7.27-5.18-11.65,0-.02-.01-.03-.02-.05-.34.2-.76.5-1.01.68-1.05.76-2.79,2.03-4.25.57-.95-.95-1.21-2.06-1.45-3.03-.14-.58-.27-1.13-.54-1.66-.6-1.19-2.18-2.25-3.58-3.18-.88-.58-1.71-1.14-2.29-1.72-.71-.71-.92-1.87-1.14-3.1-.13-.7-.34-1.87-.6-2.13-.64-.64-1.32-1.34-2.03-2.09-3.01-3.13-6.76-7.03-10.72-9.02-1.48-.74-3.87-.31-6.18.11-2.72.49-5.54,1.01-7.78-.11-.99-.49-1.16-1.28-.78-8.46.04-.69.07-1.22.07-1.42,0-6.02-.67-11.32-1.33-16.46-.63-4.99-1.29-10.15-1.29-15.83,0-.19.03-.65.08-1.25.08-1.03.34-4.09.15-4.97-3.35-3.42-5.97-8.27-8.73-13.41-2.81-5.23-5.72-10.63-9.45-14.36-.81-.81-.81-2.02-.81-3.09,0-.42,0-1.13-.1-1.32-.61-.6-2.09-.57-3.96-.53-3.64.07-8.61.18-13.45-4.65-2.84-2.84-.15-8.9,2.45-14.75,1.25-2.8,3.56-8.02,2.79-8.8-.78-.78-5.25-.53-7.92-.37-3.07.18-5.72.33-7.29-.19-5.46-1.82-9.52-3.86-14.22-6.22l-1.65-.83c-1.42-.71-3.02-.89-4.57-1.07-2.1-.24-4.26-.48-5.59-2.16-.86-1.09-1.22-2.61-1.11-4.69-.91,1.69-1.92,3.32-3.07,4.48-.66.66-1.84,6.64-3.05,7.85-1.7,1.7-6.27,5.99-7.85,9.16-.45.89-1.55.68-2.18,1.31-1.88,1.88-3.69,4.93-6.11,6.54-1.68,1.12-3.95,1.47-5.67,2.62-3.22,2.14-4.29,4.3-8.72,5.23-3.08,6.17,7.95,8.96,4.8,15.27-1.38,2.77-8.76,1.34-11.34,3.93-.49.49-2.6,5.68-1.31,6.98,2.18,2.18,5.67-3.46,5.67,3.05,0,.18.12,1.19,0,1.31-.62.62-2.3.56-3.05,1.31-1.43,1.43-3.29,3.73-5.23,5.67-.36.36-1.82-.36-2.18,0-1.15,1.15.58,5.82.87,6.11.65.65.51,3.71.87,4.8,1.45,4.34,3.09,8.81,5.67,13.96.99,1.99.59,4.54,1.74,6.98,0,3.13,1.66,6.3,2.62,9.16.57,1.71-.37,3.63.44,5.23,1.5,3-1.02,14.23,0,18.32,2.68,10.71,9,33.04,18.32,39.7,8.52,6.09,12.05,9.3,22.25,12.21,1.21.35,5.58,1.14,6.11,2.18,1.32,2.65,1.04,7.04,2.18,10.47.56,1.67,1.76,3.5,2.62,4.36.5.5.53,5.95.87,6.98,1.55,4.66,2.54,7.34,6.11,10.91,1.82,1.83-1.21,7.95.44,9.6,3.04,3.04,8.68,2.58,10.47,4.36.65.65,1.15,2.31,1.74,3.49.23.47,1.16.37,1.31.87.24.84,0,1.74,0,2.62,0,1.17,2.6,9.61,1.31,10.91-.4.4-4.13,2.85-2.18,4.8.99.99,2.2,1.54,3.49,2.18,1.49.74,3.12,3.55,4.36,4.8,3,3,4.35,8.28,6.98,10.91,1.27,1.27.22,8.3.87,9.6,1.8,3.6,2.38,7.28,4.8,10.91,1.07,1.6,5.18-.49,6.54.87,1.57,1.57,1.82,4.88,3.49,6.54,2.94,2.94,5.86,5.61,7.85,9.6.81,1.63.64,6.31,1.74,7.42,1.93,1.93,4.34,6.59,2.62,10.03-.66,1.33-.93,3.54-1.74,4.36-.22.22-1.09-.22-1.31,0-.22.22-.17,3.75,0,3.93.78.78,2.88-.17,3.49.44,1.99,1.99,8.2,3.41,10.03,5.23.31.31.81,1.68,1.31,2.18,1.58,1.58,5.45.9,7.1,2.3,0,0,0,0,0,0,0-1.85,2.26-5.64,5.97-11.66Z"/>
    <path id="muntinlupa" class="cls-2" d="M523.79,1161.61c-2.93-1.83-5.76-3.31-8.19-1.49-.23.3-.42,1.89-.52,2.75-.2,1.65-.36,2.95-1.08,3.68-1.39,1.39-3.59,1.93-5.71,2.45-1.86.46-3.78.93-4.76,1.91-1.99,1.99-4.37,3.92-6.68,5.79-2.23,1.81-4.54,3.69-6.41,5.55-.53.96-.04,6.72.17,9.19.11,1.34.2,2.39.2,2.99,0,2.31.08,5.39.18,8.97.55,20.66.65,39.6-4.04,44.29-2.76,2.76-7.01,4.18-11.13,5.55-2.29.76-4.67,1.55-6.65,2.55-2.15,1.08-5.75,4.1-7.52,5.87-.7.7-1.92.8-3.2.91-.48.04-1.28.11-1.5.2-1.58.79-3.41,1.64-5.37,2.55-6.29,2.92-14.12,6.57-17.85,10.29-1.89,1.89-5.15,2.39-8.31,2.86-2.91.44-5.92.89-7.4,2.37-.52.52-1.04,1.15-1.56,1.83.23.24.45.48.68.71.5.5.5,1.32,0,1.82-.25.25-.58.38-.91.38s-.66-.13-.91-.38c-.13-.13-.26-.27-.4-.41-.23.33-.46.66-.69,1-1.49,2.19-3.04,4.45-4.86,6.29-.3.68-.89,3.57-1.32,5.69-.82,4.05-1.41,6.8-2.02,8.02-1.19,2.38-.76,5.7-.3,9.21.49,3.79,1,7.71-.57,10.86-.34.69-.32,1.82-.3,2.91.02,1.39.05,2.83-.57,4.07-1.93,3.85-4.44,7.09-7.1,10.52-1.71,2.2-3.48,4.48-5.2,7.07-1.62,2.42-2.25,5.06-2.92,7.85-.54,2.26-1.11,4.6-2.23,6.84-1.06,2.11-2.83,3.83-4.55,5.48-1.68,1.62-3.27,3.16-4.18,4.98-.98,1.96-1.78,4.16-2.55,6.29-1.42,3.91-2.88,7.96-5.54,10.62-.45.45-.38,1.98-.33,3.1.05,1.17.1,2.39-.23,3.38-.76,2.28-1.1,4.79-1.43,7.22-.57,4.21-1.16,8.55-4.01,11.5-.05.35.1,1.21.18,1.74.2,1.23.39,2.39-.05,3.27-.8,1.61-2.29,4.02-3.87,6.57-2.09,3.38-5.59,9.05-5.59,10.3,0,.71-.58,1.29-1.29,1.29-.23,0-.43-.07-.61-.18.25,1-.04,2.52-1.23,4.89-1.15,2.29-.37,3.4-3.49,4.8,0,4.99,5.74,23.59,10.03,25.74,1.21.6,12.19,2.59,12.21,2.62.97.97-.87,16.57-.87,18.32,0,3.69-4.76,8.25-6.54,10.03-.99.99-1.64,11.24-4.36,13.96-.83.83-1.74,16.4-1.74,19.19,0,7.86.96,16.65-.87,23.99-.63,2.53.82,5.82,0,8.29-.68,2.05-1.99,3.36-2.62,5.23-.49,1.47.69,3.86,0,5.23-1.14,2.28-2.75,8.83-3.49,11.78-.4,1.6.37,3.73.44,5.23,1-1,6.36-1.66,9.16-3.05,1.4-.7,1.92-2.05,3.05-2.62,4.43-2.21,8.65-2.49,13.09-5.23,1.99-1.99,8.18-3.38,9.6-4.8,1.86-1.86,4.05-2.9,6.98-4.36,3-1.5,5.21-5.21,6.98-6.98.68-.68,6.07-3.25,7.42-3.93,1.12-.56.82-1.72,1.74-2.18,4.14-2.07,13.67-7.56,16.58-10.47.46-.46-.02-1.3.87-1.74,2.68-1.34,5.53-2.48,7.85-4.8,2.57-2.57.98-7.96,3.49-10.47.81-.81,5.92-3.11,6.11-3.49.57-1.14.76-2.83,1.31-3.93.03-.05,1.1-.44,1.31-.44,4.58,0,8.12-1.54,12.65-3.05,1.44-.48,2.13-3.68,3.49-4.36,3.08-1.54,7.75-3.82,10.47-6.54.81-.81,1.69-2.56,2.62-3.49.62-.62,2.91.29,3.05.44.28.28,1.38-.18,1.74,0,1.02.51.74,1.61,1.31,2.18.22.22,1.09-.22,1.31,0,1.06,1.06,4.24,8.04,5.23,10.03,1,2,13.54-4.36,14.83-4.36,5.29,0,4.96-6.87,6.98-10.91,1.05-2.09-1.05-5.76,0-7.85,1.57-3.15,4.31.49,6.54-1.74.81-.81,1.1-3.07,1.74-4.36,1.72-3.44,4.22-7.74,7.85-10.03h0c-3.93-11.78-1.49-4.8-8.29-4.8-.36,0-2.39.23-2.62,0-5.35-5.35-.76-18.69-4.36-26.17-5.31-5.31-11.45-45.15-5.23-57.58,1.46-2.92-.64-7.45.87-10.47,2.73-5.45-1.19-41.23,1.74-47.11,4.08-8.16.87-38.28.87-48.86,0-2.73-.29-31.11,0-31.41,1.9-1.9,4.52-2.93,6.11-6.11,1.12-2.25,1.2-12.32,2.62-16.58,1.72-5.16-2.12-33.65,0-35.77,4.13-4.13-.32-11.57,2.62-17.45,1.77-3.53,3.76-7.8,5.23-12.21,1.08-3.24,1.53-6.86,2.62-10.47,0-.02.02-.06.03-.1-.16.17-.35.3-.57.39-1.01.4-2-.22-3.51-1.15Z"/>
    <path id="north_caloocan" data-name="north caloocan" class="cls-2" d="M338.47,113.06c.13,2.48,1.15,3.81,2.57,5.65.9,1.17,1.93,2.5,2.85,4.33,3.43,6.87,6.37,9.97,10.86,14.47.53.53,1.44.84,2.32,1.14.95.32,1.93.65,2.61,1.33.83.83,1.53,1.85,2.21,2.84.66.96,1.34,1.95,2.11,2.72.84.84,2.2,1.44,3.52,2.03,1.41.63,2.87,1.27,3.88,2.29.72.72.56,1.57.46,2.08-.04.2-.07.38-.08.59.04.13.13.29.21.47.43.94,1.14,2.5.03,3.61-.86.86-2.4,2.71-3.89,4.5-1.46,1.75-2.84,3.41-3.81,4.43-.08,1.72,0,8.81.03,12.35.01,1.36.03,2.44.03,2.98.55,2.88-.01,4.06-.88,5.41-.16.26-.33.52-.49.84-.24.49-.84,1.1-2.16,2.44-1.05,1.07-3.41,3.45-3.92,4.48,1.09,1.38,3.58,5.34,5.51,9.15,4.28,8.46,3.3,10.92,2.19,12.02-4.26,4.26-11.95.35-14.16-1.85-.5-.23-2.45.13-5.76,1.13-.36.11-.66.2-.9.27-.12,1.15.06,3.14.45,3.57,1.35,1.35,5.02,7.34,3.32,10.74-.63,1.26-1.94,2.35-3,3.22-.32.27-.62.51-.85.72-.03.17-.03.5-.03.73,0,.79,0,1.77-.69,2.45-1.1,1.61-4.77,14.33-3.67,16.11,1.27,1.27,1.91,3.08,2.58,5,.35,1.01.72,2.05,1.2,3.06,5.75,4.37,18.73,11.41,24.54,9.11.26-1.34,1.1-1.54,1.58-1.54.19-.07,1.11-.71,1.71-1.14,2.14-1.51,4.8-3.38,6.6-1.57.83.83,1.32,2.15,1.9,3.69.71,1.9,1.51,4.04,3.04,5.57.78.78,1.81,1.24,2.91,1.73.6.27,1.21.54,1.79.88.33-3.95,1.53-8.18,2.74-9.39.18-.38.08-2.31.02-3.47-.1-2.01-.19-3.75.35-4.83,1.21-2.41.53-6.11-.11-9.68-.72-3.99-1.47-8.11.11-11.29.89-1.78,4.03-7.82,7.03-10.82.91-.91,2.07-1.58,3.19-2.24,1.07-.62,2.17-1.27,2.98-2.08,1.01-1.01,2.66-.97,4.41-.92,1.04.03,2.61.07,2.99-.31.42-.42.85-1.16,1.31-1.94.84-1.44,1.79-3.07,3.35-3.85.32-.16.74-.24,1.45-.37.24-.04.59-.11.81-.16.88-1.35-.96-5.3-2.07-7.69-1.43-3.07-2.37-5.11-1.15-6.33.69-.68,1.66-.68,2.45-.68.23,0,.56,0,.73-.03,3.01-2.92,5.88-1.35,7.79-.3.95.52,1.84,1.01,2.32.78,1.11-.55,1.89-2.05,2.64-3.5.6-1.16,1.17-2.25,1.96-3.04,1.15-1.16,3.11-.76,5.17-.35.94.19,2.51.5,2.91.31,1.16-1.17,3.16-2.34,5.27-3.57,2.36-1.38,4.8-2.8,6.4-4.4.61-.61.67-2.19.72-3.72.08-2.14.16-4.57,1.75-6.15.16-.16.35-.27.57-.33,4.43-1.22,6.52-3.69,8.54-6.08.63-.75,1.29-1.52,1.99-2.23.04-.15-.03-.97-.06-1.46-.09-1.22-.2-2.59.68-3.47.8-.8,4.07-1.73,5.8-.86,1.63.81,2.19,2.72,2.68,4.41.38,1.3.78,2.65,1.49,2.97.52.23,1.48.02,2.7-.59,2.2-1.1,8.3-6.55,16.32-14.56,1.28-1.28,5.02-1.32,13.9-1.11,4.43.1,10.5.25,11.73-.37,3.07-1.53,11.36-1.4,20.14-1.26,6.3.1,13.43.21,15.03-.59.07-.03,7.02-3.48,8.89-1.61.55.55.86,1.37,1.18,2.24.19.5.47,1.26.67,1.46.38.38.95.69,1.55,1.01.65.35,1.39.75,2.01,1.32.7-.32,2.09-2.05,2.71-2.81.45-.56.84-1.04,1.17-1.37.47-.47,1.91-1.92,3.53-1.53,1.54.36,2.15,2.01,2.61,3.4.07-.76.19-1.41.64-1.86,2.06-2.06,4.5-.84,6.12-.03.67.34,1.69.85,1.9.65.3-.3.57-1.02.81-2.16.18-.86.63-1.3,1.33-1.3.61,0,1.47.02,2.5.04,3.4.07,13.74.28,15.1-.9.66-.66,1.41-1.57,2.14-2.45.73-.88,1.48-1.79,2.17-2.48,1.28-1.27,3.13-1.47,4.77-1.64.89-.09,1.82-.19,2.36-.46,3.63-1.81,9.28-6.81,11.15-10.53,1.49-2.97,3.01-7.12,4.62-11.52,2.97-8.11,6.04-16.5,9.81-20.27,2.22-2.22,7.82-2.03,14.37-1.58,1.64.11,3.65.25,4.33.16,1.42-1.35,3.03-2.2,4.6-3.02,1.61-.84,3.14-1.64,4.46-2.97,1.15-1.15,2.29-2.45,3.39-3.7,1.1-1.25,2.24-2.55,3.4-3.71,1.15-1.15,3.58-1.18,5.87-1.04-.01-.45-.04-.93-.05-1.17-.02-.29-.03-.5-.03-.58,0-3.52.16-7.06.32-10.49.15-3.24.28-6.3.29-9.33-.66,1.08-1.72,1.2-2.49,1.97-.93.93-.93,2.24-1.31,2.62-.39.39-5.35-5.57-5.67-6.54-.26-.77.04-7.89-2.18-5.67-1,1-4.07,2.04-4.36,2.62-1.51,3.01-1.59,8.57-3.93,10.91-1.99,1.99-5.08-4.65-5.67-5.23-.26-.26-5.4-.57-5.67-.44-1.8.9-6.54,3.93-8.72,1.74-1.78-1.78,1.84-6.64,2.18-6.98,1.16-1.16-.87-4.11-.87-4.8,0-1.9.87-6.11,0-6.98-.38-.38-7.78,2.87-10.91,1.31-2.42-1.21-.58-9.09-5.67-6.54-3.07,1.54,3.44,11.78-3.93,11.78-.34,0-1.96.22-2.18,0-1.01-1.01-1.46-3.2-2.62-4.36-1.14-1.14-3.57-1.02-4.36-2.62-1.73-3.47,2.19-7.85-3.49-7.85-.81,0-2.37-.34-3.05,0-1.19.59-.23,2.84-.87,3.49-2.7,2.7-3.96,4.81-9.16,6.11-1.54.39-3.68,2.31-5.67,1.31-.15-.07.5-9.57-.44-10.03-3.59-1.8-6.61,2.49-9.6,3.49-1.11.37-7.53,1.19-8.29.44-.64-.64.42-3.09,0-3.93-1.18-2.36-1.25-3.86-3.05-5.67-.33-.33-.04-1.5-1.31-.87-1.26.63-.93,3.55-1.74,4.36-.5.5-7.3,3.17-8.72,1.74-1.1-1.1-.38-8.67-1.31-9.6-.51-.51-6.09,4.82-8.29,2.62-4.19-4.19-4.09-12.82-4.36-13.09-1.68-1.68-6.81,1.04-8.29-.44-1.2-1.2-.91-3.96-1.74-4.8-2.16-2.16-5.31,3.85-6.98,2.18-.96-.96-.1-3.15-.87-3.93-1.09-1.09-20.38-.32-20.5-.44-.97-.97.27-4.1-.87-5.23-.39-.39-11.25-2.35-12.65-3.05-4.06-2.03-9.51,1.57-12.65,2.62-2.48.83-4.14-2.07-6.11-3.05-1.08-.54-7.34-.47-8.29,0-1.31.65-2.04,1.61-3.05,2.62-.8.8-4.96-1.59-6.11-.44-1.86,1.86-1.89,3.49-5.67,3.49-3.2,0-3.19-1.44-4.8-3.05-.22-.22-3.75-.17-3.93,0-1.64,1.64-1.5,7.54,1.14,9.88-1.05-.95-5.99-5.03-7.69-3.34-1.02,1.02,1.02,5.09,0,6.11-2.09,2.09-4.97,4.8-10.03,4.8-1.09,0-1.14,2.35-.44,3.05.34.34,9.26,2.52,6.98,4.8-.59.59-3.87,4.03-3.49,4.8.39.77,3.21,4.21,1.74,5.67-1.39,1.39-5.65.42-6.98,1.74-1.29,1.29-1.92,14.14-2.62,14.83-.15.15-4.08,9.77-4.36,10.91-.49,1.94-.99,11.45-1.74,12.21-.8.8-3.13.07-3.93.87-4.24,4.24-14.8,5.54-21.37,7.42-2,.57-4.62,1.36-6.54,2.18-.99.42-2.1,1.86-3.05,2.18-5.43,1.81-11.16,4.53-16.14,7.85-1.08.72-2.49.37-3.49.87-6.47,3.23-14.59,3.61-21.37,7.85-2.63,1.64-5.31,1.81-7.03,4.55.22-.22.51-.38.85-.39.7-.04,1.31.51,1.35,1.22Z"/>
    <path id="pateros" class="cls-2" d="M602.54,864.48c-.27-.55-.32-1.31-.38-2.2-.02-.39-.06-1-.13-1.29-1.26-1.13-4.72-2.85-6.41-3.69l-.53-.26c-.27-.14-.93-.1-1.45-.08-1.03.05-2.3.12-3.2-.78-.91-.91-1.18-2.08-1.4-3.01-.12-.54-.25-1.11-.45-1.31-1.44-1.44-3.2-.61-6.88,1.62-2.75,1.67-6.05,3.67-9.47,3.15.39,1.55.58,3.03.25,3.82-.24.57-.72.95-1.3,1.03-1.67,1.1-6.88,11.1-9.41,15.93-3.85,7.38-3.94,7.52-4.99,7.52-.91,0-1.8-.74-4.26-2.86-1.01-.87-2.68-2.32-3.74-3.02-.02.26-.04.53-.06.81-.1,1.17-.21,2.63.04,3.37.78,2.35,2.31,4.58,3.39,5.67.8.8.56,1.97.35,3.01-.05.25-.12.62-.15.86.35.24.89.48,1.41.7.91.39,1.94.83,2.7,1.6l10.04,10.04c.7-.21,1.51-.06,2.26.09.26.05.66.13.9.15,2.44-2.24,5.81-2.1,8.79-1.97,2.11.09,4.11.18,5.52-.53,1.63-.82,2.37-4.45,2.37-7.49,0-2.36,1.72-6.84,2.6-8.59.85-1.69,2.56-2.34,4.38-3.03,2.7-1.02,5.49-2.07,6.62-6.58.44-1.75,2.19-2.47,3.88-3.16.56-.23,1.14-.47,1.72-.76.2-.1,1.27-.39,2.66-.66-2.12-2.06-4.29-5.28-5.7-8.11Z"/>
    <path id="san_juan" data-name="san juan" class="cls-2" d="M401.69,663.41c.63,1.25.76,2.58.88,3.76.19,1.89.35,2.9,1.6,3.52.13.04.76.12,1.18.18,1.53.2,2.5.36,3.08.94.39.39,1.23.83,2.04,1.26,1.01.53,2.05,1.09,2.76,1.79,4.49,4.49,10.01,10.03,11.14,18.4,2.86.13,10.56,1.13,11.98,2.54.27.27.53.54.78.82.75.81,1.4,1.51,2.38,2,.64.32,1.04.86,1.39,1.34.27.36.52.7.79.84,3.05,1.53,4.91,3.29,6.7,4.99,1.62,1.54,3.15,2.99,5.51,4.17,2.81,1.41,5.54-.11,7.95-1.45.48-.27.94-.52,1.37-.74.73-.36,1.52-.24,2.15-.14.22.04.56.09.67.07,1.68-.56,3.4-1.59,5.06-2.58.99-.59,2.02-1.2,3.03-1.71.85-.43,1.79-.39,2.61-.36.5.02,1.07.04,1.31-.08,1.36-.68,2.4-1.14,3.42-1.59.96-.43,1.91-.85,3.13-1.46.55-.28,1.24-.29,1.96-.29.26,0,.68,0,.89-.04,2.55-2.57,4.48-5.08,6.34-7.51,1.72-2.24,3.34-4.36,5.3-6.31.45-.45,1.08-.52,1.95-.62.26-.03.52-.05.67-.1.6-.31,1.12-.86,1.72-1.5.75-.8,1.61-1.7,2.97-2.38.44-.22.95-.25,1.61-.28.24-.01.62-.03.83-.07.7-.71,1.49-1.62,2.26-2.5.73-.83,1.42-1.61,1.95-2.15,1.57-1.57,12.05-2.37,14.57-1.11,2.12,1.06,11.21,1.73,12.48.67.58-.58,1.27-.95,1.94-1.2-.24-.23-.39-.55-.4-.91,0-.68,0-1.34,0-1.99.03-2.85.06-5.11-1.33-7.19-.42-.63-.89-1.73-1.48-3.12-.64-1.51-1.98-4.66-2.67-5.09-2.06-1.03-6.26,1.55-8.77,3.1-.82.51-1.53.94-2.1,1.23-.47.23-1.02.24-1.55.25-.13,0-.33,0-.47.01-.63.62-1.23,1.11-1.95,1.11.02,0-.15.05-.37.1-2.12.48-3.67.73-4.4-.36-.58-.87-.84-2.05-1.07-3.09-.1-.45-.19-.88-.31-1.23-1.61-4.84-2.67-7.72-5.55-10.6-.42-.42-.62-1.03-.85-1.74-.04-.12-.09-.28-.14-.44-.48.19-1.1.46-1.57.67-2.08.9-2.99,1.27-3.63,1.27-.24,0-1.3.13-2.25.24-6.42.76-7.72.72-8.45.08-1.4-.88-8.5-3.39-9.76-2.79-.48.5-1.22.97-1.94,1.43-.54.34-1.09.7-1.37.98-.11.11-.3.45-.44.69-.23.41-.47.83-.8,1.16-.58.58-1.31.8-1.9.97-.21.06-.42.11-.59.2-.76.38-1.42,1.1-2.05,1.79-.24.26-.47.51-.7.74-.05.05-6.94,3.21-8.3,1.85-1.2-1.2-1.39-2.98-1.56-4.55-.11-.99-.21-1.94-.53-2.57-.54-1.08-2.55-1.61-4.32-2.08-1.14-.3-2.23-.59-3.13-1.04-1.44-.72-2.77-1.48-3.94-2.15-1.01-.57-1.96-1.12-2.84-1.56-1.52-.76-3.19-1.9-4.21-2.89-.72-.11-3,.44-3.58.73-1.42.71-3.71.48-5.73.28-.75-.07-1.45-.14-1.94-.14l-.23.02c-.94.08-1.69.14-2.22-.39-.26-.26-.93-.52-1.51-.76-.89-.36-1.82-.73-2.5-1.4l-2.05-2.05c-.09-.02-.22-.04-.32-.05-.48-.07-1.14-.17-1.64-.67-.5-.5-.85-1.22-1.18-1.91-.21-.44-.48-.99-.67-1.18-.27-.2-1.65-1.01-2.41-1.37-.21.18-.44.37-.67.57-.36.3-.74.61-1.04.9.02.21.09.53.13.75.2.98.42,2.09-.35,2.86-.18.18-.3.57-.45,1.03-.14.42-.29.91-.54,1.41-.13.27-.08,1.14-.04,1.71.09,1.34.19,2.85-.82,3.87-1.25,1.25-3.3,5.72-4.66,8.67-.5,1.08-.94,2.04-1.27,2.71-1.68,3.35-5.27,6.79-8.17,9.56.53.39.97.82,1.19,1.27Z"/>
    <path id="taguig" class="cls-2" d="M672.85,895.27c-.06-.06-.13-.14-.19-.2s0-.04.15,0c-.03-.1-.06-.2-.06-.31,0-.75-.37-4.16-2.09-5.88-.94-.94-1.11-2.23-1.24-3.17-.03-.21-.07-.49-.1-.64-2.42-2.29-6.82-2.12-9.45-2.02-.48.02-.91.03-1.25.03-.31,0-.88-.04-1.56-.1-.96-.08-3.15-.26-3.85-.13-2.34,2.23-4.97,2.35-7.29,2.46-1.46.07-2.83.13-3.99.71-.63.31-1.06.59-1.44.84-1.11.71-1.9,1.15-4.07,1.15-.58,0-1.48.04-2.55.09-6.58.3-12.64.41-14.62-1.49-.5-.48-.77-1.08-.77-1.74,0-1.65-1.09-2.62-2.36-3.75-.34-.3-.67-.6-.97-.89-.98-.98-.85-2.59-.74-4.01.04-.47.1-1.23.05-1.57-1.13-.37-6.7.5-7.74.91-.6.3-1.24.57-1.85.82-1.1.45-2.24.92-2.37,1.41-1.47,5.81-5.36,7.28-8.21,8.36-1.45.55-2.6.98-2.99,1.77-1.05,2.1-2.33,5.95-2.33,7.44,0,1.85-.27,8.03-3.8,9.79-2.01,1-4.43.9-6.78.8-2.79-.12-5.42-.23-7.08,1.42-.79.79-1.97.56-3.01.35-.13-.03-.29-.06-.46-.09-.06.13-.13.25-.23.35-.21.21-.47.31-.73.34-.42.82-.13,1.43.25,2.19.34.68.8,1.61.21,2.55-.72,1.16-2.37,1.46-8.04,1.46-9.62,0-11.05,1.51-11.05,2.42,0,.16.03.46.06.84.21,2.53.24,3.71-.44,4.39-1.65,1.65-3,3.47-4.3,5.22-1.28,1.73-2.61,3.52-4.23,5.16-.02.13-.03.35-.04.5-.03.62-.08,1.47-.68,2.08-.88.88-2.06.63-2.77.48-.23-.05-.47-.1-.61-.1-.49,0-.93-.21-1.22-.58-.52-.67-.32-1.47-.16-2.11.04-.16.09-.32.1-.45v-6.77c0-2.3-.25-8.31-.43-12.69q-.24-5.69.2-6.12c.38-.38.83-.62,1.22-.83.26-.14.5-.27.63-.39.74-.74,1.09-1.43,1.07-2.13-.04-1.73-2.28-3.76-4.44-5.73-.75-.68-1.5-1.36-2.19-2.05-.09-.03-.65-.13-1.03-.2-.98-.18-2-.36-2.67-1.03-1.43-1.43-2.57-3.74-3.58-5.78l-.36-.73c-2.08-4.16,2.02-11.05,4.28-13.53-.02-.12-.05-.26-.07-.37-.14-.72-.34-1.7.35-2.39.76-.76,1.38-2.12,1.97-3.43.66-1.46,1.34-2.96,2.35-3.97l.29-.29c6.42-6.42,10.66-10.66,14.89-19.11.69-1.37,1.72-2.41,2.73-3.41,1.31-1.3,2.45-2.44,2.66-4.15-2.55-2.48-5.67-4.94-8.98-7.53-3.75-2.95-7.63-6-10.97-9.34-.59-.59-2.25-.97-3.85-1.33-1.99-.45-4.31-.98-5.89-2.24-1.64,3.65-5.33,8.7-7.48,10.89-.06.38.14,1.39.26,2.01.32,1.6.65,3.24-.35,4.25-.82.82-2.04.78-3.03.76-.25,0-.62-.02-.81,0-2.7,2.59-12.24,9.14-16.76,6.89-1.31-.65-3.07-.99-4.94-1.34-2.11-.4-4.29-.81-6.17-1.75-.53-.26-.83-.78-1.29-1.56-.28-.47-1-1.7-1.41-1.89-.01.02-.06.06-.14.13-.79.89.57,6.57,1.47,8.39,1.22,2.45.3,5.54-.67,8.81-1.22,4.09-2.47,8.31.43,11.21.8.8,1.38,1.76,1.9,2.62.41.67.79,1.31,1.18,1.7.88.88,1.82,1.71,2.73,2.51,3.69,3.24,7.52,6.6,7.52,13.82,0,.08.02.23.03.42.13,1.55.17,2.38-.4,2.95-.1.1-.22.48-.31.73-.18.54-.4,1.21-.93,1.74-1.54,1.54-3.91,2.39-6.2,3.21-1.23.44-2.39.85-3.38,1.35-1.77.89-3.94.69-6.04.5-1.91-.17-3.89-.35-4.73.49-1.26,1.26-1.6,3.45-1.95,5.76-.41,2.68-.88,5.71-2.98,7.81-.72.72-2.24,1.04-5.07,1.58-1.72.33-3.67.7-4.51,1.12-2.02,1.01-3.42,1.88-4.78,2.72-1.22.76-2.38,1.47-3.86,2.21-2.19,1.1-4.94.6-7.59.12-2.24-.41-4.56-.83-5.98-.12-1.58.79-3.51,2.16-5.39,3.48-1.87,1.32-3.63,2.57-5.1,3.3-1.43.71-3.69,1.7-6.08,2.75-4.36,1.9-10.33,4.51-11.47,5.65-.1.29.18,1.7.35,2.54.38,1.91.74,3.72-.33,4.83.45.16.8.25,1.01.26.38.02.8.22,1.03.53,1.84,2.53,3.15,4.77,4.41,6.93,1.9,3.24,3.53,6.04,6.48,8.99.78.78.75,2.04.73,3.25,0,.38-.02.94.02,1.2,1.61,1.64,2.95,3.71,4.38,5.89,1.45,2.23,2.96,4.53,4.75,6.32.98.98,1.7,2.56,2.54,4.4.96,2.11,2.05,4.51,3.63,6.08.88.87,1.42,3.07,2.31,6.87.52,2.22,1.11,4.74,1.64,5.8,1.27,2.54,3.25,4.64,4.99,6.5,1.48,1.57,2.87,3.06,3.65,4.6.85,1.7,1.41,3.4,1.91,4.91.62,1.88,1.17,3.49,2.04,4.47.29.12.54.27.74.47.15.15.26.33.32.53.83,2.68,2.98,6.24,4.55,8.02,1.44-.38,5.34-2.17,5.98-2.71,1.24-1.24,4.82.07,4.85.09.74.37,1.47.73,2.2,1.09,2.67,1.31,5.43,2.65,7.81,4.24.15.1.67.18,1.02.24.91.14,2.04.32,2.88,1.16.8.8,1.56,1.42,2.38,2.08.82.67,1.68,1.36,2.56,2.24.1.05.73.16,1.11.23.96.18,1.96.36,2.59,1,.31.31.57.67.81.99.15.21.29.41.43.55.21.17,1.08.6,1.68.86.16.02.31.06.46.13.3.15,1,.5.96,1.35,0,.12-.03.23-.06.34.46,2.3.41,6.54.29,12.39-.08,3.86-.19,9.12.21,10.16.91,1.13,1.65,4.91,1.68,5.08.84,4.31.13,5.61-.48,6.22-3.16,3.16-3.13,22.63-3.11,29.96v1.41c0,.25-.04.75-.09,1.36-.08.94-.27,3.15-.1,3.68,0,0-.04-.13-.19-.27.53.53,4.16,9.43,1.75,11.85-.52.52-1.04,2.2-1.39,3.31-.45,1.45-.73,2.29-1.23,2.8-4.89,4.89-4.29,37.33-4.06,49.55.02.87.03,1.64.04,2.37,1.67-1.54,3.51-3.04,5.32-4.51,2.25-1.83,4.58-3.71,6.48-5.61,1.49-1.49,3.76-2.05,5.96-2.59,1.78-.44,3.62-.89,4.51-1.77.11-.22.25-1.39.35-2.17.23-1.89.45-3.68,1.53-4.49,4.04-3.03,8.45-.28,11.09,1.36.39.25.89.56,1.24.74.28-.17.63-.23.98-.14.42.11.71.42.86.79.39-1.81.9-4.44.91-4.46,2.09-2.09,3.19-6.5,4.36-10.03.25-.76,1.1-1.11,1.31-1.74,1.43-4.28,3.03-7.79,4.36-11.78.24-.71,1.09-.86,1.31-1.74.77-3.1,2.25-5.96,3.05-9.16.64-2.58.68-5.32,1.31-7.85.3-1.21.68-2.34,1.31-3.49,0-5.78-.05-11.19,1.74-16.58.65-1.96-.65-4.58,0-6.54,1.1-3.29.66-7.21,1.74-10.47.69-2.08-.98-5.46,0-7.42,2.06-4.12,2.38-9.34,3.93-13.96,1.14-3.41,3.04-6.07,3.93-9.6,1.05-4.19,1.95-8.03,3.05-11.34.93-2.79,2.81-5.87,4.8-7.85.91-.91,1.16-3.64,1.74-4.8,2.15-4.29,4.26-10.98,8.72-13.96,2-1.33,3.63-2.32,5.23-3.93,1-1,4.26-1.04,5.67-1.74,1.05-.52.99-2.46,2.18-3.05,5.07-2.53,3.91,5.65,4.36,6.11,1.03,1.03,1.77,2.85,3.05,3.49,2.37,1.18,5.96,4.22,7.42,5.67,1.13,1.13,4.79,1.74,6.54,2.62,1.09.54,8.71-.54,10.03-.87,1.35-.34,5.1.13,6.11-.87,3.57-3.57,17.67-6.55,19.63-10.47.46-.92.88-5.25,1.74-6.98.97-1.94,4.48-3.87,4.36-6.98,1.16-2.32.16-5.55,1.31-7.85,1.33-2.66-.88-6.53.44-9.16,1.51-3.01,1.69-7.36,4.36-10.03,2.28-2.28,3.33-5.51,5.23-7.42.82-.82,8.52-2.85,8.72-3.05,1.09-1.09,4.06-2.62,5.67-2.62,2.23,0,7.23-7.61,10.03-4.8,1.32,1.32,4.53,1.47,6.54,3.49,5.62,5.62,15.24,10.94,22.25,3.93.6-.6,2.92-.31,4.36-1.74.7-.7,3.43.47,4.36,0,.08-.04-4.48-3.05-5.67-3.05-1.53,0-7.26-2.89-8.72-4.36-.45-.45-1.17-2.04-1.74-2.62,0,0-1.31-.54-1.31-.87,0-2.1-.08-9.24-.44-9.6-1.4-1.4-1.75-3.5-2.62-5.23-.57-1.15-5.59-2.97-5.67-3.05-1.02-1.02-1.03-2.77-1.74-3.49s-4.26-3-5.23-3.49c-.05-.03-.37-1.24-.44-1.31-.74-.74-1.93-1.06-2.62-1.74-1.92-1.92-1.78-4.83-3.93-6.98-1.41-1.41-4.61-2.43-5.67-3.49-1.8-1.8-4.28-4.6-6.17-6.59-.27-.13-.49-.35-.61-.63Z"/>
    <path id="marikina" class="cls-2" d="M805.7,455.79c-.16-.33-.17-1.91-.44-2.18-.43-.43-1.43-.55-1.74-.87-.8-.8-1.36-2.67-2.18-3.49-3.32-3.32.1-14.73-2.62-17.45-1.07-1.07-3.17-.55-3.93-1.31-2.25-2.25-5.71-3.53-7.85-5.67-.47-.47-5.54-1-6.11-.44-1.76,1.76.24,4.31-.87,6.54-.54,1.07-1.53,3.71-2.18,4.36-.45.45-2.09.34-2.62.87-.17.17-.95,1.66-1.74.87-1-1-3.96-.47-5.23-1.74-.57-.57-1.05-1.92-1.74-2.62-.33-.33-1.1-.02-1.31-.44-.72-1.43-1.88-3.33-2.62-4.8-.44-.88.2-3.72-.44-4.36-.46-.46-.87-.42-1.31-1.31-.51-1.03.29-2.33-.44-3.05-2.32-2.32-7.21-1.54-9.16-3.49-.24-.24-.25-1.81-.44-2.18-.65-1.31-1.79-2.22-2.62-3.05-.17-.17-1.48,0-1.74,0-4.46,0-1.79,2.66-4.36,5.23-1.27,1.27-10.14-1.64-10.91-.87-1.91,1.91,1.08,10.79-4.8,7.85-3.68-1.84,1.29-6.56-.87-8.72-1.94-1.94-2.59-4.34-4.8-6.54-1.12-1.12-3-1.38-4.39-1.89-.89.27-1.79.48-2.73.57-.26.36-.48.65-.66.89-.93,1.26-.97,1.3-1.99,2.29-.43.41-1.04,1.01-2.01,1.97-.38.38-.94.92-1.6,1.55-2.29,2.19-6.55,6.27-7.41,7.99-.46.91-.8,2.42-1.13,3.87-.53,2.34-1.03,4.55-2.2,5.71-.11.23-.11,1.37-.11,2.05,0,1.69.01,3.6-1.13,4.74-.48.48-.83.91-1.14,1.29-.61.75-1.18,1.45-2.17,1.5-1.13.06-2.1-.82-3.45-2.17-.41-.41-.88-.74-1.38-1.09-.56-.4-1.14-.8-1.71-1.37-1.1-1.1-.74-2.93-.35-4.86.17-.84.45-2.25.29-2.62-.03-.01-.42-.14-.67-.22-.54-.18-1.21-.4-1.73-.93-.13-.13-.23-.27-.31-.41-.02,0-.04.02-.06.03-1.29.65-3.61,4.52-5.31,7.35-1.38,2.29-2.57,4.28-3.53,5.29-.2.46-.45,2.06-.58,2.93-.17,1.08-.28,1.76-.42,2.2-1.06,3.19-2.34,5.37-3.47,7.28-.55.93-1.06,1.8-1.54,2.75-.35.7-.56,1.67-.79,2.69-.26,1.18-.53,2.4-1.06,3.48-.91,1.81-2.46,3.28-3.71,4.45-.3.29-.59.56-.85.81-.6.7-3.7,6.6-4.01,7.52-.63,1.89-4.9,6.38-11.57,13l-1.08,1.07c-.73.73-2.39,1.76-5.4.53-1.36-.55-2.82-1.51-4.01-2.6h-.05c-3.19,0-7.35-2.05-11.05-3.87-1.1-.54-2.26-1.11-3.28-1.56.46.79.98,1.59,1.52,2.41,1.7,2.59,3.45,5.27,3.53,8.3.11.26.39.86.62,1.36,1.44,3.08,2.12,4.75,2.13,5.83.96.5,1.71.98,2.06,1.69,1.81,3.62.83,17.99-.62,20.89-1.16,2.33-2.42,4.97-3.75,7.77-1.55,3.27-3.16,6.65-4.89,10.12-.97,1.94-1.91,3.66-2.82,5.32-.89,1.62-1.8,3.3-2.74,5.17-.06.16-.07.75-.07,1.11-.01,1.02-.03,2.18-.78,2.93-.25.25-.59.53-.97.84-.68.55-1.53,1.24-1.87,1.91-.88,1.75-.95,5.69-1.01,8.86-.08,4.01-.15,5.97-1.08,6.9-.09.09-.22.48-.31.73-.18.54-.4,1.21-.93,1.74-.89.89-2.34,1.59-3.86,2.33-2.35,1.14-5.01,2.43-5.01,4.16v9.25c0,.12.09.48.14.69.1.39.2.8.22,1.21,1.6.86,4.73,2.66,7.28,5.21.76.76.9,1.54.88,2.06-.05,1.51-1.36,2.67-2.62,3.79-.69.61-1.46,1.3-1.72,1.81-.54,1.08-.31,1.62-.23,1.8.63,1.49,3.82,2.51,6.16,3.26.6.19,1.18.38,1.72.57,6.34-2.79,10.28-6.15,10.28-14.22,0-.29,0-.59.01-.89.02-.89.05-2.22-.25-2.52-.46-.46-.5-1.19-.1-1.7.4-.51,1.12-.64,1.67-.31.33.2.66.38,1,.56.74.4,1.51.82,2.23,1.39,1.41,1.13,2.5,2.49,3.55,3.81.71.88,1.37,1.72,2.1,2.45l.28.26c.72.68,1.26,1.2,1.65,1.59,1.06-.33,2.8-.75,5.63-1.43,3.08-.74,7.11-1.62,8.79-1.62.34,0,.6.03.83.1.66.2,1.08.74,1.08,1.38s-.04,1.21-.08,1.73c-.02.32-.04.62-.05.88,1,.02,2.82-.05,4.36-.12,7.9-.32,10.91-.23,12.05.92,1.58,1.5,17.11,6.2,20.11,4.69.62-.31,1.24-.7,1.89-1.11,1.64-1.04,3.35-2.11,5.47-2.11.71,0,1.29.58,1.29,1.29,0,.21-.06.4-.15.58.46.01.91,0,1.13-.22,1.14-1.14,1.77-.67,3.05-1.31,2.48-1.24,3.13-4.28,6.54-3.93,0-1.26-.07-3.79.87-5.67.51-1.03,0-3.68,0-4.8,0-8.37-1.48-19.28,1.74-25.74.7-1.4-.7-3.84,0-5.23.65-1.3,14.63.54,16.58-.44,5.4-2.7,4.25-9.92,5.23-10.91,1.99-1.99,5.18-3.25,7.42-4.36.61-.3,0-1.31.44-1.74,1.02-1.02,9.38,1.96,9.6,2.18,1.64,1.64,2.59,3.91,5.23,5.23,1.35.67,3.86.49,5.23,1.31,3.47,0,7.39-1.29,9.6-3.49.29-.29.79-1.49,1.31-1.75.84-.42,2.91.15,3.49.44,7.29,3.65,8.04,10.03,18.32,10.03.37,0,2.78.27,3.05,0,1.32-1.32-.78-8.64-1.31-9.16-1.22-1.22-.44-20.35-.44-22.68,0-.56-.43-4.37,0-4.8,1.3-1.3,1.54-5.24,2.18-7.42,0-3,.45-4.83,1.74-7.42.97-1.93-1.47-7.69,0-9.16,1.47-1.47,4.06-5.81,6.54-8.29.83-.83,3.16-.27,3.49-.44,1.6-.8,3.69-1.95,4.8-3.05,1.26-1.26,1.31-4.62,1.31-6.54,0-9.38-.19-9.11-3.93-16.58-.46-.92-2.54-2.03-3.05-3.05Z"/>
  </g>
  <g>
    <path id="pasay" class="cls-1" d="M291.78,921.95c1.78-.89,3.94-.5,6.04-.11,1.68.3,3.42.62,4.43.11.86-.43,1.73-.88,2.62-1.34,5.22-2.71,11.14-5.77,17.15-5.77.56,0,1.06.36,1.23.9.06.19,5.91,19.5,3.17,22.23-.42.42-1.08.81-1.73,1.19-.31.18-.78.46-.9.56-.86,1.41.24,12.24,1.03,14.07.93,1.4.62,5.98.3,8.14.02.23.04.48.06.74.54,6.97.43,9.25-.51,10.2-1.67,1.67-3.74,4.38-4.02,5.51-.11.6-.02,4.5.04,7.08.05,2.24.08,3.65.08,4.57,1.58.21,2.5.55,3.04,1.09,1.4,1.4,1.11,4.42.53,9.22-.39,3.23-.84,6.88-.22,8.73.27.48,2.25,1.88,3.2,2.55.58.41,1,.71,1.31.95.48,0,1.32,0,1.93-.02.41,0,.75,0,1.04-.01.09-.3.18-.66.27-.99,1.1-4.03,1.67-5.82,2.33-6.48.99-.99,2.54-.9,4.04-.81.63.04,1.81.11,2.09-.08.33-.34.59-1.32.82-2.19.35-1.34.75-2.86,1.78-3.9,1.08-1.08,2.32-1.62,3.69-1.6,3.27.05,6.42,3.39,9.2,6.35,1.34,1.42,3.84,4.08,4.54,3.87,1.37-1.35,2.45-2.89,3.59-4.51,2.15-3.05,4.59-6.52,8.98-8.71,3.85-1.92,7.76,4.47,12.86,13.72,1.37,2.48,2.78,5.04,3.46,5.72.33.1,2.14-.42,5.93-4.26l.1-.1c.98-.98,2.34-1.04,3.53-1.08,1.24-.05,2.03-.12,2.57-.66.3-.3.74-.43,1.16-.35.42.08.77.37.94.77.07.18.14.37.21.55.1.28.2.55.32.75.64,1.09,1.37,2.13,2.15,3.24.73,1.04,1.49,2.11,2.16,3.23.26.43.57,1.22,1.07,2.48.22.56.53,1.37.68,1.67.23.19.61.44.93.64.46.29.85.54,1.14.82.26.26,1.75-.4,2.47-.72,1.68-.75,3.77-1.68,5.24-.2.52.52.93.97,1.27,1.36.25.28.56.62.74.78.48-.28,1.55-1.35,2.03-1.84,1.09-1.09,3.1-.64,5.41-.11.96.22,2.56.59,2.99.46,1.21-.61,2-1.44,2.91-2.39.23-.25.47-.49.72-.74.3-.3.99-.99,12.32-.99.28,0,.65-.02,1.05-.04.29-.02.57-.03.84-.04-.49-1.03-.88-2.17-1.28-3.36-.49-1.49-1-3.03-1.77-4.56-.6-1.21-1.82-2.5-3.22-3.99-1.87-1.99-3.98-4.24-5.42-7.11-.67-1.33-1.24-3.78-1.84-6.37-.47-2.03-1.19-5.1-1.64-5.66-1.89-1.89-3.08-4.51-4.14-6.82-.7-1.55-1.37-3.01-2.02-3.65-1.98-1.97-3.55-4.39-5.08-6.73-1.39-2.12-2.7-4.13-4.17-5.61-.69-.69-.67-1.78-.64-2.93,0-.45.02-1.18-.05-1.46-3.13-3.15-4.92-6.2-6.8-9.43-1.16-1.99-2.36-4.04-3.97-6.3-3.4-.81-13.46-5.88-15.34-7.59-.36-.07-1.35.09-1.95.19-1.31.22-2.55.42-3.48-.04-1.16-.58-2.08-1.15-2.9-1.65-2.09-1.29-3.47-2.14-6.99-2.14-.34,0-1,.06-1.81.13-4.76.4-6.89.42-7.82-.5-2-2,2.07-8.35,2.92-9.5.57-1.44.34-10.78.25-14.31-.03-1.27-.06-2.29-.06-2.84,0-.14.02-.49.05-.96.04-.64.13-2.3.12-3.23-1.28-.12-4.05.19-5.66.37-1.5.17-2.8.31-3.69.31-.17,0-.38,0-.61.02-1.44.04-2.72.04-3.62-.4-.74.08-1.42-.52-1.42-1.28l-.03-.1c-.08-.31-.22-.86.07-1.39.17-1.07.78-2.27,1.28-3.27l.12-.23c1.61-3.22,1.61-7.1,1.61-11.2,0-3.79-1.03-5.78-2.32-8.3-.19-.38-.39-.76-.59-1.16-.37-.75-.76-1.73-.4-2.71.39-1.07,1.4-1.51,2.48-1.99.14-.06.28-.12.43-.19-.41-.96-1.52-2.66-1.89-3.13-.27-.27-.39-.61-.42-.95-.56.2-1.18.26-1.8-.05-2.7-1.35-2.38-3.74-2.21-5.02.02-.17.05-.37.07-.56-.03,0-.06.01-.09.02-.79.16-1.76.35-2.47-.35-1.07-1.07-4.32-2.22-6.47-2.98-2-.7-2.71-.97-3.12-1.39-1.29-1.29-2.96-2.45-4.73-3.68-1.85-1.29-3.75-2.62-5.31-4.17-.06-.03-.49-.2-.78-.31-.72-.29-1.4-.56-1.84-1-3.28-3.28-2.9-7.02-2.59-10.02.19-1.86.36-3.47-.27-4.71-.82-1.64-1.28-3.17-1.72-4.64-.39-1.28-.75-2.49-1.33-3.65-.39-.78-.41-1.46-.43-2,0,0,0,0,0-.01-.52.35-1.15.44-1.99.21-.41-.11-.73-.2-1.53.2-.73.37-1.24.77-1.79,1.2-.6.47-1.23.96-2.14,1.42-1.37.69-3.73.68-7.47.61-3.13-.06-7.03-.13-8.67.69-.98.49-2.31.28-3.85.03-.76-.12-2.02-.32-2.43-.21-1.16,1.06-5.66,3.28-8.39,1.92-1.46-.73-1.76-1.98-1.98-2.89-.14-.6-.25-.99-.54-1.28-.17-.15-.87-.55-1.34-.81-1.45-.8-2.35-1.34-2.78-2.06-.24-.4-.43-.81-.63-1.23-.23.72-.55,1.34-.98,1.77-4,4-21.79,7.38-24.43,12.65-.91,1.81,1.52,7.4,2.18,8.72.64,1.29-.02,3.43.44,4.8,1.33,3.98,1.62,8.48,3.49,12.21,1.16,2.33-1.16,6.4,0,8.72.71,1.43,2.73,2.42,3.49,3.93,2.79,5.58-3.36,7.86-7.85,8.29,0,5.75-.87,16.58.87,23.56,1.23,4.93-1.18,11.3.44,16.14.78,2.34.76,6.91.18,10.42,4.77-1.29,10.28-1.78,16.09-2.29,7.94-.69,16.15-1.41,22.06-4.36Z"/>
    <path id="paranaque" class="cls-1" d="M258.74,1084.65c-.24,1.96-.08,3.32.48,4.02.66.84,2.14,1.01,3.86,1.2,1.69.19,3.61.41,5.43,1.32l1.66.83c4.61,2.32,8.59,4.32,13.88,6.08,1.1.36,3.87.2,6.32.06,5.15-.3,8.39-.37,9.88,1.12,2.03,2.03.14,6.28-2.25,11.66-1.93,4.35-4.57,10.3-2.98,11.89,4.06,4.06,8.23,3.97,11.58,3.9,2.38-.05,4.44-.1,5.87,1.34.81.81.81,2.02.81,3.09,0,.42,0,1.13.1,1.33,3.95,3.94,6.95,9.51,9.85,14.91,2.71,5.04,5.27,9.8,8.43,12.96.75.75.84,2.15.45,6.85-.04.5-.08.88-.08,1.04,0,5.51.62,10.36,1.27,15.5.66,5.21,1.35,10.6,1.35,16.78,0,.22-.03.8-.07,1.56-.08,1.41-.26,4.89-.16,6.21,1.48.46,3.62.07,5.69-.31,2.72-.5,5.54-1.01,7.79.12,4.36,2.18,8.28,6.26,11.43,9.53.7.73,1.36,1.42,1.99,2.05.84.84,1.08,2.19,1.32,3.5.1.57.27,1.53.45,1.76.39.39,1.11.87,1.88,1.38,1.66,1.11,3.55,2.36,4.45,4.17.4.8.58,1.55.74,2.21.19.78.32,1.28.64,1.67.28-.13.75-.47,1.05-.69,1.05-.76,2.35-1.71,3.81-1.23.65.22.74.51,1.18,1.91.68,2.18,2.76,8.82,4.56,10.62,1.34,1.35,1.45,4.9,1.36,12.7-.05,4.33-.11,9.71.63,11.19,1.17,2.34,10.52,4.3,16.7,5.59,4.29.9,8,1.67,9.77,2.56,1.92.96,3.43,2.33,4.83,3.77.51-.64,1.01-1.26,1.54-1.78,2.08-2.08,5.51-2.6,8.83-3.1,2.74-.41,5.58-.84,6.87-2.14,4.05-4.05,11.77-7.64,18.58-10.81,1.93-.9,3.75-1.74,5.31-2.52.63-.31,1.5-.39,2.43-.46.52-.04,1.37-.11,1.66-.23,1.84-1.83,5.64-5.05,8.12-6.29,2.15-1.08,4.61-1.89,6.99-2.69,3.83-1.28,7.79-2.59,10.12-4.92,4.3-4.3,3.64-29.09,3.29-42.4-.1-3.59-.18-6.69-.18-9.03,0-.49-.09-1.55-.19-2.77-.34-3.98-.49-6.73-.33-8.57-.21-.23-.35-.53-.35-.87,0-1.22-.03-3.06-.08-5.33-.44-23.76-.16-46.44,4.82-51.41.11-.17.39-1.08.59-1.74.49-1.59,1.05-3.39,2.03-4.37.64-1.06-1.18-6.98-1.89-8.38-.58-.75-.58-2.13-.32-5.28.04-.51.08-.93.08-1.14v-1.4c-.03-14.48.43-28.35,3.87-31.79.58-1.01-.75-6.89-1.39-7.88-.88-.86-.96-3.17-.77-11.82.09-4.37.21-9.71-.23-11.85-1.09-.47-2.21-1.23-2.33-1.35-.25-.25-.48-.56-.69-.86-.17-.24-.35-.49-.54-.68-.15-.09-.83-.22-1.25-.29-.96-.18-1.86-.35-2.46-.94-.79-.79-1.55-1.41-2.36-2.06-.83-.67-1.68-1.37-2.58-2.26-.25-.25-.89-.35-1.46-.44-.7-.11-1.43-.22-2.05-.64-2.23-1.49-4.8-2.74-7.51-4.07-.74-.36-1.48-.72-2.22-1.09-.31-.12-1.62-.39-2.14-.35-.98.75-3.44,1.83-3.97,2.06-3.51,1.52-4.36,1.49-5.02.83-1.74-1.74-4.23-5.64-5.38-8.93-.65-.11-2.04-.03-2.69,0-.46.03-.88.05-1.2.05-2.68,0-9.28.15-10.69.43-.16.17-.32.34-.48.5-.99,1.04-2.01,2.11-3.67,2.94-1.03.52-2.44.23-4.66-.27-.98-.22-2.59-.6-3.12-.49-1.65,1.65-2.67,2.61-3.86,2.54-1.06-.03-1.72-.76-2.55-1.69-.32-.36-.69-.78-1.17-1.26-.23-.23-1.79.47-2.38.73-1.7.76-3.82,1.71-5.33.19-.09-.09-.45-.32-.69-.47-.5-.31-1.06-.67-1.47-1.08-.3-.3-.48-.71-1.17-2.47-.28-.72-.71-1.82-.88-2.09-.62-1.04-1.35-2.07-2.06-3.07-.78-1.1-1.58-2.24-2.27-3.42-.04-.07-.08-.15-.12-.22-.93.35-1.91.39-2.76.42-.76.03-1.54.06-1.82.34-3.37,3.42-5.95,5.11-7.78,5.11h-.01c-.74,0-1.39-.26-1.88-.75-.89-.89-2-2.87-3.89-6.29-2.06-3.73-7.53-13.65-9.46-12.66-3.81,1.9-5.95,4.95-8.03,7.89-1.16,1.64-2.35,3.34-3.81,4.8-.54.54-1.2.81-1.95.81-1.97-.03-3.9-2.08-6.35-4.68-2.31-2.45-5.18-5.5-7.37-5.54-.62,0-1.24.26-1.83.85-.54.54-.83,1.65-1.11,2.73-.33,1.25-.66,2.53-1.5,3.38-.99.99-2.54.9-4.04.81-.63-.04-1.81-.11-2.08.08-.33.51-1.26,3.89-1.65,5.33-.67,2.44-.85,3.09-2.02,2.94-.09-.01-.17-.03-.25-.06-.34,0-.9,0-1.49.01q-2.96.04-3.37-.38c-.16-.16-.84-.64-1.39-1.03-2.27-1.61-3.79-2.74-4.15-3.84-.8-2.39-.34-6.19.11-9.85.29-2.4.78-6.41.2-7.1-.01,0-.52-.31-2.74-.48-1.35-.1-1.35-1.22-1.35-1.34,0-.16.05-.5.3-.79.01-1.01-.03-3.07-.07-4.8-.12-5.24-.13-7.09.04-7.76.53-2.12,3.49-5.48,4.61-6.62.41-1.09.02-6.1-.14-8.15-.1-.19-.15-.41-.15-.62v-1.86c0-.31.11-.59.29-.81.12-1.76.17-3.87-.05-4.45-1.3-2.09-2.82-15.26-.73-17.34.32-.32.83-.62,1.41-.96.37-.22.91-.54,1.15-.73.75-1.86-1.87-13.33-3.47-18.77-5.09.31-10.35,3.04-15.02,5.46-.9.47-1.79.93-2.65,1.36-1.78.89-3.95.5-6.04.11-1.68-.3-3.42-.62-4.43-.11-6.35,3.18-14.81,3.91-22.99,4.63-6.05.53-11.76,1.02-16.48,2.44-.16.05-.32.06-.48.04-.76,2.5.03,11.21-.42,13.88-.68,4.07.22,20.49-.87,22.68-1.1,2.21-.91,4.87-2.18,7.42-5.59,11.17-10.63,20.95-16.58,33.59,1.73,0,4.23,1.24,6.11,2.18.62.31,1.15,1.84,2.18,2.18,2.98.99,5.85,2.05,8.72,3.49,1.28.64,2.55.18,3.93.87,1.67.83,3.58,2.44,5.67,3.49,1.28.64,3.41,1.47,4.8,1.74,1.06.21,4.91-.76,5.67,0,3.72,3.72,15.32,4.41,17.01,6.11,1.06,1.06-4.97,23.9-6.11,26.17-.72,1.44-2.13,3-3.05,3.93-.91.91-.21,3.26-.87,3.93-2.34,2.34-6.87,2.07-9.16,4.36-.42.42-5.2-.91-7.85,1.74-1.14,1.14-1.32,11.36-2.62,13.96-.03.05-.06.11-.08.17.11-.02.22-.04.33-.02.7.09,1.21.73,1.12,1.43Z"/>
    <path id="manila" class="cls-1" d="M277.81,815.65c.1.2.2.41.29.62.17.35.33.71.53,1.04.19.22,1.26.82,1.83,1.13.94.52,1.53.86,1.9,1.24.82.82,1.05,1.79,1.22,2.5.19.8.27,1.01.63,1.19,1.37.69,4.86-.87,5.5-1.5,1.01-1.01,2.74-.74,4.58-.45.74.12,1.98.31,2.32.2,2.18-1.09,6.08-1.02,9.85-.96,2.53.04,5.39.1,6.27-.34.68-.34,1.15-.71,1.7-1.14.59-.47,1.26-.99,2.23-1.48,1.53-.77,2.53-.6,3.34-.38.09-.13.24-.37.45-.79.01-.02.04-.04.05-.06-.02-.5.25-.98.72-1.21,1.62-.78,3.16-.3,4.29.06,1.05.33,1.35.37,1.53.19.86-.86,1.62-2.38,2.42-3.99.98-1.98,2.1-4.23,3.75-5.88l8.64-8.64c.66-.66,1.6-.99,2.43-1.28.47-.17,1.1-.39,1.28-.57.14-.14.19-.3.31-.71.19-.68.48-1.7,1.74-2.54.88-.59,1.83-1.02,2.74-1.43,1.05-.47,2.04-.92,2.61-1.49-.03,0,0-.31.01-.52.04-.48.09-1.07.36-1.62,1.26-2.52,3.28-4.04,4.9-5.27.62-.47,1.15-.87,1.51-1.23.58-.58,1.01-1.54,1.46-2.55.39-.88.84-1.87,1.46-2.81,1-1.5,2.65-1.92,3.85-2.23.29-.07.67-.17.94-.27-.02-.08-.03-.16-.04-.23-.14-.72-.34-1.7.35-2.39,1.51-1.51,3.5-.77,5.09-.17,1.84.69,2.79.93,3.54.17.27-.48-.09-2.7-.22-3.54-.19-1.22-.28-1.77-.02-2.3.8-1.6,2.87-2.24,4.7-2.8.6-.19,1.51-.47,1.73-.64.85-.85,1.3-2.05,1.83-3.45.29-.77.59-1.57.99-2.37.65-1.3,1.88-1.91,2.96-2.44.44-.22.85-.42,1.19-.66-.33-5.85,1.9-7.61,4.46-9.61.83-.65,1.69-1.32,2.57-2.2.79-.79,1.98-3.22,2.56-4.38l.25-.52c.51-1.03,1.72-2.09,3.13-3.26.22-.19.48-.4.67-.57.04-5.61.8-9.58,4.3-13.08.28-.28.63-.43,1.04-.43.03-.09.07-.17.09-.25.25-.67.53-1.42,1.05-1.94,1.46-1.46,3.34-2.99,5.17-4.48,1.7-1.38,3.3-2.68,4.43-3.81.86-.86,1.64-1.97,2.38-3.04.75-1.07,1.53-2.19,2.42-3.07.34-.64-.53-3.56-1.26-5.3-.46-.16-.81-.58-.85-1.1-.66-8.08-6.14-13.56-10.53-17.95-.43-.43-1.3-.89-2.14-1.33-.94-.49-1.9-1-2.57-1.63-.31-.12-1.19-.23-1.68-.29-.98-.13-1.56-.21-2-.43-2.56-1.28-2.81-3.65-3-5.56-.11-1.05-.21-2.04-.63-2.87-.1-.15-.4-.37-.77-.6-.02.02-.04.04-.06.06-.5.5-1.32.5-1.82,0-.32-.32-.41-.77-.32-1.18-.23-.1-.46-.19-.64-.25-1.81-.61-3.02-2.61-3.98-4.21-.24-.41-.51-.86-.72-1.13-.26-.06-.67-.14-1.02-.21-2.98-.6-4.53-1.01-5.25-1.73l-4.36-4.36c-.41-.41-.61-.96-.82-1.55-.08-.23-.18-.51-.29-.73,0,0,0,0,0,0-.5.08-1.07.17-1.61-.1-1.15-.58-1.96-1.3-2.67-1.93-.65-.58-1.27-1.13-2.13-1.56-.97-.48-2.09-.84-3.27-1.22-1.24-.4-2.53-.81-3.7-1.4-2.72-1.36-4.79-4.22-6.62-6.75-.74-1.03-1.45-2.01-2.1-2.73-5.22-.3-8.27-3.95-10.97-7.18-.83-1-1.62-1.94-2.45-2.77-.49-.49-1.41-.88-2.38-1.3-1.25-.53-2.67-1.13-3.73-2.19-.59-.59-1.16-1.21-1.74-1.83-1.88-2.04-3.83-4.15-7.09-5.78-1.27-.64-2.14-1.9-2.97-3.12-.61-.9-1.25-1.82-1.83-2.11-1.33-.67-7.97-4.03-8.43-4.94-1.99-3.99-5.03-7.02-9.02-9.02-1.6-.8-10.79-11.85-11.48-13.23-.18-.35-.18-.76-.02-1.12.53-1.14.85-2.49,1.18-3.92.51-2.19,1.04-4.46,2.45-6.34,1.13-1.51,3.25-3.69,4.2-4.65.32-1.97,1.61-11.4,1.65-12.06,0-.44.03-.94.07-1.45.07-.98.16-2.32-.2-2.7-.16-.17-.55-.19-.77-.19-.2,0-.39-.05-.57-.13-.79-.39-1.76-.71-2.79-1.04-1.98-.64-4.02-1.31-5.4-2.69-.27-.27-.39-.61-.5-1.02-.11.02-.22.04-.31.06-.87.17-1.95.39-2.69-.35-4-4-3.57-4.85-3.3-5.41.54-1.07,3.26-4.23,4.17-5.13,0-.05-.01-.35-.02-.55-.02-.44-.04-1,.15-1.56.54-1.61,1.36-2.92,2.09-4.08.39-.62.75-1.2,1.03-1.76.01-.07.03-.49.05-.74.04-.85.09-1.66.63-2.21,2.55-2.55,2.68-3.69,2.68-3.89,0-.37-.07-.63-.21-.76-.52-.48-2.27-.34-3.55-.24-.67.05-1.33.11-1.93.11-.22,0-.65-.03-1.16-.08-.69-.06-2.2-.19-2.85-.12-.53.84-1.74,3.68-2.34,5.1-1.05,2.45-1.18,2.74-1.46,3.01-.78.78-1.43,1.9-2.06,2.97-.6,1.03-1.17,2.01-1.86,2.7-1.27,1.27-2.35,2.09-3.3,2.81-.81.62-1.58,1.2-2.37,1.99-.53.53-.84,1.8-1.14,3.02-.4,1.62-.81,3.3-1.91,4.39-.34.34-.79.5-1.27.46-1.12-.1-1.99-1.19-3.72-3.66-.29-.41-.6-.85-.84-1.18-.5.05-.9-.1-1.22-.42-.53-.53-.57-1.24-.59-1.71,0,0,0-.02,0-.03-.33.01-1.23.13-3.03,1.05-.18.09-.49.2-.7.2-.05,0-.06,0-.12.06-.34.4-1.03,2.04-.01,8.69.07.47.11.78.11.87,0,.45-.24.87-.62,1.1-.22.13-.43.28-.65.42-.5.34-1.07.73-1.74.99-2.06.77-4.69.21-7-.3-1.17-.25-2.28-.49-3.04-.49-5.76,0-12.62-.14-18.68-.26-4.35-.09-8.15-.16-10.8-.18-1.2,1.35-3.97,3.55-6.16,3.82-1.2.15-1.94-.31-2.35-.71-.42-.42-.65-1.06-1.02-2.14-.16-.49-.45-1.35-.66-1.69-.38.04-1.24.42-1.78.66-1.7.76-4.03,1.79-5.7.12-.32-.33-.43-.73-.56-1.25,0-.02-.01-.04-.02-.06-1.73-.47-8.5.17-9.99.61h-.01c-1.07,1.09-2.21,2.19-3.21,2.69-.7.35-1.43.47-2.07.57-.65.11-1.22.2-1.52.5-1.57,1.56-4.91.96-9.11.02-1.11-.25-2.26-.51-2.71-.51-.65,0-1.16-.49-1.25-1.11-1.67.09-4.54-.28-5.38-.28-2.75,0-12.34-.12-13.52-1.31-.27-.27-19.62,0-21.81,0-1.95,0-9.51.02-9.16,1.74.15.77.58,1.45.87,2.18,0,2.8,2.25,5.36,3.49,7.85,1.1,2.2,1.89,4.95,3.05,6.11.52.52.98.05,1.74.44,6.26,3.13,9.93,1.74,17.01,1.74,2.65,0,9.82-.74,12.21-.44l10.47,1.31c.43.43,3.71.23,3.93.87,1.01,3.02,0,8.14,0,11.34,0,2.56.22,6.99,1.31,9.16,1.3,2.59-.65,11.6,0,14.83.77,3.83.1,8.24.87,11.34,2.77,11.09,2.62,22.4,2.62,34.46,0,1.82,1.45,16.87.87,17.45-1.42,1.42-5.28-.41-6.98.44-2.3,1.15-5.85.74-7.85,1.74-.61.31-1.82,1.38-2.18,1.74-.48.48-9.29,1.11-10.47,1.31-.78.13-3.84-.52-4.36,0-1.1,1.1-10.25,2.55-13.09,3.49-.78.26-8.99,1.14-9.16,1.31-.23.23,0,1.38,0,1.74,0,2.16-.95,6.83,0,8.72,1.45,2.9,2.6,6.15,4.36,9.16,5.51,0,11.49.58,16.14-1.74.81-.41,6.58-.74,8.29-1.31,4.65-1.55,10.6.68,15.27-.87,2.24-.75,4.78-2.18,7.42-2.18,2.14,0,8.73-3.92,10.47-2.18.8.8,2.32,2.03,3.05,3.49,1.27,2.54-.18,6.79,1.74,8.72,2.13,2.13,9.86,2.88,10.03,3.05.53.53,1.52,3.07.87,4.36-.98,1.97-3.19,1.45-4.36,2.62-1.22,1.22-2.5,3.81-4.36,5.67-1.71,1.71-5.15,3.21-3.49,6.54.53,1.06,6.38,7.69,8.29,9.6.93.93,2.84,1.75,3.49,3.05.74,1.48,2.52,6.06,4.36,6.98,1.47.73,2.54,1.57,4.36,2.18,1.71.57,4.12,6.42,6.11,7.42,1.17.58,1.74-1.74,2.18-2.18,1.18-1.18,3.27-1.96,4.8-3.49.41-.41.51-1.82.87-2.18.19-.19,3.69-.24,3.93,0,1.41,1.41.47,5.27,2.18,6.98,1.61,1.61,3.81,3.87,6.54,5.23.74.37,2.93-.56,3.49,0,.98.98.59,3.21,1.31,3.93,1.81,1.81,4.73,3.42,6.54,5.23.41.41,8.85,1.16,9.16,5.67,3.19,3.19,4.38,10.94,6.11,14.4,1.11,2.23,2.73,5.79,4.36,7.42.51.51.85,6.51,1.74,7.85,2.15,3.22,4.17,7.7,5.23,10.91.31.94.45,1.93.45,2.87.63-.27,1.36-.02,1.66.59Z"/>
    <path id="makati" class="cls-1" d="M405.64,935.11c-.39-1.93-.75-3.76.35-4.86,1.38-1.38,5.95-3.44,12.26-6.19,2.36-1.03,4.59-2,5.96-2.69,1.3-.65,2.98-1.84,4.77-3.1,1.95-1.38,3.97-2.81,5.72-3.68,2.19-1.09,4.94-.59,7.59-.11,2.24.41,4.56.83,5.98.11,1.38-.69,2.48-1.37,3.65-2.1,1.34-.83,2.86-1.77,4.98-2.84,1.16-.58,3.2-.97,5.18-1.35,1.34-.26,3.37-.64,3.8-.93,1.44-1.45,1.81-3.82,2.2-6.33.41-2.62.83-5.34,2.68-7.19,1.68-1.68,4.27-1.45,6.77-1.23,1.74.15,3.55.31,4.66-.24,1.14-.57,2.42-1.03,3.67-1.47,2.03-.72,4.12-1.47,5.25-2.6.09-.09.22-.48.31-.73.15-.44.32-.96.66-1.42,0-.35-.05-.98-.07-1.24-.02-.28-.04-.52-.04-.63,0-6.06-3.08-8.76-6.64-11.89-.94-.83-1.91-1.68-2.85-2.62-.61-.61-1.1-1.41-1.57-2.19-.46-.76-.94-1.55-1.52-2.13-3.99-3.99-2.37-9.41-1.08-13.77.83-2.77,1.6-5.39.84-6.93-.04-.08-3.59-8.76-.99-11.35.85-.85,1.7-.95,2.26-.87,1.6.21,2.59,1.91,3.32,3.15.13.22.29.5.39.65,1.53.72,3.46,1.08,5.32,1.44,1.96.37,3.98.75,5.61,1.56,2.65,1.33,10.97-3.58,13.94-6.55.67-.67,1.63-.64,2.56-.61.29,0,.79.02,1.07-.02.02-.44-.16-1.34-.27-1.91-.32-1.6-.65-3.24.35-4.25,3.3-3.3,7.64-10.41,7.64-12.05,0-.65.48-1.19,1.12-1.28.64-.09,1.24.33,1.41.95.45,1.75,3.11,2.36,5.68,2.94,2.04.46,3.97.9,5.09,2.02,3.23,3.23,7.05,6.23,10.74,9.13,3.54,2.78,6.89,5.41,9.61,8.14.24.24.38.57.38.92-.02,3.06-1.84,4.87-3.45,6.47-.9.89-1.74,1.73-2.24,2.73-4.41,8.83-9.01,13.42-15.37,19.78l-.29.29c-.68.68-1.26,1.97-1.82,3.21-.63,1.39-1.27,2.82-2.21,3.89.02.12.05.26.07.37.14.72.34,1.7-.35,2.39-1.88,1.88-5.46,8.09-4.08,10.85l.37.74c.92,1.86,1.96,3.97,3.09,5.1.17.12.88.24,1.31.32.93.17,1.81.33,2.39.91.66.66,1.38,1.31,2.1,1.96,2.56,2.33,5.21,4.73,5.28,7.57.03,1.41-.58,2.76-1.82,4.01-.39.39-.83.63-1.22.84-.08.05-.17.09-.24.13.03.88.1,2.63.18,4.45.18,4.41.43,10.44.43,12.8v6.79c0,.25-.04.49-.1.73.09.02.19.04.29.06,0-.08.01-.17.01-.24.03-.62.08-1.47.68-2.08,1.54-1.53,2.78-3.21,4.09-4.98,1.31-1.76,2.66-3.58,4.35-5.31.06-.56-.06-1.93-.11-2.55-.04-.47-.07-.86-.07-1.06,0-4.99,9.2-4.99,13.62-4.99,3.33,0,4.85-.14,5.54-.27,0-.01,0-.02-.01-.03-.45-.92-1.31-2.66-.1-4.74l-10.04-10.03c-.41-.42-1.17-.74-1.9-1.05-.87-.37-1.77-.76-2.42-1.41-.8-.8-.56-1.97-.35-3.01.05-.26.13-.66.15-.9-1.3-1.38-2.94-3.84-3.81-6.46-.41-1.24-.28-2.92-.16-4.39.05-.58.09-1.12.09-1.57,0-1.23.73-1.7,1.04-1.84,1.45-.67,3.13.6,6.91,3.87.71.61,1.59,1.38,2.21,1.86.7-1.2,1.95-3.59,3.08-5.76,6.22-11.93,8.77-16.13,10.61-17.08-.08-1.49-1.39-5.4-1.92-6.09-.44-.44-1.25-.42-2.52-.33-1.35.09-3.03.2-4.29-.98-1.05-.99-1.55-2.61-1.55-5.11,0-2.78,2.61-4.75,4.92-6.48.76-.57,1.49-1.12,2.04-1.64.31-1.4.86-7.8,1.02-9.91-.48-.53-.92-1.08-1.38-1.66-.59-.74-1.19-1.51-1.91-2.23-.42-.42-1.77-.49-2.86-.55-1.68-.09-3.42-.18-4.54-1.3l-3.7-3.7c-.73-.73-2.11-1.07-3.46-1.39-1.46-.36-2.98-.72-3.95-1.69-.5-.5-.69-1.27-.96-2.48-.09-.4-.24-1.05-.34-1.29-.95-.92-2.08-1.47-3.28-2.06-1.2-.59-2.44-1.19-3.44-2.19-.62-.55-4.17-.85-6.51-1.05-4.68-.4-7.62-.74-8.91-2.03-.32-.32-1.25-.67-1.87-.9-.8-.3-1.42-.54-1.83-.95-.83-.83-1.55-1.83-2.32-2.89-.94-1.3-1.91-2.62-3.03-3.54-.15-.01-.29-.03-.43-.09-.27-.12-.45-.33-.58-.57-3.34-.3-31.81.19-34.22.6-1.14.53-3.45,1.15-5.9,1.8-1.96.52-4.91,1.31-5.44,1.66-1.1,1.11-2.66,2.43-5.36,3.33-1.55.52-3.07-.01-4.53-.52-.95-.33-1.84-.65-2.66-.65-.97,0-1.87-.87-5.28-4.58-.88-.96-1.75-1.91-2.42-2.58-2.55-2.55-10.05-7.42-13.24-9.01-1.8-.9-3.93-3.85-6.74-7.93-1.35-1.96-2.63-3.81-3.46-4.65-1.13-1.13-4.49-2.18-6.95-2.94-2.66-.83-4.08-1.29-4.78-1.99l-5.84-5.84s-.06.01-.09.02c-.58.12-1.45.29-2.09-.35-.86-.86-2.07-1.55-3.34-2.27-1.48-.84-3.15-1.79-4.59-3.2-.21-.06-.68-.07-.98-.08-.84-.03-1.63-.06-2.19-.62-.64-.64-1.17-1.34-1.67-2.02-.11-.02-.22-.04-.32-.09-.32.18-.63.34-.94.49-.82.4-1.53.75-1.79,1.28-.34.68-.62,1.41-.89,2.13-.58,1.53-1.18,3.12-2.44,4.38-.58.58-1.55.88-2.77,1.26-.97.3-2.52.78-3.03,1.32.03.24.09.62.13.91.39,2.48.63,4.63-.5,5.76-2,2-4.46,1.09-6.26.42-.91-.34-1.65-.59-2.07-.55.01.07.03.14.04.2.14.72.34,1.7-.35,2.4-.64.64-1.54.87-2.42,1.1-.98.25-1.9.49-2.35,1.17-.5.76-.89,1.61-1.26,2.43-.53,1.18-1.08,2.4-1.99,3.32-.49.49-1.12.97-1.78,1.47-1.48,1.12-3.16,2.39-4.15,4.37-.05.1-.08.45-.1.67-.05.63-.12,1.49-.76,2.13-.9.9-2.16,1.47-3.37,2.02-.82.37-1.67.75-2.38,1.23-.47.31-.54.58-.69,1.1-.14.51-.34,1.2-.96,1.82-.58.58-1.42.88-2.23,1.17-.55.19-1.23.44-1.47.68l-8.64,8.64c-1.35,1.35-2.33,3.31-3.27,5.2-.9,1.8-1.74,3.5-2.9,4.67-1.33,1.33-2.94.82-4.12.45-.51-.16-.93-.28-1.31-.33.41.8.45,1.51.47,2.08.02.44.03.68.16.94.68,1.35,1.09,2.73,1.49,4.06.41,1.37.84,2.78,1.56,4.23.95,1.91.74,4.05.52,6.12-.29,2.84-.57,5.52,1.85,7.94.12.08.65.3.97.42.68.27,1.26.5,1.65.88,1.39,1.39,3.2,2.65,4.96,3.88,1.75,1.22,3.57,2.49,5.01,3.91.31.17,1.37.54,2.23.85,3.04,1.07,5.69,2.07,7.14,3.31.14-.02.31-.06.44-.08.79-.16,1.77-.35,2.47.35.9.9.73,2.09.6,3.05-.18,1.32-.17,1.83.65,2.29.2-.08.54-.29.72-.41.54-.34,1.55-.98,2.39-.14.67.67.48,1.58.35,2.25-.02.11-.05.21-.06.31.75,1.01,2.66,3.79,2.42,5.28-.09.53-.4.97-.86,1.2-.45.22-.86.41-1.23.57-.37.16-.87.38-1.07.53.02.1.08.31.26.67.2.39.39.77.58,1.13,1.4,2.72,2.61,5.07,2.61,9.47s0,8.59-1.88,12.35l-.12.24c-.32.64-.82,1.62-.99,2.28.05.12.1.25.14.4.48.09,1.69.05,2.18.03.26,0,.5-.02.69-.02.75,0,2.04-.14,3.41-.3,3.77-.42,6.34-.65,7.64,0,.96.48,1,1.35.75,5.57-.02.4-.04.7-.04.81,0,.54.02,1.53.06,2.78.31,12.73,0,15.15-.87,16.02-.69.75-2.67,4.57-2.87,6,1.18.18,4.22-.08,5.61-.2.9-.08,1.61-.14,2.03-.14,4.25,0,6.14,1.17,8.34,2.52.81.5,1.65,1.02,2.71,1.54.27.08,1.3-.09,1.91-.19,1.61-.27,3.14-.52,4.09.44,1.02,1.02,7.17,4.18,11.15,5.89,0-.3.1-.61.32-.85.14-.41-.14-1.77-.3-2.59Z"/>
    <path id="pasig" class="cls-1" d="M688.17,608.42c-4.41,2.2-21.13-3.23-23.08-5.18-.95-.54-6.92-.29-10.13-.16-5.58.23-6.43.26-6.84-.95-.26-.8-.21-1.62-.14-2.57,0-.13.02-.27.03-.42-3.02.33-11.82,2.52-13.44,3.06-.48.28-1.17.21-1.58-.2-.09-.09-.16-.18-.22-.29-.26-.27-.9-.9-1.92-1.87l-.32-.31c-.83-.83-1.58-1.76-2.29-2.66-1.01-1.27-1.97-2.46-3.15-3.41-.11-.09-.23-.18-.35-.26,0,.3,0,.6-.01.9,0,.28-.01.56-.01.83,0,9.27-4.89,13.28-10.51,15.97.01.22,0,.44-.11.64-.11.23-.29.41-.49.53-.04,10.22.25,13.14.5,13.77,1.22,2.43,5.86,6.22,9.96,9.57,2.68,2.19,5.21,4.26,7.07,6.11.24.19,1.3.27,1.87.32,1.2.09,2.34.18,3.07.91,1.96,1.96,3.57,4.43,5.26,7.04,1.75,2.7,3.56,5.49,5.84,7.76.61.61.65,1.45.68,2.07,0,.15.02.37.04.5.77.76,1.85,1.69,2.9,2.59,1.14.98,2.31,2,3.17,2.85.94.94,1.17,9.44-.24,12.86-1,2.41-2.59,2.91-3.75,2.91-.05,0-.15.01-.27.02-1.28.09-1.97.12-2.49-.4-.55-.55-1.19-1.05-1.87-1.59-.69-.55-1.4-1.11-2.11-1.78-.03,0-.07.01-.1.02-.58.11-1.44.29-2.09-.35-.66-.66-1.41-1.58-2.19-2.56-1.94-2.41-4.6-5.7-6.84-5.82-.72-.04-1.41.28-2.11.97-.15.32-.02,1.83.05,2.73.16,1.84.31,3.58-.59,4.59-1.3,2.51-2.7,20.95-1.29,22.98.77.77,1.58,2.31,1.58,3.96,0,.39.03.95.07,1.59.22,4.04.25,6.76-1.39,7.58-5.27,2.63-14.34-2.05-18.67-6.33-.35-.09-1.31-.05-1.89-.02-1.51.07-2.92.14-3.75-.68-.69-.69-1.81-.99-3.11-1.34-1.55-.41-3.29-.88-4.7-2.17-.55-.06-1.94.06-2.56.11-.47.04-.86.07-1.06.07-2.56,0-7.04.86-7.73,1.48-1.19,1.19-3.25.91-5.43.61-1.26-.17-3.36-.46-3.82,0-1.85,1.85-4.47,2.7-7.23,3.59l-1.29.42c-2.12.71-3.88.58-5.29.47-1.75-.13-2.81-.21-4.08,1.07-.79.79-9.59,4.02-13.14,5.02.08,1.08.23,2.81.39,4.72,1.58,18.26,1.48,21.89.42,22.95-1.54,1.54-2.79,4.45-3.9,7.03-.48,1.12-.94,2.18-1.41,3.13-.53,1.07-1.66,1.81-2.65,2.47-.49.33-1,.67-1.29.95-.83.83-1.31,2.67-1.73,4.29-.33,1.25-.63,2.43-1.11,3.4-.18.36-.02,1.25.11,1.97.21,1.15.45,2.46-.11,3.58-.39.77-.92,2.18-1.48,3.68-1.43,3.81-2.54,6.6-3.7,7.76-1.57,1.57-3.21,2.73-4.79,3.84-1.56,1.1-3.04,2.14-4.46,3.56-1.55,1.55-2.62,3.8-3.55,5.89,1.32,1.12,2.38,2.57,3.35,3.9.71.97,1.37,1.89,2.06,2.58.07.04.57.22.93.36.97.37,2.07.78,2.78,1.49.72.72,4.69,1.06,7.31,1.29,4.28.37,6.96.65,8.11,1.8.69.69,1.69,1.18,2.75,1.7,1.3.64,2.78,1.36,4.04,2.62.5.5.69,1.27.96,2.48.09.4.23,1.04.34,1.28.5.42,1.6.69,2.67.95,1.61.39,3.43.83,4.67,2.07l3.7,3.7c.42.42,1.77.49,2.86.55,1.68.09,3.42.18,4.54,1.3.83.83,1.48,1.65,2.11,2.45.54.68,1.04,1.32,1.59,1.87q.47.48-.08,6.42c-.55,5.9-.77,6.11-1.15,6.5-.7.7-1.58,1.36-2.51,2.06-1.83,1.37-3.9,2.93-3.9,4.43,0,2.22.46,2.98.73,3.23.42.39,1.17.37,2.37.29,1.43-.09,3.21-.21,4.54,1.12.3.3.77,1.23,1.23,2.39,2.9,1.37,6.05-.53,9.1-2.38,3.29-1.99,7.01-4.26,10.03-1.24.72.72.95,1.69,1.14,2.55.16.71.32,1.38.71,1.77.16.09.84.05,1.25.03.87-.05,1.85-.09,2.73.35l.52.26c2.8,1.39,5.9,2.99,7.22,4.3.6.6.66,1.58.74,2.81.03.43.07,1.07.13,1.26,1.95,3.89,4.95,7.7,6.81,8.63.05.02.08.06.12.09,1.93-.14,3.76-.01,4.53.77.84.84.74,2.16.63,3.56-.05.61-.14,1.75.02,2.03.23.22.53.49.83.75,1.42,1.26,3.18,2.84,3.22,5.58.79.84,5.07,1.09,12.7.75,1.13-.05,2.06-.09,2.67-.09,1.52,0,1.84-.2,2.68-.74.42-.27.93-.6,1.68-.97,1.65-.82,3.36-.91,5.02-.98,2.19-.1,4.08-.19,5.75-1.86.74-.75,2.08-.77,5.73-.47.59.05,1.08.09,1.35.09.32,0,.71-.02,1.16-.03,2.9-.11,8.28-.31,11.47,2.88.52.52.62,1.25.72,2.01.08.61.18,1.37.51,1.69,1.91,1.91,2.59,5,2.78,6.75.01-.01.02-.03.03-.05.25-.25,4.87-.44,5.23-.44,4.75,0,9.92-1.8,14.83-2.62,1.73-.29,3.44-.56,5.23-.44.18,0,1.19.12,1.31,0,1.34-1.34,3.76-.27,4.8-1.31.38-.38,3.1-3.97,3.93-4.8.34-.34.25-8.04,0-8.29-.57-.57-1.79-1.31-3.05-1.31-3.63,0-6.17-4.23-4.36-7.85.62-1.24,2.28-1.4,3.05-2.18,1.06-1.06-.65-4.14-.87-4.36-.75-.75-3.56-.51-4.36-1.31-.96-.96-.83-2.57-1.74-3.49-.78-.78-5.11-3.86-6.11-4.36-1.85-.92-7.35.94-8.72-.44-3.2-3.2-1.12-9.02-2.62-13.52-1.65-4.94-3.05-7.35-3.05-12.65,0-8.36,3.42-2.48,4.8-5.23.53-1.05,2.83-1.3,3.49-2.62.6-1.21.66-2.4,1.74-3.49.86-.86,4.21,1.6,4.36,1.74.92.92,5.14-.1,6.11.87.44.44.44,1.31.87,1.74,1.09,1.09,5.38,2.11,6.98,1.31,5.56-2.78,3.61-5.73,8.72-8.29,1.41-.7,9.62-3.08,10.03-3.49,1.27-1.27-1.1-3.49-1.74-3.49-2.75,0-10.2-.6-11.78-2.18-.95-.95-1.38-2.65-3.05-3.49-2.32-1.16-5.49-2-6.98-3.49-1-1,.02-6.09-1.31-7.42-1.61-1.61-6.91,1.68-7.42,2.18-2.39,2.39-11.18-3.46-13.09.44.77-1.54,3.25-3.25,4.8-4.8,1.05-1.05,1.33-3.51,2.18-4.36,5.93-5.93,8.77-10.95,13.96-16.14,3.89-3.89,11.29-5.19,14.83-8.72.2-.2-.13-1.05,0-1.31.66-1.32,1.39-1.9,2.18-3.49.94-1.89,0-19.19,0-22.68,0-8.29,2.01-5.32,4.8-10.91.5-1.01,1.68-.74,2.18-1.74,1.9-3.81-1.47-18.21-3.05-21.37-1.56-3.12-.58-12.65-1.74-16.14-1.13-3.4-2.46-5.64-1.31-9.6,0-3.16-1.25-21.31-2.18-22.25-.72-.72-2.1-2.1-3.05-3.05-1.16-1.16-.83-5.2-2.18-6.54-2.5-2.5-10.74,1.47-13.52-1.31-1.02-1.02-3.36-5.84-4.36-7.85-1.19-2.39,0-14.55,0-17.89,0-1.82-.75-2.85-.38-3.79-1.13.22-2.22.91-3.37,1.63-.67.42-1.37.86-2.11,1.23Z"/>
    <path id="quezon" class="cls-1" d="M818.79,36.59c0-1.21.16-2.45-.44-3.05-.95-.95.51-4.29-.44-5.23-.58-.58-4.77,0-5.67,0-7.88,0-36.1-.98-39.7,2.62-.37.37-7.7.87-9.16.87-1.89,0-14.78,1.36-14.83,1.31-.69-.69-2.83-.65-3.49-1.31-2.07-2.07-3.62-4.3-6.98-2.62-2.86,1.43-3.58,3.7-6.54,5.67-.74.49-2.07.32-2.62.87-1.81,1.81,2.09,6.2,0,8.29-2.38,2.38-4.26,5.57-6.54,7.85-1.52,1.52-4.17,2.86-5.67,4.36-.13.13-1.69-.01-1.74,0-.9.22-1.41,1.05-2.18,1.31-1.34.45-2.66-.39-3.49.44-.72.72-4.21-.07-5.23.44-.71.36-9.9,2.32-10.03,2.18-1.39-1.39-.75-5.55-2.62-7.42-.21-.21-3.54,4.5-4.26,6.84.23-.35.61-.6,1.06-.6.71,0,1.29.58,1.29,1.29,0,3.26-.15,6.68-.3,9.98-.15,3.4-.31,6.92-.31,10.38,0,.07,0,.23.02.45.13,2.49.18,3.33-.73,3.79-.36.18-.64.16-1.47.11-3.28-.21-4.15.08-4.37.27-1.1,1.1-2.16,2.31-3.28,3.58-1.12,1.28-2.29,2.6-3.5,3.82-1.6,1.6-3.37,2.53-5.09,3.43-1.53.8-2.98,1.56-4.16,2.74-.74.74-1.97.69-6.13.4-3.77-.26-10.79-.74-12.37.83-3.37,3.37-6.48,11.85-9.22,19.34-1.64,4.47-3.18,8.69-4.73,11.79-2.17,4.35-8.22,9.64-12.3,11.68-.96.48-2.12.6-3.24.71-1.27.13-2.58.27-3.21.9-.6.6-1.29,1.43-2.01,2.3-.77.92-1.56,1.88-2.31,2.63-1.65,1.65-7.23,1.85-16.96,1.65-.53-.01-1.01-.02-1.44-.03-.22.84-.61,1.97-1.34,2.7-1.52,1.52-3.46.54-4.87-.16-1.66-.83-2.39-1.06-3-.58-.04.22-.06.61-.08.86-.07.97-.13,1.81-.68,2.36-.69.69-1.41.95-2.14.79-1.22-.29-1.67-1.6-2.1-2.87-.2-.58-.56-1.66-.84-1.86,0,.03-.36.13-1.09.86-.24.24-.6.69-.99,1.17-1.7,2.11-3.13,3.72-4.7,3.81-.63.03-1.23-.2-1.69-.65-.38-.38-.95-.69-1.55-1.01-.7-.38-1.5-.81-2.15-1.46-.6-.6-.93-1.5-1.26-2.38-.13-.35-.33-.89-.49-1.17-1.11-.05-4.64,1.25-6.02,1.94-2.05,1.03-7.5,1-16.22.86-7.33-.12-16.44-.26-18.95.99-1.71.86-6.03.8-12.94.64-4.39-.1-11.01-.26-12.08.41-4.84,4.84-13.55,13.31-16.93,15-1.99,1-3.58,1.2-4.87.64-1.82-.79-2.41-2.82-2.93-4.6-.35-1.18-.74-2.52-1.36-2.83-.52-.26-2.19.09-2.8.38-.06.31,0,1.01.03,1.45.09,1.22.2,2.59-.68,3.48-.63.63-1.22,1.33-1.85,2.07-2.12,2.5-4.51,5.32-9.45,6.79-.69.93-.75,2.59-.8,4.2-.07,2.02-.15,4.12-1.47,5.45-1.83,1.83-4.53,3.41-6.92,4.8-1.97,1.15-3.82,2.23-4.8,3.22-1.15,1.16-3.1.77-5.17.35-.94-.19-2.5-.5-2.91-.31-.46.47-.94,1.39-1.44,2.37-.9,1.73-1.92,3.69-3.77,4.62-1.68.84-3.28-.04-4.7-.82-2.01-1.1-3.22-1.64-4.83-.04-.69.68-1.66.68-2.45.68-.11,0-.25,0-.38,0,.21.79.89,2.24,1.41,3.36,1.81,3.9,3.87,8.32,1.43,10.76-.39.39-.91.5-2.03.71-.34.06-.67.12-.84.18-.81.41-1.52,1.63-2.21,2.81-.54.93-1.05,1.81-1.71,2.47-1.16,1.16-3.05,1.11-4.88,1.06-.83-.02-2.23-.06-2.53.18-1.04,1.04-2.29,1.77-3.5,2.47-1.03.6-1.99,1.16-2.67,1.84-2.17,2.17-4.8,6.66-6.54,10.15-1.21,2.41-.53,6.11.11,9.68.72,3.99,1.47,8.11-.11,11.29-.24.48-.15,2.33-.09,3.56.14,2.74.17,4.47-.77,5.41-1.13,1.13-2.99,9.93-1.61,12.71.41.81.93,1.51,1.4,2.12.41.54.8,1.05,1.07,1.58.48.95.04,2.39-1.41,6.79-1.16,3.53-3.44,10.44-2.9,13.06,2.29-1.55,12.89-1.49,14.56.17,1,1,.67,2.65.35,4.25-.12.62-.33,1.64-.26,2.01.84.86,1.45,1.78,2.05,2.66.62.93,1.26,1.88,2.18,2.8s1.8,1.84,2.63,2.7c3.26,3.4,5.84,6.09,9.99,8.16.83.42,1.32,1.26,1.8,2.08.2.34.53.9.69,1.02,1.28.64,2.54,3.23,2.85,5.14.22,1.36-.01,2.39-.69,3.07-.52.52-1.14.5-1.56.41-.64.96-1.06,2.63-1.47,4.24-.23.93-.48,1.87-.77,2.76.17.3.22.67.11,1.03-.14.41-.47.69-.86.8-.06.11-.11.24-.17.35-.23.4-.66.65-1.12.65-2.69,0-7.86,7.3-11.28,12.12-1.85,2.62-3.48,4.9-4.77,6.3,0,.04.02.09.03.13.1.55.23,1.24-.18,1.85-.79,1.18-2.02,1.75-2.92,2.16-.36.16-.81.37-.94.51-.66.66-1.38,1.65-2.15,2.71-.88,1.22-1.8,2.47-2.79,3.46-3,3-6.56,6.72-10,10.32-3.37,3.52-6.86,7.17-9.74,10.04-.55.55-1.33,1.07-2.22,1.66-1.32.88-2.82,1.87-3.85,3.17l-1.17,1.47c-4.65,5.82-8.66,10.85-13.73,15.91-2.28,2.28-5.23,4.37-8.08,6.38-3.97,2.81-8.08,5.72-9.57,8.7-1.03,2.06-.44,6.43.12,10.66.65,4.83,1.26,9.39-.12,12.17-.49.98-1.55,3.74-2.58,6.42-2.25,5.85-2.76,7.04-3.21,7.49-.23.23-.52.45-.84.68-.53.39-1.04.75-1.39,1.45-.59,1.18-.91,2.3-1.21,3.38-.45,1.61-.89,3.13-2.11,4.35-.48.62-1.44,4.48-2.07,7.02-.75,3.01-1.4,5.62-2,6.83-.2.4-.69,1-1.79.76-1.03,1.68-2.68,6.66-3.61,9.46-.54,1.63-1,3.03-1.34,3.87-.57,1.42-.77,2.89-.99,4.44-.19,1.35-.38,2.75-.84,4.12-.47,1.4-1.77,2.63-3.02,3.83-1.01.96-2.24,2.13-2.44,2.95.13.27.35.69.55,1.08.55,1.06.57,1.11.62,1.29,1.43,5.71,2.27,10.14.02,14.83.05.11.13.26.19.37.31.57.78,1.44.42,2.36-.09.23-.23.42-.4.6.14.88.09,1.84.03,2.73-.03.45-.06.9-.06,1.32,0,.11-1.43,12.87-2.12,13.56-.5.5-3.05,3.07-4.24,4.66-1.08,1.44-1.53,3.36-2,5.38-.29,1.26-.6,2.56-1.07,3.77,1.67,2.39,9.02,10.91,10.1,11.65,4.35,2.17,7.73,5.51,9.98,9.88,1.12.73,6.59,3.63,7.41,4.04,1.17.59,2,1.79,2.8,2.96.65.95,1.32,1.94,2,2.27,3.68,1.84,5.88,4.23,7.83,6.33.55.6,1.1,1.19,1.67,1.76.71.71,1.83,1.18,2.91,1.65,1.15.49,2.35,1,3.19,1.84.91.91,1.77,1.94,2.61,2.94,2.68,3.2,5.21,6.23,9.59,6.28.34,0,.66.14.89.38.89.89,1.77,2.11,2.7,3.4,1.65,2.29,3.53,4.88,5.69,5.96,1,.5,2.13.86,3.34,1.25,1.23.39,2.5.8,3.64,1.37,1.16.58,1.97,1.3,2.69,1.94.6.53,1.17,1.04,1.91,1.45.08-.01.16-.03.24-.04.6-.1,1.42-.23,2.03.38.58.58.86,1.38,1.09,2.02.08.22.2.56.26.65l4.31,4.31c.46.33,2.99.84,3.94,1.03,1.51.3,1.82.37,2.17.72.42.42.81,1.07,1.26,1.82.67,1.11,1.68,2.79,2.6,3.1.02,0,.71.25,1.58.66.17-.16.33-.32.51-.49,2.76-2.64,6.2-5.92,7.69-8.89.33-.66.75-1.58,1.24-2.64,1.97-4.29,3.72-7.96,5.17-9.42.19-.22.11-1.34.07-1.88-.07-1.05-.15-2.14.3-3.03.16-.33.28-.68.39-1.05.19-.59.4-1.25.86-1.82-.02-.21-.09-.55-.13-.78-.2-.98-.42-2.09.35-2.86.4-.4.93-.84,1.44-1.26.4-.34.79-.65,1.03-.89,1.44-1.44,5.48,1.81,5.52,1.85.49.49.83,1.19,1.16,1.88.19.39.42.86.6,1.11.09.02.21.04.3.05.48.07,1.14.17,1.64.67l2.16,2.16c.3.3,1.01.58,1.63.83.71.28,1.43.57,2.02,1.02.19,0,.42-.03.55-.04.2-.02.36-.03.44-.03.61,0,1.38.08,2.19.16,1.42.14,3.57.36,4.33-.02.05-.02,4.82-1.97,6.42-.38.81.81,2.36,1.87,3.68,2.53.94.47,1.92,1.03,2.96,1.62,1.2.68,2.45,1.39,3.82,2.08.67.33,1.62.59,2.64.86,2.3.61,4.9,1.3,5.96,3.42.52,1.05.66,2.26.78,3.44.1.96.21,1.95.54,2.59,1.29-.28,4.3-1.25,5.09-1.58.16-.16.31-.34.48-.51.75-.83,1.61-1.76,2.8-2.36.35-.17.71-.28,1.03-.37.3-.09.68-.2.8-.31.08-.09.26-.4.37-.6.23-.42.5-.89.86-1.25.48-.48,1.12-.89,1.81-1.33.6-.38,1.22-.78,1.58-1.14,2.22-2.21,11.04,1.45,12.92,2.56.9.18,4.97-.31,6.73-.52,1.42-.17,2.18-.26,2.55-.26.29-.06,1.74-.68,2.6-1.06,2.69-1.17,3.41-1.48,4.17-.72.51.51.77,1.3,1.01,2.06.09.27.22.69.29.81,3.21,3.2,4.41,6.46,6.1,11.52.14.42.26.94.38,1.48.14.64.3,1.34.51,1.85.56-.04,1.52-.26,1.89-.34.29-.07.49-.11.65-.14.09-.07.26-.22.54-.5.62-.62,1.42-.63,2.13-.64.19,0,.37,0,.51-.02.46-.24,1.1-.63,1.82-1.08,3.16-1.94,7.93-4.88,11.28-3.2,1.38.69,2.43,2.97,3.87,6.38.47,1.11.96,2.26,1.25,2.7,1.83,2.74,1.8,5.61,1.76,8.64,0,.62-.01,1.26,0,1.92,0,.13-.03.25-.07.37.12.02.22.05.31.07l.14.03c.71,0,1.23.57,1.24,1.27,0,.08,0,.15-.02.23.19.64.15,1.57.02,3.05-.03.29-.05.53-.05.66,0,3.95-.11,8.38-1.44,11.04-1.09,2.23-5.57,20.28-5.47,24.89,1.11-.33,2.66-.79,2.93-.9.07-.03.15-.03.22-.04.14-.46.52-.81,1.01-.89,2.16-.34,11.68-3.99,12.97-4.67,2.07-2,4.06-1.86,5.98-1.71,1.31.09,2.66.19,4.29-.35l1.31-.43c2.57-.83,4.79-1.55,6.21-2.96,1.35-1.35,3.7-1.03,5.98-.73,1.01.14,2.89.39,3.28.1,1.64-1.64,8.05-2.22,9.54-2.22.16,0,.46-.03.84-.06,2.53-.22,3.71-.24,4.39.44.96.96,2.31,1.32,3.75,1.7,1.48.39,3.01.8,4.18,1.92.34.09,1.31.05,1.89.02,1.5-.07,2.92-.14,3.75.68,3.71,3.71,11.58,7.83,15.64,6,.37-.83.2-3.99.13-5.21-.04-.7-.07-1.31-.07-1.73,0-1-.58-1.9-.86-2.18-2.79-2.79-.24-25.02,1.23-26.49.13-.3,0-1.76-.07-2.64-.17-1.93-.33-3.75.69-4.77,1.22-1.22,2.59-1.81,4.06-1.72,3.38.18,6.33,3.84,8.7,6.77.61.75,1.19,1.47,1.69,2.02.03,0,.06-.01.08-.02.57-.12,1.45-.29,2.09.35.72.72,1.49,1.32,2.23,1.91.62.49,1.21.96,1.78,1.48.26,0,.63-.03.8-.05.21-.02.38-.03.46-.03.25,0,.55-.06.89-.47,1.75-2.14,1.27-9.29,1-11.19-.77-.74-1.77-1.6-2.75-2.45-1.13-.98-2.3-1.98-3.14-2.83-.61-.61-.65-1.45-.68-2.08,0-.15-.02-.37-.04-.5-2.42-2.45-4.27-5.31-6.07-8.07-1.62-2.5-3.15-4.85-4.92-6.63-.15-.07-.97-.13-1.45-.17-1.23-.1-2.62-.21-3.48-1.06-1.76-1.76-4.25-3.79-6.87-5.94-4.72-3.85-9.17-7.49-10.64-10.43-.59-1.19-.81-5.51-.76-15.39-.51-.18-1.08-.36-1.67-.55-3.12-1-6.66-2.13-7.75-4.71-.51-1.2-.4-2.53.3-3.95.48-.96,1.41-1.78,2.31-2.58.57-.5,1.75-1.55,1.76-1.94,0,0-.03-.06-.13-.16-2.67-2.67-6.15-4.49-7.29-5.08-.49-.26-1.32-.69-1.08-1.68.05-.2.14-.38.27-.52-.03-.11-.06-.23-.08-.32-.11-.43-.22-.88-.22-1.32v-9.25c0-3.35,3.58-5.08,6.46-6.48,1.27-.61,2.58-1.25,3.17-1.83.09-.09.22-.48.31-.73.18-.54.4-1.21.93-1.74.24-.48.29-3.17.33-5.13.07-3.6.15-7.69,1.28-9.96.59-1.18,1.68-2.06,2.56-2.77.3-.24.57-.45.77-.65.02-.1.03-.75.03-1.15.01-.77.02-1.57.35-2.22.95-1.91,1.88-3.61,2.78-5.25.9-1.64,1.82-3.34,2.77-5.24,1.72-3.45,3.32-6.82,4.87-10.08,1.33-2.81,2.59-5.47,3.77-7.82,1.27-2.53,1.94-15.95.62-18.59-.15-.16-1-.59-1.36-.77-.74-.37-1.67-.84-1.42-1.9.02-.09.11-.39.36-.64-.31-1.08-1.32-3.25-1.8-4.26-.72-1.54-.86-1.85-.86-2.26,0-2.33-1.51-4.64-3.11-7.08-1.14-1.74-2.31-3.53-2.99-5.45-.14-.39-.08-.83.16-1.17.24-.34.63-.54,1.05-.54,1.55,0,3.88,1.14,6.82,2.59,3.47,1.71,7.79,3.84,10.33,3.58.38-.04.76.1,1.03.37.79.79,2.15,1.85,3.59,2.44.86.35,2.01.64,2.62.03l1.08-1.08c2.57-2.55,10.38-10.31,10.95-11.99.35-1.06,3.74-7.63,4.63-8.52.27-.27.58-.56.9-.87,1.16-1.09,2.47-2.33,3.17-3.73.4-.79.63-1.85.85-2.88.25-1.13.5-2.3,1-3.29.51-1.03,1.08-1.98,1.62-2.91,1.12-1.9,2.27-3.86,3.25-6.79.08-.25.21-1.1.32-1.78.39-2.51.62-3.67,1.22-4.27.75-.75,2.01-2.85,3.22-4.87,2.66-4.43,4.54-7.41,6.37-8.32.65-.32,1.5-.66,2.29-.35.74.29.98.92,1.1,1.23,0,.01,0,.02.01.03.15.09.45.19.66.26.54.18,1.21.4,1.74.93,1.1,1.1.74,2.93.35,4.86-.17.84-.45,2.25-.29,2.62.35.33.82.66,1.31,1.01.56.4,1.14.81,1.71,1.38.76.76,1.19,1.13,1.43,1.31.11-.13.25-.3.37-.44.33-.41.74-.91,1.31-1.48.38-.38.38-1.96.37-2.91,0-1.54-.01-3,.86-3.88.64-.64,1.12-2.76,1.51-4.47.36-1.6.74-3.26,1.34-4.45.98-1.95,4.46-5.37,7.93-8.7.64-.62,1.19-1.14,1.56-1.51.98-.98,1.6-1.58,2.03-2q.89-.87,1.71-1.98c.26-.36.6-.82,1.07-1.44.43-.57,1.23-.68,1.8-.26.1.07.16.17.23.26.44-.06.88-.15,1.32-.26.9-1.6,3.47-4.42,4.12-5.07.85-.85,1.87-1.43,2.62-2.18.15-.15,1.96-5.89,2.62-6.54,6.56-6.56,6.65-7.11,9.16-17.45,0-2.79-1.45-18.89-2.62-20.07-.15-.15,0-12.59,0-13.96,0-2.61-1.15-8.61,0-10.91.62-1.24.58-4.07,1.31-4.8,1.34-1.34,3.04-6.09,3.93-7.85,1.43-2.87-.95-7.69.44-10.47,2.81-5.62,3.2-11.2,6.11-17.01,1.55-3.11,4.69-9.05,6.54-10.91,1.32-1.32,3.93-12.22,4.36-12.65,1.72-1.72,1.16-4.93,2.18-6.98,1.76-3.51,3.63-5.95,5.67-10.03,1.22-2.45,1.42-5.89,2.62-8.29,1.3-2.6,3.63-4.64,4.8-6.98.75-1.51,1.44-3.48,2.18-5.23,0-3.66,3.6-5.45,5.23-8.72.88-1.75.92-4.03,1.74-5.67,1.59-3.18,6.44-5.47,7.85-8.29,1.19-2.38,2.08-4.59,3.05-6.54,1.07-2.15,0-7.69,0-10.03,0-2.48.94-9.1-.87-10.91-1.94-1.94-5.34-.49-7.85-1.74-2.23-1.12-3.93-3.28-6.11-4.36-3-1.5-7.2-2.83-9.6-5.23-1.31-1.31-6.11.87-7.42-.44-.37-.37,2.23-13.71,2.62-15.27.48-1.92-.04-7.22.44-10.47,0-2.81-4.42-15.65-2.62-17.45,1.06-1.06,3.45-2.14,4.8-3.49.65-.65,1.16-2.03,1.74-2.62.68-.68-2.13-6.59.87-9.6.7-.7,12.47-1.13,13.52-2.18.97-.97.12-4.18.87-5.67,1.45-2.89,3.41-3.78,4.8-6.54.88-1.76,0-6.28,0-8.29,0-1.86-1.1-9.81,0-10.91l7.42-7.42c1.05-1.05.6-2.85,1.31-4.36,1.33-.67,15.7-5.45,15.7-6.54s.41.03.87-.44c.22-.22.15-1.46.44-1.74,1.16-1.16,2.97-2.09,3.93-3.05,1.91-1.91,2.85-5.03,4.8-6.98.41-.41,0-3.8,0-4.36Z"/>
    <path id="mandaluyong" class="cls-1" d="M394.07,754.25c.17.02.43.03.63.03.91.03,1.94.07,2.62.75,1.21,1.21,2.69,2.05,4.13,2.86,1.29.73,2.51,1.42,3.55,2.36.04,0,.07-.02.11-.02.57-.12,1.44-.29,2.09.35l6.17,6.17c.37.31,2.31.92,3.72,1.36,3.01.94,6.42,2,8,3.58,1,1,2.28,2.85,3.76,5,1.87,2.71,4.43,6.42,5.77,7.09,3.02,1.51,10.97,6.56,13.91,9.49.69.69,1.58,1.66,2.5,2.66,1.21,1.32,3,3.27,3.67,3.76,1.15.06,2.25.44,3.23.78,1.1.39,2.14.75,2.87.51,2.06-.69,3.26-1.61,4.43-2.77.65-.65,2.3-1.14,6.52-2.26,2.19-.59,4.68-1.25,5.54-1.68,1.16-.58,31.27-1.12,35.77-.71,1-2.24,2.18-4.64,3.99-6.46,1.58-1.58,3.22-2.73,4.8-3.85,1.56-1.1,3.03-2.14,4.45-3.55.86-.86,2.21-4.46,3.11-6.85.61-1.63,1.14-3.03,1.59-3.92.18-.36.02-1.25-.11-1.97-.21-1.15-.45-2.46.11-3.58.36-.72.64-1.78.93-2.89.53-2.03,1.08-4.14,2.4-5.46.47-.47,1.09-.88,1.69-1.28.69-.46,1.54-1.02,1.77-1.47.44-.88.88-1.91,1.35-2.99,1.17-2.72,2.5-5.8,4.32-7.7.61-2.06-.54-15.33-1.03-21.05-.13-1.49-.23-2.68-.31-3.62-1.4.55-4.25,1.53-5.05.75-2.9-2.9,4.87-28.31,4.99-28.54,1.17-2.35,1.17-7.26,1.17-9.89,0-.16.02-.48.06-.88.03-.37.09-1.08.1-1.59-.51.14-1.07.37-1.45.76-2.4,2.41-13.3.88-15.44-.2-1.8-.9-10.46-.06-11.69.7-.39.4-1.05,1.16-1.75,1.95-.85.97-1.74,1.98-2.53,2.77-.57.57-1.44.61-2.36.66-.24.01-.6.03-.71.06-.84.43-1.47,1.1-2.14,1.8-.71.75-1.44,1.52-2.55,2.08-.35.17-.77.23-1.42.31-.18.02-.44.05-.62.08-1.75,1.78-3.27,3.77-4.88,5.86-1.95,2.54-3.97,5.17-6.7,7.9-.63.63-1.6.64-2.54.65-.3,0-.77,0-.91.05-1.19.6-2.17,1.04-3.17,1.48-.99.44-1.99.88-3.31,1.55-.83.42-1.75.38-2.57.35-.52-.02-1.1-.04-1.36.09-.93.46-1.87,1.02-2.86,1.62-1.78,1.06-3.62,2.16-5.59,2.81-.64.21-1.28.11-1.85.03-.23-.03-.57-.09-.68-.07-.32.17-.75.41-1.19.66-2.67,1.48-6.33,3.51-10.35,1.5-2.7-1.35-4.44-3-6.13-4.6-1.73-1.65-3.37-3.2-6.08-4.56-.83-.41-1.32-1.08-1.71-1.61-.15-.2-.37-.51-.48-.57-1.39-.7-2.26-1.64-3.11-2.54-.23-.25-.47-.5-.71-.75-.8-.55-5.76-1.42-8.89-1.71.8,2.15,1.7,5.49.24,6.95-.73.73-1.41,1.7-2.13,2.73-.81,1.16-1.65,2.36-2.67,3.38-1.23,1.23-2.88,2.57-4.62,3.99-1.77,1.44-3.61,2.94-4.97,4.3-.13.14-.34.69-.46,1.02-.23.61-.45,1.19-.85,1.6-.34.34-.76.47-1.27.42-2.64,2.89-3.15,6.26-3.15,11.32,0,.73-.43,1.09-1.58,2.06-.76.63-2.16,1.81-2.48,2.44l-.25.5c-.99,2.01-2.04,4.06-3.05,5.07s-1.96,1.75-2.81,2.41c-2.42,1.89-3.82,2.99-3.47,7.71.19.25.38.5.57.75.46.62.89,1.21,1.38,1.72Z"/>
  </g>
</svg>