<?xml version="1.0" encoding="UTF-8" standalone="no"?>
<!-- Created with Inkscape (http://www.inkscape.org/) -->

<svg
   xmlns:dc="http://purl.org/dc/elements/1.1/"
   xmlns:cc="http://creativecommons.org/ns#"
   xmlns:rdf="http://www.w3.org/1999/02/22-rdf-syntax-ns#"
   xmlns:svg="http://www.w3.org/2000/svg"
   xmlns="http://www.w3.org/2000/svg"
   xmlns:sodipodi="http://sodipodi.sourceforge.net/DTD/sodipodi-0.dtd"
   xmlns:inkscape="http://www.inkscape.org/namespaces/inkscape"
   width="638.13611"
   height="1245.7611"
   id="svg2"
   version="1.1"
   inkscape:version="0.48.5 r10040"
   sodipodi:docname="New document 1">
  <defs
     id="defs4" />
  <sodipodi:namedview
     id="base"
     pagecolor="#ffffff"
     bordercolor="#666666"
     borderopacity="1.0"
     inkscape:pageopacity="0.0"
     inkscape:pageshadow="2"
     inkscape:zoom="0.52089844"
     inkscape:cx="245.62413"
     inkscape:cy="-135.05096"
     inkscape:document-units="px"
     inkscape:current-layer="layer1"
     showgrid="false"
     fit-margin-top="0"
     fit-margin-left="0"
     fit-margin-right="0"
     fit-margin-bottom="0"
     inkscape:window-width="1024"
     inkscape:window-height="578"
     inkscape:window-x="-8"
     inkscape:window-y="-8"
     inkscape:window-maximized="1" />
  <metadata
     id="metadata7">
    <rdf:RDF>
      <cc:Work
         rdf:about="">
        <dc:format>image/svg+xml</dc:format>
        <dc:type
           rdf:resource="http://purl.org/dc/dcmitype/StillImage" />
        <dc:title></dc:title>
      </cc:Work>
    </rdf:RDF>
  </metadata>
  <g
     inkscape:label="Layer 1"
     inkscape:groupmode="layer"
     id="layer1"
     transform="translate(-93.165798,3.8705177)">
    <path
       style="fill:#a9a9a9;stroke:#000000;stroke-width:1px;stroke-linecap:butt;stroke-linejoin:miter;stroke-opacity:1"
       d="m 502.60524,1153.8335 c -2.82395,1.7844 -4.77101,5.1302 -6.10864,7.8054 -0.50345,1.007 -0.72833,2.7646 -1.35747,3.3937 -1.74086,1.7409 -3.86671,-1.0901 -5.09053,1.3575 -0.81449,1.629 0.81448,4.4797 0,6.1086 -1.57074,3.1415 -1.31172,8.4843 -5.4299,8.4843 -1.00101,0 -10.75958,4.9516 -11.53854,3.3937 -0.77529,-1.5506 -3.2448,-6.9779 -4.07243,-7.8055 -0.16969,-0.1697 -0.84842,0.1697 -1.01811,0 -0.44424,-0.4443 -0.22518,-1.3004 -1.0181,-1.6969 -0.28256,-0.1412 -1.14221,0.2153 -1.35748,0 -0.11265,-0.1126 -1.89493,-0.82 -2.37558,-0.3393 -0.72113,0.7211 -1.40919,2.0879 -2.03621,2.7149 -2.11502,2.115 -5.7511,3.8937 -8.14486,5.0905 -1.06163,0.5309 -1.59843,3.0216 -2.71495,3.3937 -3.52452,1.1749 -6.27678,2.3756 -9.84169,2.3756 -0.16035,0 -0.99818,0.2995 -1.01811,0.3394 -0.42669,0.8534 -0.57292,2.1639 -1.01811,3.0543 -0.14807,0.2961 -4.12469,2.0885 -4.75116,2.715 -1.95466,1.9546 -0.71241,6.1423 -2.71495,8.1448 -1.80565,1.8057 -4.02302,2.6903 -6.10864,3.7331 -0.6912,0.3456 -0.31881,0.9975 -0.67874,1.3574 -2.26421,2.2643 -9.67559,6.5347 -12.89601,8.1449 -0.72064,0.3603 -0.48679,1.2615 -1.35748,1.6968 -1.04409,0.5221 -5.24327,2.5284 -5.76927,3.0544 -1.37616,1.3761 -3.09804,4.2639 -5.4299,5.4299 -2.27691,1.1384 -3.9866,1.9503 -5.4299,3.3936 -1.10206,1.1021 -5.91417,2.1812 -7.46612,3.7331 -3.45281,2.1324 -6.73547,2.3496 -10.18106,4.0724 -0.88249,0.4413 -1.28886,1.4929 -2.37558,2.0362 -2.17581,1.0879 -6.34493,1.5938 -7.12675,2.3756 -0.0479,-1.1671 -0.65142,-2.8242 -0.33937,-4.0724 0.57331,-2.2932 1.82873,-7.3905 2.71495,-9.163 0.5355,-1.071 -0.38029,-2.9315 0,-4.0724 0.48496,-1.4549 1.50527,-2.4796 2.03622,-4.0724 0.64116,-1.9235 -0.49166,-4.4814 0,-6.448 1.42754,-5.7102 0.67873,-12.5476 0.67873,-18.6653 0,-2.1722 0.71521,-14.29 1.35748,-14.9322 2.11734,-2.1174 2.62036,-10.0865 3.39369,-10.8598 1.38364,-1.3837 5.09053,-4.9357 5.09053,-7.8055 0,-1.3603 1.43032,-13.5019 0.67874,-14.2535 -0.0213,-0.021 -8.56235,-1.5662 -9.50233,-2.0362 -3.34175,-1.6709 -7.80548,-16.14 -7.80548,-20.0228 2.42955,-1.0913 1.82305,-1.9493 2.71495,-3.733 3.54059,-7.0812 -3.10231,-4.4598 -5.09053,-6.4481 -0.38682,-0.3868 -0.77554,-1.4542 -1.01811,-1.6968 -1.42337,-1.4234 -6.25761,-2.5245 -7.80548,-4.0724 -0.4719,-0.4719 -2.11072,0.2648 -2.71495,-0.3394 -0.134,-0.134 -0.16851,-2.8858 0,-3.0543 0.16968,-0.1697 0.84842,0.1697 1.0181,0 0.63785,-0.6379 0.84115,-2.361 1.35748,-3.3937 1.34005,-2.6801 -0.53235,-6.3016 -2.03622,-7.8055 -0.85826,-0.8583 -0.72374,-4.5018 -1.35747,-5.7693 -1.55225,-3.1045 -3.81818,-5.1756 -6.10864,-7.4661 -1.29725,-1.2972 -1.49292,-3.8685 -2.71495,-5.0905 -1.06024,-1.0602 -4.25912,0.5684 -5.09053,-0.6787 -1.87804,-2.8171 -2.33371,-5.6856 -3.73306,-8.4843 -0.50493,-1.0098 0.30667,-6.4807 -0.67874,-7.4661 -2.0457,-2.0457 -3.09637,-6.1507 -5.4299,-8.4842 -0.96973,-0.9697 -2.23572,-3.1541 -3.39369,-3.733 -1.00192,-0.501 -1.94793,-0.9299 -2.71495,-1.6969 -1.51358,-1.5136 1.38831,-3.4245 1.69685,-3.7331 1.00722,-1.0072 -1.01811,-7.5754 -1.01811,-8.4842 0,-0.6787 0.18646,-1.3836 0,-2.0362 -0.11205,-0.3922 -0.8357,-0.3139 -1.01811,-0.6787 -0.45995,-0.9199 -0.84866,-2.2062 -1.35747,-2.715 -1.38992,-1.3899 -5.78251,-1.0313 -8.14485,-3.3937 -1.27955,-1.2795 1.08038,-6.0463 -0.33937,-7.4661 -2.77636,-2.7763 -3.54313,-4.8601 -4.75117,-8.4842 -0.26602,-0.7981 -0.29169,-5.0429 -0.67873,-5.4299 -0.66739,-0.6674 -1.60249,-2.0925 -2.03622,-3.39369 -0.89044,-2.67132 -0.66778,-6.08673 -1.69684,-8.14485 -0.4065,-0.81299 -3.80914,-1.42769 -4.75117,-1.69684 -7.93566,-2.26734 -10.67855,-4.76715 -17.30781,-9.50233 -7.24843,-5.17745 -12.16992,-22.5483 -14.25349,-30.88256 -0.79575,-3.18301 1.16637,-11.92076 0,-14.2535 -0.62433,-1.24867 0.1046,-2.74051 -0.33937,-4.07242 -0.74193,-2.2258 -2.03621,-4.69318 -2.03621,-7.12675 -0.89964,-1.899 -0.58368,-3.88231 -1.35747,-5.4299 -2.00407,-4.00812 -3.28712,-7.48577 -4.4118,-10.8598 -0.28208,-0.84626 -0.17438,-3.2287 -0.67874,-3.73306 -0.22618,-0.22618 -1.57139,-3.85851 -0.67873,-4.75116 0.2828,-0.28281 1.41403,0.28281 1.69684,0 1.51245,-1.51245 2.95911,-3.29848 4.07243,-4.4118 0.58559,-0.58559 1.88968,-0.53221 2.37558,-1.0181 0.0898,-0.0898 0,-0.87837 0,-1.01811 0,-5.06409 -2.71659,-0.68038 -4.4118,-2.37558 -1.00805,-1.00805 0.63995,-5.05174 1.01811,-5.4299 2.00948,-2.00948 7.74666,-0.90046 8.82359,-3.05432 2.45485,-4.90971 -6.13248,-7.07907 -3.73306,-11.87791 3.44638,-0.72894 4.28592,-2.40479 6.78738,-4.07243 1.33591,-0.89061 3.10464,-1.16477 4.41179,-2.03621 1.87814,-1.25209 3.29008,-3.62944 4.75117,-5.09053 0.48908,-0.48908 1.34994,-0.3243 1.69684,-1.01811 1.23359,-2.46718 4.78832,-5.80643 6.10864,-7.12674 0.94219,-0.94219 1.86504,-5.59811 2.37558,-6.10864 1.33876,-1.33876 2.42989,-3.5023 3.39369,-5.42991 1.01009,-2.02018 1.15104,-9.97462 2.03621,-10.8598 2.06582,-2.06581 5.7799,-1.02873 6.10864,-1.35747 1.78305,-1.78305 5.30354,-1.57048 7.12675,-3.39369 0.51579,-0.5158 -0.0272,-2.3484 0.67874,-3.05432 0.7172,-0.71721 1.81735,-1.93787 2.37558,-3.05432 0.88252,-1.76504 5.57575,-19.53754 4.75116,-20.36213 -1.31714,-1.31714 -10.34037,-1.85616 -13.23538,-4.75116 -0.58968,-0.58968 -3.58562,0.16523 -4.4118,0 -1.07696,-0.2154 -2.74072,-0.86131 -3.73306,-1.35748 -1.62752,-0.81376 -3.11556,-2.06684 -4.41179,-2.71495 -1.07333,-0.53667 -2.05549,-0.17932 -3.05432,-0.67874 -2.23461,-1.1173 -4.47104,-1.94284 -6.78738,-2.71495 -0.80322,-0.26774 -1.21068,-1.45376 -1.69684,-1.69684 -1.45765,-0.72883 -3.40474,-1.69685 -4.75116,-1.69685 4.62619,-9.82991 8.55037,-17.44012 12.89601,-26.1314 0.99143,-1.98285 0.83805,-4.05168 1.69685,-5.76927 0.85267,-1.70535 0.15163,-14.48455 0.67873,-17.64718 0.34915,-2.09486 -0.28366,-8.99071 0.33937,-10.8598 0.87235,-2.61704 1.11939,-7.84102 0.33937,-10.18106 -1.25607,-3.76822 0.61902,-8.72309 -0.33937,-12.55665 -1.35588,-5.42352 -0.67874,-13.85537 -0.67874,-18.32592 3.49183,-0.33228 8.27865,-2.10799 6.10864,-6.44801 -0.58752,-1.17505 -2.1593,-1.94302 -2.71495,-3.05432 -0.90498,-1.80996 0.90499,-4.97741 0,-6.78737 -1.45234,-2.90468 -1.68164,-6.40242 -2.71495,-9.50233 -0.3545,-1.06351 0.1609,-2.73253 -0.33937,-3.73306 -0.51476,-1.02952 -2.40143,-5.37819 -1.69684,-6.78737 2.05069,-4.10139 15.89596,-6.73301 19.00465,-9.8417 1.01153,-1.01152 1.36634,-3.3671 0.67874,-5.4299 -0.83163,-2.4949 -2.40361,-5.981 -4.07242,-8.48422 -0.69734,-1.046 -0.95863,-5.70979 -1.35748,-6.10864 -1.26631,-1.26632 -2.52805,-4.03799 -3.39369,-5.76927 -1.34508,-2.69017 -2.27254,-8.72055 -4.75116,-11.19917 -0.23952,-3.51035 -6.80684,-4.09189 -7.12675,-4.4118 -1.41133,-1.41133 -3.68535,-2.66724 -5.09053,-4.07242 -0.55783,-0.55783 -0.2575,-2.29371 -1.01811,-3.05432 -0.43501,-0.43502 -2.14265,0.28615 -2.71495,0 -2.12505,-1.06253 -3.84067,-2.82256 -5.09053,-4.07243 -1.32821,-1.32821 -0.59616,-4.32922 -1.69684,-5.4299 -0.18608,-0.18608 -2.90657,-0.14776 -3.05432,0 -0.28391,0.2839 -0.35792,1.37602 -0.67874,1.69684 -1.18716,1.18716 -2.81474,1.79663 -3.73306,2.71495 -0.34201,0.34201 -0.78978,2.15038 -1.69684,1.69685 -1.54217,-0.77109 -3.4201,-5.32558 -4.75117,-5.76927 -1.42032,-0.47344 -2.25165,-1.12583 -3.39368,-1.69685 -1.43095,-0.71547 -2.81671,-4.27592 -3.39369,-5.4299 -0.50639,-1.01278 -1.99315,-1.65378 -2.71495,-2.37558 -1.48675,-1.48675 -6.03513,-6.64034 -6.44801,-7.46611 -1.29523,-2.59046 1.38341,-3.75899 2.71495,-5.09054 1.45153,-1.45153 2.44707,-3.46518 3.39369,-4.41179 0.90886,-0.90886 2.62772,-0.50428 3.39369,-2.03621 0.50449,-1.009 -0.2684,-2.98335 -0.67874,-3.39369 -0.13775,-0.13775 -6.14738,-0.71748 -7.80548,-2.37558 -1.50118,-1.50118 -0.37064,-4.8137 -1.35748,-6.78738 -0.56862,-1.13724 -1.74972,-2.08909 -2.37558,-2.71495 -1.35437,-1.35437 -6.48132,1.69684 -8.14485,1.69684 -2.0515,0 -4.02839,1.11655 -5.76927,1.69685 -3.63119,1.21039 -8.26004,-0.52722 -11.87791,0.67873 -1.32744,0.44248 -5.81686,0.70254 -6.44801,1.01811 -3.61847,1.80923 -8.26839,1.35748 -12.55665,1.35748 -1.37183,-2.34481 -2.26546,-4.87029 -3.39369,-7.12675 -0.73552,-1.47105 0,-5.10747 0,-6.78738 0,-0.28694 -0.17658,-1.18089 0,-1.35747 0.12936,-0.12936 6.52032,-0.81596 7.12675,-1.01811 2.20299,-0.73433 9.3282,-1.86209 10.18106,-2.71495 0.40404,-0.40404 2.78773,0.101 3.39369,0 0.91649,-0.15275 7.76969,-0.64294 8.14485,-1.0181 0.28375,-0.28375 1.22012,-1.11911 1.69685,-1.35748 1.55763,-0.77882 4.31832,-0.46232 6.10864,-1.35748 1.31994,-0.65997 4.32396,0.76658 5.4299,-0.33936 0.44826,-0.44826 -0.67874,-12.15752 -0.67874,-13.57476 0,-9.38354 0.12023,-18.18436 -2.03621,-26.81014 -0.60277,-2.41109 -0.083,-5.84469 -0.67874,-8.82359 -0.50333,-2.51665 1.0086,-9.52133 0,-11.53854 -0.84307,-1.68614 -1.01811,-5.13731 -1.01811,-7.12674 0,-2.48994 0.78318,-6.47405 0,-8.82359 -0.16775,-0.50327 -2.72006,-0.34449 -3.05432,-0.67874 l -8.14485,-1.01811 c -1.8647,-0.23309 -7.4432,0.33937 -9.50232,0.33937 -5.50782,0 -8.36603,1.07721 -13.23539,-1.35747 -0.59832,-0.29916 -0.9491,0.069 -1.35747,-0.33937 -0.90165,-0.90165 -1.52029,-3.04057 -2.37559,-4.75116 -0.96782,-1.93565 -2.71495,-3.93394 -2.71495,-6.10864 -0.22624,-0.56562 -0.55926,-1.09949 -0.67873,-1.69685 -0.26867,-1.34332 5.61174,-1.35747 7.12674,-1.35747 1.70166,0 16.75991,-0.20854 16.96844,0 0.92123,0.92122 8.38352,1.0181 10.52044,1.0181 0.87354,0 4.56957,0.52096 5.09053,0 0.82702,-0.82701 -3.31634,-4.33444 -4.07243,-5.09053 -1.0234,-1.0234 -1.09081,-1.84225 -1.69684,-3.05432 -0.84037,-1.68074 -3.43359,-2.83465 -4.07243,-4.75116 -0.57943,-1.73831 -0.43867,-2.67349 -1.0181,-4.4118 -0.70213,-2.10638 -5.13076,-5.51035 -6.10864,-7.46611 -0.78875,-1.57749 -2.49514,-3.51324 -4.07243,-5.09053 -0.44336,-0.44336 -1.12194,-5.63758 -1.69684,-6.78738 -1.40027,-2.80054 3.20541,-2.86605 4.07242,-3.73306 1.82841,-1.82841 -2.93818,-7.34998 -4.07242,-8.48422 -0.83905,-0.83904 -0.30436,-3.35867 -1.01811,-4.07242 -2.32653,-2.32654 -4.8919,-6.92812 -7.12674,-9.16296 -0.15998,-0.15998 -0.55324,0.18825 -0.67874,0 -0.18825,-0.28237 0.15177,-0.71457 0,-1.01811 -0.30677,-0.61354 -1.06015,-0.42346 -1.35748,-1.01811 -1.52653,-3.05306 -4.22784,-8.979 -6.44801,-11.19917 -6.18945,-6.18945 -11.69819,-14.23342 -14.93222,-20.7015 -0.46934,-0.93867 -1.98492,-1.98491 -2.71496,-2.71495 -1.30744,-1.30744 -8.27377,-13.62215 -8.82358,-15.27159 -1.66551,-1.75802 -5.47599,-7.82853 -6.78738,-8.48423 -0.74608,-0.37303 -3.60576,-0.76351 -4.07243,-1.69684 -0.64678,-1.29357 -0.76064,-2.79686 -1.69684,-3.73306 -0.11398,-0.11398 -0.56476,0.11398 -0.67874,0 -0.70353,-0.70353 -0.87607,-3.93039 -1.69684,-4.75116 -0.97273,-0.97273 -3.27772,-1.58087 -4.4118,-2.71495 -1.22281,-1.22281 -1.10195,-2.7988 -2.03621,-3.73306 -1.43609,-1.43609 2.50693,-1.48883 2.71495,-1.69684 0.8419,-0.84191 -0.35941,-4.45188 -0.67874,-5.09053 -0.77583,-1.55166 -9.68718,-7.38886 -11.19917,-8.14486 -0.45285,-0.22642 -0.80079,-1.14015 -1.35748,-1.69684 -0.86696,-0.86696 -2.56611,-1.88738 -3.39368,-2.71495 -2.01585,-2.01585 -2.99075,-4.34822 -4.75117,-6.10864 -1.30074,-1.30074 -3.61965,-2.4131 -5.09053,-3.39369 -2.14511,-1.43007 -2.9794,-3.31877 -4.75116,-5.09053 -0.89642,-0.89642 -3.6699,-1.63369 -4.75117,-2.71495 -1.15325,-1.15325 -1.57395,-2.93143 -2.71495,-4.07243 -0.45502,-0.45502 -2.05809,-2.496 -2.71495,-2.71495 -0.83827,-0.27942 -2.003064,-0.64559 -2.714949,-1.35747 -1.846978,-1.84698 -3.940493,-5.19425 -5.090533,-5.76927 3.866662,-2.01853 7.344372,-3.61132 10.181062,-6.44801 0.18245,-0.18245 1.51792,-0.27973 1.69685,-0.33937 2.09191,-0.69731 3.68127,-3.00254 4.75116,-4.07243 0.58559,-0.58559 0.53221,-1.88969 1.01811,-2.37558 2.16421,-2.16421 3.10241,-4.45988 5.09053,-6.44801 1.37956,-1.37955 -0.69074,-11.18716 0,-11.87791 1.54312,-1.54311 4.33416,-1.61921 5.76927,-3.05432 0.20494,-0.20494 1.71438,0 2.03621,0 8.11808,0 9.32167,9.07263 14.93223,11.87791 5.41435,2.70718 11.58494,10.22746 16.28971,14.93223 0.48602,0.48602 2.11256,1.09446 2.71495,1.69685 1.06312,1.06312 1.83695,2.51569 3.05432,3.73305 0.57288,0.57288 2.06289,0.70542 2.71495,1.35748 1.7148,1.7148 3.80956,2.79145 5.4299,4.41179 2.25939,2.25939 3.18373,4.54121 5.4299,6.78738 1.28671,1.28671 2.64292,1.96418 3.73306,3.05432 0.58483,0.58484 0.74603,1.76414 1.35747,2.37558 1.52651,1.52651 4.3645,3.00702 6.10864,4.75117 1.02273,1.02272 2.1565,3.1746 3.39369,4.41179 1.97888,1.97888 3.58722,2.56912 5.4299,4.4118 1.45959,1.45959 3.17474,3.85348 4.4118,5.09053 0.35838,0.35838 2.59106,0.95616 3.39368,1.35747 3.7106,-2.94733 4.11273,-6.82767 7.12675,-9.84169 0.16968,-0.16969 -0.16968,-0.84843 0,-1.01811 1.42648,-1.42648 6.61854,-7.46442 5.4299,-9.8417 -0.82676,-1.65352 -2.35769,-3.35789 -3.05432,-4.75116 -0.61064,-1.22129 -2.20385,-0.84228 -2.71495,-2.37558 -0.4892,-1.46761 -1.55382,-2.36346 -2.37558,-3.73306 -1.09615,-1.82692 -1.5862,-4.07614 -2.71495,-5.76927 -0.20848,-0.31271 -1.16076,-0.48202 -1.35748,-0.67874 -0.33861,-0.33861 -0.63065,-1.7944 -1.0181,-2.37558 -1.0053,-1.50794 -2.95929,-2.74208 -4.07243,-4.41179 -2.37871,-3.56806 -5.25753,-7.68878 -8.14485,-11.53854 -1.88544,-2.51392 -4.73145,-4.21254 -6.44801,-6.78738 -0.5381,-0.80716 -0.63326,-1.94527 -1.01811,-2.71495 -2.24872,-4.49745 -6.56394,-8.60015 -9.84169,-11.87791 -0.68014,-0.68014 0.23951,-4.47185 0,-5.4299 -0.81332,-3.25326 -2.97416,-5.39917 -4.07243,-8.14485 -2.45077,-6.12694 -9.34198,-9.78956 -11.19917,-16.28971 1.20529,-9.85714 -10.25377,-10.56898 -7.46611,-21.7196 0.15084,-0.6034 -0.10071,-3.63236 0.33936,-4.07243 0.22625,-0.22624 1.13123,0.22625 1.35748,0 0.29769,-0.29768 0.72042,-1.39916 1.01811,-1.69684 2.11369,-2.11369 12.08279,4.00518 14.25349,5.09053 1.09416,0.54708 3.86615,0 5.09053,0 5.57694,0 4.01497,-1.24255 5.76927,-4.75116 0.50913,-1.01826 1.41209,-1.12734 2.03621,-2.37559 0.1795,-0.35898 0.23307,-1.13463 0.67874,-1.35747 0.38426,-0.19213 10.72829,-0.47088 10.8598,-0.33937 0.81772,0.81772 2.07402,1.39528 2.71495,2.03621 0.87904,0.87904 0.62785,2.3247 1.35748,3.05432 2.31299,2.31299 4.5808,3.90206 6.44801,5.76927 0.0445,0.0445 9.93065,0.58978 10.18106,0.33937 0.59581,-0.5958 2.43123,-2.17807 4.07243,-1.35747 0.49698,0.24849 3.45554,4.81302 4.07242,5.4299 0.45326,0.45325 1.05262,7.16126 1.35748,7.46611 1.27303,1.27303 3.96776,0.57408 5.09053,1.69685 0.84049,0.84048 1.57571,4.84825 2.37558,6.448 1.58039,3.16078 3.47838,4.24181 4.75117,6.78738 0.9684,1.9368 0.42323,5.85313 1.69684,7.12675 0.63097,0.63096 1.88588,0.18903 2.71495,1.0181 1.12269,1.12268 1.8517,2.8698 3.39369,4.4118 0.17286,0.17286 1.82456,0 2.03621,0 4.29636,0 7.86361,-0.73686 10.85981,-3.73306 0.63368,-0.63368 0.57513,-1.25387 1.0181,-1.69684 0.38768,-0.38768 1.71206,-0.35459 2.03622,-0.67874 0.56981,-0.56982 1.45084,-1.79021 2.03621,-2.37558 0.88566,-0.88566 2.6398,-0.60359 3.39369,-1.35748 0.13223,-0.13223 1.15038,0 1.35747,0 0.98456,0 2.54374,-0.17121 3.05432,0.33937 1.08814,1.08814 2.41077,4.73357 5.09054,3.39369 0.97371,-0.48686 1.48957,-1.59321 2.37558,-2.03621 0.4085,-0.20426 2.1316,-0.43477 2.37558,-0.67874 2.04399,-2.04399 2.98909,-3.70044 5.76927,-5.09053 1.08141,-0.54071 2.9154,0.38567 4.07242,0 2.08532,-0.69511 7.12943,-2.20456 9.50233,-1.01811 2.04683,1.02341 6.87547,1.60875 8.82359,-0.33937 2.094,-2.094 1.64322,-3.2152 0.67874,-6.10864 -0.17549,-0.52648 -1.15485,-0.85092 -1.35748,-1.35747 -1.05454,-2.63637 -1.7774,-5.9304 -3.05432,-8.48423 -1.06286,-2.12572 0.33937,-7.06504 0.33937,-9.16295 0,-5.85007 0.0612,-11.38263 1.69685,-16.28971 0.23756,-0.71267 -0.23756,-1.66291 0,-2.37558 0.44526,-1.3358 1.06898,-3.15607 1.69684,-4.41179 0.59218,-1.18437 1.47089,-2.60241 2.03622,-3.73306 0.54251,-1.08503 2.54384,-2.03338 3.05431,-3.05432 1.01358,-2.02716 2.18147,-4.89641 3.73306,-6.44801 3.6208,-1.61727 5.82349,1.55427 8.82359,3.05432 2.84723,1.42362 9.26198,-4.9492 9.8417,-6.10864 1.03851,-2.077015 -1.16223,-4.165432 -1.69685,-5.769269 -0.47238,-1.417151 -0.29968,-6.827063 0.33937,-7.466114 0.51093,-0.510925 -0.15514,-1.357476 0,-1.357476 1.38729,0 1.89426,-1.554893 2.37558,-2.036213 1.63199,-1.631983 6.19579,-3.097891 8.82359,-4.411795 0.93847,-0.469234 1.04603,-1.20175 2.03622,-1.696844 1.45674,-0.72837 5.07222,0.321055 5.76927,1.018107 0.64798,0.647982 2.40589,0.769685 2.71495,1.696844 0.46563,1.3969 1.61712,3.313966 2.03621,3.733057 1.30629,-2.653066 3.56645,-2.695666 5.76927,-4.072426 5.27506,-3.296913 11.59712,-3.592664 16.62907,-6.108639 0.77406,-0.387028 1.87457,-0.118483 2.71495,-0.678738 3.87096,-2.580633 8.33067,-4.699979 12.55665,-6.108639 0.7391,-0.246365 1.60521,-1.366684 2.37558,-1.696844 1.49625,-0.64125 3.53518,-1.252457 5.09054,-1.696844 5.1179,-1.46226 13.33079,-2.47099 16.62907,-5.76927 0.62217,-0.622176 2.43214,-0.05656 3.05432,-0.678738 0.59107,-0.591072 0.97934,-7.989789 1.35747,-9.502327 0.21995,-0.879774 3.27373,-8.364262 3.39369,-8.484221 0.53897,-0.538964 1.03357,-10.535895 2.03621,-11.53854 1.03319,-1.033187 4.35208,-0.279652 5.42991,-1.357476 1.13732,-1.137327 -1.05763,-3.812094 -1.35748,-4.411795 -0.29976,-0.599518 2.2597,-3.277808 2.71495,-3.733057 1.77182,-1.771823 -5.16522,-3.468376 -5.4299,-3.733057 -0.54802,-0.548025 -0.50823,-2.375582 0.33937,-2.375582 3.94212,0 6.1762,-2.103778 7.80548,-3.7330569 0.79186,-0.7918606 -0.79186,-3.9593031 0,-4.7511637 1.41266,-1.4126564 5.73118,2.33749 6.10864,2.7149507 -2.18467,-1.7397159 -2.32195,-6.50163498 -1.01811,-7.8054832 0.134,-0.1339976 2.88582,-0.1685048 3.05432,0 1.25478,1.25477786 1.24736,2.3755818 3.73306,2.3755818 2.94122,0 2.96599,-1.26914798 4.4118,-2.7149506 0.89472,-0.8947254 4.12643,0.96409912 4.75116,0.3393688 0.78481,-0.7848151 1.35691,-1.5268749 2.37558,-2.036213 0.73387,-0.3669342 5.60703,-0.4204921 6.44801,0 1.53065,0.7653236 2.82195,3.01865227 4.75116,2.37558184 2.44256,-0.81418694 6.68284,-3.61564184 9.8417,-2.03621304 1.08795,0.5439732 9.53467,2.06855503 9.8417,2.37558188 0.88566,0.88566047 -0.0752,3.31853582 0.67873,4.07242602 0.0928,0.092809 15.10484,-0.5061314 15.95034,0.3393688 0.60436,0.6043618 -0.0689,2.3066792 0.67874,3.0543195 1.30056,1.3005681 3.7458,-3.3809368 5.4299,-1.6968441 0.65143,0.6514347 0.42564,2.8012203 1.35747,3.7330571 1.14844,1.1484421 5.14175,-0.9668956 6.44801,0.3393689 0.20868,0.2086759 0.13151,6.9188912 3.39369,10.1810652 1.71226,1.712264 6.05165,-2.432571 6.44801,-2.036213 0.72337,0.72337 0.15917,6.607182 1.0181,7.466114 1.10747,1.107465 6.39477,-0.964867 6.78738,-1.357475 0.6336,-0.633596 0.37728,-2.903591 1.35748,-3.393689 0.98334,-0.491672 0.76327,0.423909 1.0181,0.678738 1.40567,1.405673 1.45725,2.575136 2.37558,4.411795 0.32654,0.653082 -0.49618,2.558139 0,3.054319 0.5878,0.587796 5.5853,-0.0518 6.44801,-0.339368 2.32426,-0.774754 4.6712,-4.112409 7.46612,-2.714951 0.72766,0.363833 0.22473,7.748165 0.33936,7.805483 1.55146,0.775726 3.21148,-0.718026 4.4118,-1.018106 4.0432,-1.010801 5.02414,-2.64856 7.12675,-4.751164 0.50273,-0.502735 -0.24445,-2.253361 0.67873,-2.714951 0.53511,-0.267553 1.74714,0 2.37558,0 4.42034,0 1.36643,3.411582 2.71496,6.108639 0.61943,1.238875 2.50549,1.148016 3.39368,2.036213 0.9012,0.901194 1.24847,2.605941 2.03622,3.393689 0.16933,0.169337 1.43111,0 1.69684,0 5.73028,0 0.66506,-7.968328 3.05432,-9.162959 3.95685,-1.978423 2.5326,4.150933 4.4118,5.090533 2.43246,1.216234 8.18895,-1.313376 8.48422,-1.018107 0.67879,0.678794 0,3.951815 0,5.429902 0,0.535823 1.58373,2.828062 0.67873,3.733057 -0.26584,0.265846 -3.08164,4.045106 -1.69684,5.429901 1.69678,1.696778 5.38583,-0.656701 6.78738,-1.357475 0.20719,-0.103595 4.20686,0.134438 4.41179,0.339369 0.45631,0.456308 2.86154,5.622679 4.4118,4.072426 1.81619,-1.816192 1.88279,-6.141173 3.05432,-8.484221 0.22596,-0.451935 2.61321,-1.255736 3.39368,-2.036213 1.72576,-1.725759 1.49673,3.811442 1.69685,4.411795 0.25184,0.755529 4.10949,5.392836 4.41179,5.090532 0.2966,-0.296598 0.29165,-1.309758 1.01811,-2.036213 0.63781,-0.637806 1.53395,-0.692312 2.03621,-1.696844 -0.39902,-1.133316 3.20327,-6.299062 3.39369,-6.108639 1.45049,1.450487 0.95672,4.689778 2.03621,5.76927 0.10724,0.107236 7.25188,-1.420039 7.80549,-1.696844 0.79324,-0.396621 3.51019,0.222859 4.07242,-0.339369 0.64655,-0.646545 1.67284,0.008 2.71495,-0.339369 0.59954,-0.199847 0.99822,-0.843449 1.69685,-1.018106 0.0437,-0.01092 1.25608,0.101394 1.35747,0 1.16864,-1.168642 3.22833,-2.210216 4.4118,-3.393689 1.77636,-1.776364 3.24156,-4.259671 5.09053,-6.108639 1.62408,-1.624075 -1.40495,-5.043055 0,-6.448008 0.42752,-0.427521 1.45954,-0.294287 2.03621,-0.678737 2.30159,-1.534391 2.86772,-3.300388 5.09054,-4.411795 2.61284,-1.30642 3.81625,0.422564 5.4299,2.036213 0.51233,0.512332 2.17944,0.482594 2.71495,1.018106 0.0409,0.04087 10.06418,-1.018106 11.53854,-1.018106 1.13893,0 6.83917,-0.391167 7.12674,-0.678738 2.79643,-2.796421 24.7497,-2.036213 30.88257,-2.036213 0.70305,0 3.96438,-0.44741 4.41179,0 0.7353,0.735299 -0.39593,3.337127 0.33937,4.072426 0.46722,0.467222 0.33937,1.431374 0.33937,2.375582 0,0.435333 0.3168,3.076892 0,3.393688 -1.51529,1.515288 -2.24935,3.946195 -3.73306,5.429902 -0.74696,0.746967 -2.14851,1.469775 -3.05432,2.375582 -0.22248,0.222483 -0.16934,1.187451 -0.33937,1.357475 -0.36265,0.362659 -0.67873,-0.482436 -0.67873,0.339369 0,0.848255 -11.18202,4.572901 -12.21728,5.090532 -0.55156,1.180126 -0.20043,2.576013 -1.01811,3.393689 -2.05428,2.054279 -3.94104,3.941042 -5.76927,5.76927 -0.85277,0.852771 0,7.03684 0,8.484221 0,1.563084 0.68385,5.080305 0,6.448008 -1.07677,2.153545 -2.6073,2.839013 -3.73305,5.090532 -0.58151,1.163013 0.0785,3.654527 -0.67874,4.411795 -0.81863,0.818628 -9.97303,1.149443 -10.52044,1.696844 -2.33706,2.337064 -0.14869,6.936074 -0.67873,7.466114 -0.4564,0.456399 -0.85009,1.528823 -1.35748,2.036213 -1.04932,1.049325 -2.90657,1.888466 -3.73306,2.714951 -1.40097,1.400971 2.03622,11.390104 2.03622,13.574754 -0.3693,2.5313 0.0335,6.65323 -0.33937,8.14485 -0.30298,1.2119 -2.3224,11.59173 -2.03622,11.87791 1.01811,1.01811 4.75117,-0.67874 5.76927,0.33937 1.86795,1.86794 5.12897,2.90385 7.46612,4.07243 1.69159,0.84579 3.01473,2.52547 4.75116,3.39368 1.95387,0.97694 4.59663,-0.15453 6.10864,1.35748 1.4085,1.4085 0.67874,6.55776 0.67874,8.48422 0,1.82295 0.83613,6.13322 0,7.80548 -0.76118,1.52236 -1.4486,3.23656 -2.37558,5.09054 -1.09766,2.19532 -4.8725,3.97571 -6.10864,6.448 -0.63851,1.27702 -0.67663,3.05011 -1.35748,4.4118 -1.27415,2.54831 -4.07242,3.94094 -4.07242,6.78738 -0.57338,1.364 -1.11064,2.90001 -1.69685,4.07242 -0.90851,1.81703 -2.72316,3.41011 -3.73305,5.4299 -0.93126,1.86251 -1.08344,4.54246 -2.03622,6.44801 -1.5865,3.17302 -3.04485,5.0716 -4.41179,7.80548 -0.797,1.594 -0.35907,4.09213 -1.69685,5.4299 -0.33556,0.33557 -2.36834,8.81635 -3.39368,9.8417 -1.44314,1.44313 -3.88216,6.06746 -5.09054,8.48422 -2.2599,4.51982 -2.56433,8.86173 -4.75116,13.23539 -1.07951,2.15901 0.77511,5.9159 -0.33937,8.14485 -0.68602,1.37204 -2.00895,5.06327 -3.05432,6.10864 -0.56414,0.56414 -0.53583,2.7685 -1.01811,3.73305 -0.89333,1.78668 0,6.45077 0,8.48423 0,1.06175 -0.11855,10.74125 0,10.8598 0.9113,0.91129 2.03622,13.44135 2.03622,15.61096 -1.95181,8.04077 -2.02457,8.47258 -7.12675,13.57476 -0.5114,0.5114 -1.92247,4.97679 -2.03621,5.09053 -0.58227,0.58227 -1.37865,1.03928 -2.03621,1.69684 -0.6647,0.6647 -3.90675,4.23811 -3.39369,4.75117 0.90321,0.90321 3.22173,0.84615 4.41179,2.03621 1.716,1.716 2.22553,3.58301 3.73306,5.09053 1.68082,1.68082 -2.18753,5.35424 0.67874,6.78738 4.57046,2.28523 2.25006,-4.62564 3.73305,-6.10864 0.59648,-0.59648 7.49889,1.66408 8.48423,0.67874 2.00176,-2.00176 -0.0769,-4.07243 3.39368,-4.07243 0.2071,0 1.22525,-0.13223 1.35748,0 0.64664,0.64665 1.52708,1.35732 2.03621,2.37559 0.14256,0.2851 0.15282,1.51028 0.33937,1.69684 1.5176,1.5176 5.32047,0.90868 7.12675,2.71495 0.56226,0.56226 -0.0597,1.57739 0.33937,2.37558 0.34393,0.68786 0.66004,0.66005 1.0181,1.01811 0.49705,0.49705 -0.004,2.7078 0.33937,3.39369 0.57303,1.14606 1.47955,2.61972 2.03621,3.73305 0.15998,0.31996 0.76516,0.0864 1.01811,0.33937 0.54072,0.54072 0.91438,1.59312 1.35748,2.03622 0.99097,0.99097 3.2933,0.57835 4.07242,1.35747 0.61536,0.61536 1.22625,-0.54751 1.35748,-0.67874 0.41146,-0.41146 1.68902,-0.33154 2.03621,-0.67873 0.50837,-0.50837 1.27995,-2.55991 1.69684,-3.39369 0.86902,-1.73803 -0.69023,-3.72157 0.67874,-5.09054 0.43788,-0.43787 4.38598,-0.0258 4.75117,0.33937 1.66785,1.66786 4.35636,2.65952 6.10863,4.4118 0.58817,0.58816 2.2206,0.18438 3.05432,1.01811 2.11765,2.11765 -0.54581,10.99272 2.03622,13.57475 0.64012,0.64012 1.07412,2.09223 1.69684,2.71495 0.24732,0.24732 1.02275,0.34401 1.35748,0.67874 0.20894,0.20894 0.21186,1.44182 0.33937,1.69684 0.39956,0.79914 2.01819,1.66081 2.37558,2.37558 2.9045,5.80901 3.05432,5.59923 3.05432,12.89602 0,1.49586 -0.0386,4.11105 -1.01811,5.09053 -0.8587,0.8587 -2.48774,1.75292 -3.73306,2.37558 -0.25965,0.12983 -2.06613,-0.30944 -2.71495,0.33937 -1.92899,1.92899 -3.94802,5.3055 -5.09053,6.44801 -1.14267,1.14267 0.75175,5.62324 0,7.12675 -1.00611,2.01222 -1.35748,3.43702 -1.35748,5.76927 -0.49993,1.69534 -0.68172,4.75415 -1.69684,5.76927 -0.33112,0.33112 0,3.29844 0,3.73305 0,1.81439 -0.60948,16.69833 0.33937,17.64718 0.40785,0.40786 2.04669,6.09816 1.01811,7.12675 -0.21328,0.21328 -2.08582,0 -2.37559,0 -7.99544,0 -8.58009,-4.96879 -14.25349,-7.80549 -0.44759,-0.22379 -2.06445,-0.66462 -2.71495,-0.33936 -0.40143,0.20071 -0.79092,1.13029 -1.0181,1.35747 -1.71366,1.71366 -4.76291,2.71495 -7.46612,2.71495 -1.06883,-0.63753 -3.02289,-0.49334 -4.07242,-1.01811 -2.05914,-1.02956 -2.79361,-2.7936 -4.07243,-4.07242 -0.17022,-0.17022 -6.67364,-2.48932 -7.46612,-1.69685 -0.33747,0.33748 0.13403,1.12078 -0.33936,1.35748 -1.73649,0.86824 -4.2241,1.84851 -5.76927,3.39369 -0.76445,0.76445 0.13104,6.38248 -4.07243,8.48422 -1.51315,0.75657 -12.38919,-0.67429 -12.89602,0.33937 -0.54299,1.08598 0.54299,2.98644 0,4.07242 -2.51018,5.02037 -1.35747,13.51102 -1.35747,20.02277 0,0.87108 0.39954,2.93397 0,3.73305 -0.7324,1.4648 -0.67874,3.43198 -0.67874,4.4118 -2.65819,-0.27892 -3.15794,2.08802 -5.09053,3.05432 -0.99723,0.49861 -1.48907,0.1316 -2.37558,1.0181 -0.39593,0.39593 -1.64029,-0.0566 -2.03622,0.33937 -0.8654,0.86541 0,1.68259 0,3.39369 0,2.59691 -0.92953,12.05505 0,13.91412 0.78219,1.56437 2.60082,5.31577 3.39369,6.10864 2.16515,2.16515 8.57232,-0.93001 10.52044,1.01811 1.0482,1.0482 0.79334,4.18703 1.69684,5.09053 0.74025,0.74025 1.8189,1.8189 2.37558,2.37558 0.72621,0.72621 1.69685,14.8483 1.69685,17.30781 -0.89798,3.08127 0.13618,4.82036 1.0181,7.46612 0.90617,2.71851 0.14447,10.13063 1.35748,12.55664 1.23236,2.46472 3.85606,13.66811 2.37558,16.62908 -0.39117,0.78234 -1.30567,0.57513 -1.69684,1.35747 -2.17156,4.34312 -3.73306,2.03301 -3.73306,8.48422 0,2.72072 0.73343,16.18033 0,17.64718 -0.61812,1.23625 -1.18384,1.68893 -1.69685,2.71495 -0.10245,0.20491 0.15688,0.86123 0,1.01811 -2.75182,2.75182 -8.5129,3.76174 -11.53854,6.78738 -4.03673,4.03673 -6.24603,7.94288 -10.8598,12.55664 -0.66221,0.66222 -0.87654,2.57339 -1.69684,3.39369 -1.20513,1.20513 -3.13365,2.53424 -3.73306,3.73306 1.47944,-3.02738 8.32496,1.51674 10.18106,-0.33937 0.39255,-0.39254 4.51684,-2.94928 5.76928,-1.69684 1.03254,1.03254 0.24377,4.99494 1.0181,5.76927 1.15654,1.15653 3.6214,1.8107 5.4299,2.71495 1.30284,0.65142 1.63323,1.9726 2.37558,2.71495 1.22838,1.22838 7.02502,1.69684 9.16296,1.69684 0.50236,0 2.34776,1.72467 1.35748,2.71495 -0.31882,0.31882 -6.71116,2.16779 -7.80548,2.71495 -3.97795,1.98898 -2.45841,4.28352 -6.78738,6.44801 -1.24506,0.62253 -4.57925,-0.16745 -5.4299,-1.01811 -0.33937,-0.33936 -0.33937,-1.0181 -0.67874,-1.35747 -0.75452,-0.75452 -4.03617,0.0363 -4.75116,-0.67874 -0.11646,-0.11645 -2.72788,-2.02328 -3.39369,-1.35747 -0.84424,0.84423 -0.88678,1.77355 -1.35748,2.71495 -0.5125,1.02499 -2.30544,1.21719 -2.71495,2.03621 -1.07226,2.14452 -3.73306,-2.43422 -3.73306,4.07243 0,4.12642 1.09419,5.99751 2.37559,9.84169 1.16681,3.50043 -0.45096,8.03327 2.03621,10.52044 1.07019,1.07019 5.3516,-0.37852 6.78738,0.33936 0.77948,0.38975 4.14571,2.78824 4.75116,3.39369 0.71459,0.7146 0.61394,1.97142 1.35748,2.71495 0.62311,0.62312 2.80859,0.43301 3.39368,1.01811 0.16955,0.16954 1.5018,2.57063 0.67874,3.39369 -0.60404,0.60404 -1.89151,0.7287 -2.37558,1.69684 -1.40965,2.8193 0.57091,6.10864 3.39369,6.10864 0.98421,0 1.93013,0.57266 2.37558,1.01811 0.19494,0.19494 0.26245,6.18556 0,6.44801 -0.64221,0.64221 -2.75766,3.4364 -3.05432,3.73305 -0.80431,0.80431 -2.68677,-0.0282 -3.73306,1.01811 -0.0898,0.0898 -0.87836,0 -1.0181,0 -1.39921,-0.0949 -2.72701,0.11513 -4.07243,0.33937 -3.81716,0.63619 -7.84612,2.03621 -11.53854,2.03621 -0.28171,0 -3.88017,0.14712 -4.07243,0.33937 -0.22219,0.2222 -0.21105,0.78426 -0.67873,1.01811 -0.65777,0.32888 -1.51627,-0.15879 -1.35748,0 1.51351,1.5135 3.82443,4.1638 5.4299,5.76927 0.82712,0.82712 3.3154,1.61855 4.4118,2.71495 1.6724,1.6724 1.55826,3.93385 3.05432,5.4299 0.53102,0.53102 1.46277,0.78403 2.03621,1.35747 0.0549,0.055 0.29823,0.99754 0.33937,1.01811 0.7591,0.37955 3.49938,2.14191 4.07242,2.71495 0.55718,0.55717 0.56694,1.92441 1.35748,2.71495 0.0651,0.0651 3.96605,1.48409 4.41179,2.37558 0.67653,1.35305 0.94699,2.9832 2.03622,4.07243 0.27931,0.27931 0.33937,5.83054 0.33937,7.46611 0,0.25989 1.01567,0.67631 1.0181,0.67874 0.44554,0.44554 1.01113,1.68986 1.35748,2.03622 1.14242,1.14242 5.59874,3.39368 6.78737,3.39368 0.92555,0 4.4737,2.34463 4.4118,2.37559 -0.72469,0.36234 -2.84654,-0.54715 -3.39369,0 -1.11854,1.11854 -2.9269,0.89068 -3.39369,1.35747 -5.45432,5.45433 -12.93651,1.31698 -17.30781,-3.05432 -1.56855,-1.56855 -4.06118,-1.6856 -5.09053,-2.71495 -2.18406,-2.18406 -6.06858,3.73306 -7.80548,3.73306 -1.24984,0 -3.5652,1.18961 -4.4118,2.03621 -0.157,0.157 -6.14617,1.73437 -6.78737,2.37558 -1.48028,1.48028 -2.30028,3.99712 -4.07243,5.76927 -2.07903,2.07903 -2.22136,5.46082 -3.39369,7.80548 -1.02483,2.04968 0.6954,5.05721 -0.33937,7.12675 -0.89662,1.79324 -0.11441,4.30125 -1.0181,6.10864 0.0916,2.4162 -2.64089,3.9243 -3.39369,5.4299 -0.67307,1.34613 -0.99775,4.71044 -1.35748,5.4299 -1.52512,3.05024 -12.4933,5.36656 -15.2716,8.14486 -0.78297,0.78297 -3.6985,0.41557 -4.75116,0.67873 -1.03144,0.25786 -6.95852,1.10222 -7.80548,0.67874 -1.36739,-0.68369 -4.21136,-1.15703 -5.09054,-2.03621 -1.13075,-1.13075 -3.92772,-3.49103 -5.76927,-4.4118 -0.99623,-0.49811 -1.57456,-1.91393 -2.37558,-2.71495 -0.35179,-0.3518 0.54868,-6.72234 -3.39369,-4.75116 -0.92694,0.46347 -0.88105,1.96768 -1.69684,2.37558 -1.09556,0.54778 -3.63115,0.57683 -4.41179,1.35748 -1.24936,1.24935 -2.51947,2.01901 -4.07243,3.05432 -3.47211,2.31474 -5.11743,7.51991 -6.78738,10.8598 -0.45148,0.90295 -0.64938,3.02496 -1.35747,3.73306 -1.54559,1.54558 -3.00837,3.93456 -3.73306,6.10863 -0.85982,2.57946 -1.56062,5.56373 -2.37558,8.82359 -0.68537,2.74148 -2.16968,4.81218 -3.05432,7.46612 -1.19885,3.59653 -1.45056,7.65227 -3.05432,10.8598 -0.76092,1.52184 0.54024,4.14856 0,5.76927 -0.84459,2.53378 -0.50391,5.58415 -1.35748,8.14485 -0.50905,1.52716 0.50906,3.56338 0,5.09054 -1.39656,4.18967 -1.35747,8.40156 -1.35747,12.89601 -0.49077,0.89129 -0.78197,1.77041 -1.01811,2.71495 -0.49256,1.97026 -0.517,4.10421 -1.0181,6.10864 -0.62232,2.48928 -1.77335,4.7178 -2.37559,7.12675 -0.17168,0.68675 -0.8343,0.80607 -1.0181,1.35747 -1.03528,3.10584 -2.28363,5.83277 -3.39369,9.16296 -0.16579,0.49736 -0.82052,0.7647 -1.01811,1.35748 -0.91523,2.7457 -1.76976,6.18155 -3.39369,7.80548 -0.0165,0.0165 -0.87016,4.45528 -1.0181,4.75116 -0.84766,2.80806 -1.19716,5.62769 -2.03622,8.14485 -1.14513,3.4354 -2.69749,6.75247 -4.07242,9.50233 -2.28498,4.56996 1.17796,10.36058 -2.03621,13.57476 -1.64716,1.64715 1.3382,23.81362 0,27.82824 -1.10276,3.30827 -1.16223,11.14803 -2.03622,12.89602 -1.2361,2.47219 -3.27503,3.27503 -4.75116,4.75116 -0.22902,0.22902 0,22.30706 0,24.43456 0,8.2276 2.49672,31.6584 -0.67874,38.0093 -2.28706,4.5741 0.76383,32.4092 -1.35747,36.6518 -1.17471,2.3495 0.45799,5.8714 -0.67874,8.1449 -4.83641,9.6728 -0.062,40.6623 4.07242,44.7967 2.79962,5.8193 -0.77117,16.1972 3.39369,20.3621 0.17967,0.1797 1.75674,0 2.03622,0 5.29097,0 3.39352,-5.4305 6.448,3.7331 z"
       id="path3012"
       inkscape:connector-curvature="0"
       sodipodi:nodetypes="cccccsscccccsccsccccsccccccccccscscssccscsccccsccccsccsccsscccsccsccccssssssscssscssssssscsssssssssscssscssssscsssssscssssssssssscsssssscssssssssssssssssssscsssssssssssscssccssssscsscsssssssssssssssssssccsssssscscssssssssscscsssssssssssssssssssccssssscssssscssscccccssscsssssssscssssssssscsssssccssssscsscsssscsssssssssscsssssssssssssssssscscsssssssscssssssssssssssscsssssscsssssssssscsssscscsssccsssssscssssssssscscssssscssssccsssssssssscsssscsssssssscsssssssssssccscscscsssssscssssssssccssscsssssscscsscssssssscsscsssssscsssssscssssccsssssssscscsssssscsccssssscscssccsssscssssssscscsssssssssscssssssscssssssssssssscsscsssscsssssssscsccsc" />
    <path
       style="fill:none;stroke:#000000;stroke-width:1px;stroke-linecap:butt;stroke-linejoin:miter;stroke-opacity:1"
       d="m 437.10706,907.73515 c -0.40542,1.56986 -5.43018,-4.75089 -9.50233,-1.69685 -0.93104,0.69826 -0.66314,4.39616 -1.35747,5.09054 -1.79616,1.79615 -6.24957,1.4984 -8.14486,3.39369 -3.01747,3.01747 -7.19514,5.83767 -10.18106,8.82359 -1.03265,1.03265 0,8.55836 0,10.18106 0,9.54802 1.78303,36.22628 -2.71495,40.72426 -3.14549,3.14549 -9.22922,3.93587 -13.57476,6.10864 -1.80132,0.90066 -4.69902,3.34155 -6.10863,4.75116 -0.51595,0.51595 -2.68163,0.32271 -3.39369,0.67874 -5.32843,2.66422 -14.40118,6.25633 -18.32592,10.18107 -2.5268,2.5268 -9.49971,1.35485 -12.21728,4.07245 -2.16144,2.1614 -4.15359,6.1898 -6.78737,8.8236 -0.61786,0.6178 -1.82533,9.0805 -2.71496,10.8598 -2.13182,4.2636 1.49082,11.2718 -0.67873,15.6109 -0.75143,1.5029 0.0653,3.9418 -0.67874,5.4299 -2.40367,4.8074 -6.05546,8.4045 -9.50233,13.5748 -2.42546,3.6382 -2.20943,7.8125 -4.07242,11.5385 -1.50496,3.0099 -5.22642,5.023 -6.78738,8.1449 -2.18741,4.3748 -3.12153,9.9089 -6.10864,12.896 -1.11001,1.11 -0.19334,3.9737 -0.67874,5.4299 -1.66689,5.0007 -0.80794,10.989 -4.07242,14.2535 -0.65159,0.6516 0.42846,3.2155 0,4.0724 -1.67032,3.3406 -7.46612,11.5963 -7.46612,13.5748"
       id="path3020"
       inkscape:connector-curvature="0"
       transform="translate(66.587914,-7.6640606)"
       sodipodi:nodetypes="cscsssssssscccsssssssssc" />
    <path
       style="fill:none;stroke:#000000;stroke-width:1px;stroke-linecap:butt;stroke-linejoin:miter;stroke-opacity:1"
       d="m 227.37712,848.00624 c -0.83821,6.81388 4.19889,4.13566 8.14485,6.10863 4.23849,2.11925 7.55131,3.87458 12.21728,5.42991 2.42685,0.80894 10.5994,-0.93915 12.21728,0.67873 2.36099,2.361 -7.27689,15.12146 -4.07243,18.32592 5.59482,5.59482 11.44801,1.94568 13.57475,4.07243 0.67874,0.67873 0,2.71495 0.67874,3.39368 5.84908,5.84908 8.99585,16.46196 14.25349,21.71961 0.52139,0.52139 0,4.83722 0,5.4299 0,8.8261 2.03622,15.7602 2.03622,25.1133 0,0.7318 -0.44553,6.56461 0,6.78737 2.89594,1.44798 7.96385,-1.44797 10.8598,0 3.97151,1.98576 7.50387,6.1464 10.18106,8.82359 0.82293,0.82293 0.6631,3.37805 1.35748,4.07243 1.08796,1.08796 3.84862,2.26735 4.75116,4.07242 0.63222,1.26443 0.44799,2.48421 1.35748,3.39369 1.0118,1.0118 2.71495,-1.80997 4.07242,-1.35747 0.0981,0.0327 2.09704,7.52694 4.07243,9.50232 1.65602,1.65602 -0.0567,15.49756 1.35748,18.32592 1.7649,3.52981 17.55984,5.04687 21.04086,6.78738 2.21898,1.10949 3.74509,3.0663 5.4299,4.7512"
       id="path3022"
       inkscape:connector-curvature="0"
       transform="translate(66.587914,-7.6640606)" />
    <path
       style="fill:none;stroke:#000000;stroke-width:1px;stroke-linecap:butt;stroke-linejoin:miter;stroke-opacity:1"
       d="m 223.98343,727.86967 c 8.86581,-2.64961 22.23815,-1.27738 30.5432,-5.4299 2.17196,-1.08598 5.97289,1.08598 8.14485,0 4.52196,-2.26098 9.73768,-5.4299 14.93223,-5.4299 0.73233,2.32929 4.08675,14.9179 2.71495,16.2897 -0.44497,0.44497 -1.69617,1.01743 -2.03622,1.35747 -1.27258,1.27259 0.14148,11.68002 0.67874,12.21728 0.67295,0.67295 0,6.73993 0,6.10864 0,-0.45249 0,-1.80997 0,-1.35747 0,1.15428 0.8166,8.00699 0,8.82359 -1.20889,1.20889 -3.08907,3.5327 -3.39369,4.75116 -0.2281,0.91243 0.20643,10.18106 0,10.18106 -0.93283,0 2.05534,0.0191 2.71495,0.67874 1.55545,1.55545 -1.13347,10.17434 0,13.57476 0.3004,0.90118 3.51359,2.83485 4.07243,3.39368 0.0429,0.0429 3.39369,-0.0323 3.39369,0 0,0.65904 1.37626,-5.44869 2.03621,-6.10863 0.90498,-0.90499 3.84618,0.22624 4.75117,-0.67874 0.97178,-0.97179 0.86503,-3.57998 2.03621,-4.75117 4.63988,-4.63988 10.97513,9.2976 13.60886,6.66386 3.07635,-3.07634 4.57508,-7.61097 9.46822,-10.05754 3.43345,-1.71673 9.53889,12.93257 11.53854,14.93222 1.45663,1.45664 5.71289,-2.99793 6.10864,-3.39368 1.0497,-1.0497 3.38367,0.01 4.75116,-1.35748 0.15662,0.3805 0.26189,0.78646 0.46987,1.1415 1.0006,1.70817 2.32323,3.31212 3.35958,5.03937 0.34762,0.57937 1.22691,3.14668 1.43982,3.35958 0.43478,0.43479 1.37015,0.89021 1.67979,1.19985 1.37015,1.37016 4.66281,-2.05635 5.99925,-0.71991 2.20956,2.20957 1.80595,2.99345 4.55943,0.23997 0.86164,-0.86164 5.12289,1.03811 6.23922,0.47994 1.41282,-0.70641 2.17302,-1.69308 3.11961,-2.63967 0.40691,-0.40691 7.96591,-0.47994 8.87889,-0.47994 0.98406,0 3.29302,-0.30652 3.83952,0.23997 0.76048,2.45591 2.75121,5.63086 4.07949,6.95913 0.3587,0.35871 5.19292,-1.83334 5.75928,-2.3997 0.35625,-0.35625 2.32577,0.083 2.63967,0.23997 2.68105,1.34053 5.39685,2.55803 7.67904,4.07949 0.69441,0.46294 2.14021,0.22046 2.87964,0.95988 1.31026,1.31026 2.53974,2.05981 3.83952,3.35958 0.49956,0.49956 2.33666,0.41691 2.87964,0.95988 0.35395,0.35396 0.66573,0.90571 0.95988,1.19985 0.43655,0.43656 2.80421,1.40211 1.91976,0.95988 1.09647,2.812 -0.35163,17.48682 0.7434,18.58185 0.53343,0.53343 2.09885,6.38537 1.01811,7.46612 -2.91321,2.9132 -2.71495,19.0794 -2.71495,25.11329 0,0.70305 -0.44741,3.96439 0,4.4118 0.19873,0.19873 2.6094,6.55355 1.35747,7.80548 -1.0146,1.0146 -1.4807,4.19565 -2.03621,4.75116 -4.76591,4.76592 -3.39369,36.58889 -3.39369,43.43921"
       id="path3030"
       inkscape:connector-curvature="0"
       transform="translate(66.587914,-7.6640606)"
       sodipodi:nodetypes="csscscsssscscssssssssssc" />
    <path
       style="fill:none;stroke:#000000;stroke-width:1px;stroke-linecap:butt;stroke-linejoin:miter;stroke-opacity:1"
       d="m 242.30935,639.2944 c 0.22624,0.45249 0.41845,0.92367 0.67874,1.35748 0.3791,0.63184 2.55481,1.53671 3.05431,2.03621 0.97836,0.97835 0.39472,2.40326 1.69685,3.05432 1.59585,0.79793 4.75863,-0.68621 5.4299,-1.35748 0.79224,-0.79223 4.06462,0.51296 5.09053,0 2.76178,-1.38088 10.58365,-0.0316 12.55665,-1.0181 1.25188,-0.62594 1.74788,-1.383 3.05432,-2.03621 2.18644,-1.09323 2.18207,1.06576 3.39369,-1.35748 1.22983,1.23442 0.49533,2.00876 1.0181,3.05432 1.01149,2.02298 1.21333,4.1235 2.37559,6.44801 1.52636,3.05272 -1.67023,7.49273 2.03621,11.19917 0.37652,0.37652 1.7176,0.6995 2.03621,1.01811 2.26237,2.26236 5.64861,3.95176 7.80549,6.10863 0.49887,0.49888 5.91446,1.84204 7.46611,3.39369 0.33937,0.33937 1.69684,-0.33937 2.03621,0 0.8957,0.8957 -1.02844,3.21884 1.35748,4.4118 0.68404,0.34202 1.81939,-0.89556 2.03621,-0.67874 0.28281,0.28281 -0.28281,1.41404 0,1.69684 0.13751,0.13751 2.40943,3.37677 1.69685,3.73306 -1.80666,0.90333 -2.9398,0.90778 -2.03622,2.71495 1.2356,2.4712 2.37558,4.16432 2.37558,7.80548 0,3.28565 -0.005,6.45793 -1.35747,9.16296 -0.40892,0.81783 -1.01811,1.97097 -1.01811,2.71495 0,0.22625 0,0.90499 0,0.67874 0,-0.22624 -0.22624,-0.67874 0,-0.67874 0.25295,0 0.16051,0.49988 0.33937,0.67874 0.51227,0.51227 2.26829,0.33937 3.05432,0.33937 1.86311,0 6.90007,-0.96176 8.14485,-0.33937 0.29089,0.14544 0,3.63353 0,4.07243 0,2.12829 0.47948,13.09528 -0.33937,13.91412 -0.5624,0.5624 -3.2134,5.27082 -2.37558,6.10864 0.68853,0.68853 5.70541,0 6.78738,0 4.16196,0 4.99647,1.48013 8.14485,3.05432 0.93065,0.46532 3.70449,-0.70731 4.4118,0 1.1906,1.1906 10.40337,5.76927 11.8779,5.76927 3.55665,4.90187 4.64183,8.57414 8.57769,12.51 0.58189,0.5819 -0.0111,2.86858 0.47994,3.35958 2.51934,2.51935 4.35765,6.75735 7.1991,9.5988 1.44486,1.44486 2.39371,5.75329 4.7994,8.15898 0.95198,0.95199 1.87202,7.58356 2.87964,9.5988 1.89134,3.78269 5.5137,6.22802 6.71916,8.63892 1.51819,3.0364 1.81479,6.13425 3.35958,7.67904"
       id="path3038"
       inkscape:connector-curvature="0"
       transform="translate(66.587914,-7.6640606)"
       sodipodi:nodetypes="cssssssscssssssssscssscssssscsssssscscssssc" />
    <path
       style="fill:none;stroke:#000000;stroke-width:1px;stroke-linecap:butt;stroke-linejoin:miter;stroke-opacity:1"
       d="m 343.63705,734.46569 c 0.95505,-0.96463 -0.95986,-4.79943 0,-5.75928 1.52847,-1.52848 10.62686,-5.07346 13.91826,-6.71916 2.22031,-1.11016 5.64592,-4.02281 8.15898,-5.27934 2.81564,-1.40782 7.74303,1.40782 10.55868,0 2.36921,-1.18461 3.67796,-2.31892 6.71916,-3.83952 1.6217,-0.81085 6.47972,-1.20039 7.1991,-1.91976 2.73356,-2.73356 1.35968,-8.07884 3.83952,-10.55868 1.8146,-1.81461 6.1988,0.26018 8.63892,-0.95988 2.3078,-1.1539 5.57792,-1.7384 7.1991,-3.35958 0.47994,-0.47994 0.47994,-1.43982 0.95988,-1.91976 0.187,-0.187 0,-1.62688 0,-1.91976 0,-6.48777 -4.1984,-8.51786 -7.67904,-11.9985 -0.8277,-0.8277 -1.38018,-2.34006 -2.3997,-3.35958 -4.58102,-4.58101 1.8697,-12.0986 0,-15.83802 -0.51139,-1.02277 -2.22157,-6.41735 -0.95988,-7.67904 1.61245,-1.61245 2.83462,2.13722 3.35958,2.3997 2.60109,1.30055 6.29589,1.22819 8.63892,2.3997 2.82838,1.41419 9.91132,-3.19217 11.9985,-5.27934 0.4614,-0.4614 2.26364,0.13606 2.87964,-0.47994 0.7999,-0.7999 -0.7999,-3.9995 0,-4.7994 2.39806,-2.39807 6.23922,-8.24573 6.23922,-10.07874 0.8344,3.23277 6.95471,2.63525 8.63892,4.31946 4.94435,4.94435 11.53149,9.13179 15.83802,13.43832 -0.0239,3.19058 -3.11185,4.30394 -4.31946,6.71916 -3.41194,6.82388 -6.91986,10.27944 -11.9985,15.35808 -1.33551,1.33551 -1.93736,4.33706 -3.35958,5.75928 -0.31996,0.31996 0.31996,1.5998 0,1.91976 -1.52889,1.52888 -4.74439,6.82919 -3.35958,9.5988 0.83871,1.67742 1.75682,3.67658 2.87964,4.7994 0.58189,0.5819 2.38864,0.46888 2.87964,0.95988 3.01539,3.0154 7.58458,5.85374 4.31946,9.11886 -0.39995,0.39995 -1.03987,0.55993 -1.43982,0.95988 -0.0517,0.0517 0.47994,10.9155 0.47994,13.91826 0,1.75978 0,3.51956 0,5.27934 0,0.47994 -0.47994,1.43982 0,1.43982 0.63992,0 1.46727,0.45249 1.91976,0 0.39995,-0.39995 0.08,-1.51981 0.47994,-1.91976 2.52084,-2.52084 4.07639,-5.51621 6.71916,-8.15898 0.33937,-0.33937 0,-2.82648 0,-3.35958 0,-2.87456 6.73058,-2.87964 9.5988,-2.87964 10.41911,0 2.03963,-1.55969 5.75928,-5.27934 0.47994,-0.47994 2.3997,0.47994 2.87964,0 2.80581,-2.80582 7.94972,-0.37531 11.03862,-1.91976 1.91804,-0.95902 2.3997,-4.56219 2.3997,-6.71916 0,-1.49057 1.15067,-4.70105 1.91976,-6.23922 1.28756,-2.57512 7.01917,-1.25989 8.63892,-7.67904 0.30287,-1.20028 2.11513,-1.53751 3.83952,-2.3997 0.54546,-0.27273 6.30516,-1.37388 7.1991,-0.47994 0.68715,0.68716 -0.34821,3.49131 0.47994,4.31946 1.13632,1.13632 2.87964,2.17673 2.87964,4.31946 0,2.44058 10.38087,1.43982 12.95838,1.43982 2.11508,0 2.06427,-0.55219 3.83952,-1.43982 2.67481,-1.3374 5.97694,0.26228 8.63892,-2.3997 0.47643,-0.47643 3.96525,0 4.7994,0 1.8509,0 6.59072,-0.60838 9.11886,1.91976 0.41062,0.41062 0.12495,2.04471 0.95988,2.87964 1.59062,1.59062 1.91976,4.53784 1.91976,5.27934"
       id="path3043"
       inkscape:connector-curvature="0"
       transform="translate(66.587914,-7.6640606)"
       sodipodi:nodetypes="csssssssssssssssssssscscsssssssssssssssssssssssssssssssssc" />
    <path
       style="fill:none;stroke:#000000;stroke-width:1px;stroke-linecap:butt;stroke-linejoin:miter;stroke-opacity:1"
       d="m 277.40532,639.43757 c 1.82967,-0.88489 3.61262,1.18678 4.7994,0 1.688,-1.68799 2.60437,-5.48401 4.7994,-7.67904 2.22875,-2.22874 4.88502,-4.88501 6.71916,-6.71916 0.68073,-0.68073 2.27246,-0.83264 2.87964,-1.43982 0.70842,-0.70842 0.27723,-1.62463 1.43982,-2.3997 1.44643,-0.96429 3.31343,-1.39366 4.31947,-2.3997 0.4256,-0.42561 0.1907,-1.34129 0.47994,-1.91976 1.24402,-2.48805 3.67206,-3.67207 4.7994,-4.7994 1.02158,-1.02159 1.39011,-2.80509 2.3997,-4.31946 0.95162,-1.42744 3.09353,-1.17377 3.83952,-1.91976 0.31996,-0.31996 -0.31996,-1.5998 0,-1.91976 1.54804,-1.54805 4.66088,2.05827 6.71916,0 0.87779,-0.87779 -0.18385,-4.43171 0,-4.7994 0.70541,-1.41082 4.0866,-1.6869 4.7994,-2.3997 1.24965,-1.24966 1.55553,-3.11106 2.3997,-4.7994 0.61545,-1.23091 2.38646,-1.42658 3.35958,-2.3997 0.63992,0.7999 1.19542,1.67536 1.91976,2.3997 0.34159,0.34159 1.9284,0.009 2.3997,0.47994 1.97432,1.97433 4.62541,2.70565 6.23922,4.31946 0.23997,0.23997 1.19985,-0.23997 1.43982,0 1.70222,1.70222 3.23983,3.23983 4.7994,4.7994 0.94397,0.94397 7.30378,2.02445 9.11886,3.83952 1.82227,1.82228 5.58567,8.55212 7.67904,9.5988 2.38135,1.19068 8.38746,5.02788 10.55868,7.1991 1.63294,1.63295 4.69558,5.27934 5.27934,5.27934 1.84617,0 3.70696,1.48401 5.27934,0.95988 1.81,-0.60334 2.885,-1.44518 3.83952,-2.3997 0.6812,-0.68121 7.49578,-2.0681 9.11886,-2.87964 0.80251,-0.40126 26.78033,-0.76806 27.35658,-0.47994 2.30467,1.15233 3.63212,4.11206 5.27934,5.75928 0.38788,0.38789 2.18387,0.74405 2.87964,1.43982 1.59228,1.59228 10.5906,0.99181 11.9985,2.3997 1.37376,1.37377 3.62767,1.70791 5.27934,3.35958 0.40476,0.40476 0.55511,2.47488 0.95988,2.87964 1.17676,1.17676 4.30582,0.94624 5.75928,2.3997 0.77096,0.77096 2.16847,2.16848 2.87964,2.87964 1.19985,1.19985 4.55943,0.23997 5.75928,1.43982 1.15324,1.15324 1.90522,2.38517 2.87964,3.35958 0.004,0.004 -0.62597,8.305 -0.95988,8.63892 -1.67924,1.67924 -5.27934,3.39531 -5.27934,5.75928 0,6.26198 4.27916,2.3594 6.23922,4.31946 0.62924,0.62924 2.4951,6.23922 1.43982,6.23922 -2.02574,0 -10.41387,18.23772 -11.03862,18.23772 -0.99998,0 -7.1991,-6.83987 -7.1991,-4.31946 0,1.18469 -0.37527,3.19364 0,4.31946 0.65557,1.9667 1.92108,3.84084 2.87964,4.7994 0.47994,0.47994 -0.47994,2.3997 0,2.87964 0.77235,0.77236 2.47362,1.0338 3.35958,1.91976 2.72514,2.72514 6.00217,6.00218 8.63892,8.63892"
       id="path3049"
       inkscape:connector-curvature="0"
       transform="translate(66.587914,-7.6640606)" />
    <path
       style="fill:none;stroke:#000000;stroke-width:1px;stroke-linecap:butt;stroke-linejoin:miter;stroke-opacity:1"
       d="m 470.82115,669.19385 c 5.53564,3.04737 11.2127,-6.54508 14.87814,-2.87964 0.76273,0.76273 0.48096,2.40073 1.43982,3.35958 0.71062,0.71063 2.38083,-0.009 3.35958,0.47994 1.41322,0.70661 4.6731,2.2734 5.75928,3.35958 0.36678,0.36678 0.21043,2.34062 0.47994,2.87964 1.48912,2.97824 3.96841,6.30367 5.75928,7.1991"
       id="path3051"
       inkscape:connector-curvature="0"
       transform="translate(66.587914,-7.6640606)" />
    <path
       style="fill:none;stroke:#000000;stroke-width:1px;stroke-linecap:butt;stroke-linejoin:miter;stroke-opacity:1"
       d="m 426.66667,623.11961 c 0.86643,-1.94631 1.79881,-4.19852 3.35958,-5.75928 2.33494,-2.33495 4.87061,-3.4308 7.1991,-5.75928 1.26007,-1.26008 2.9155,-6.79088 3.83952,-8.63892 0.57593,-1.15186 -0.57593,-3.16761 0,-4.31946 0.84581,-1.69162 1.02957,-4.86909 2.3997,-6.23922 0.76104,-0.76105 2.39864,-1.43771 2.87964,-2.3997 1.23525,-2.47052 2.45469,-6.29421 4.31946,-8.15898 1.08791,-1.08791 -0.95988,-19.71208 -0.95988,-21.5973 1.98005,-0.3149 10.24136,-3.52221 10.55868,-3.83952 2.29805,-2.29805 4.27503,-0.30515 7.67904,-1.43982 2.4773,-0.82577 4.76612,-1.40654 6.23922,-2.87964 1.36136,-1.36137 6.00635,0.71281 7.1991,-0.47994 0.84118,-0.84118 5.00358,-1.43982 6.71916,-1.43982 0.5331,0 3.02021,-0.33937 3.35958,0 1.79367,1.79367 4.7222,1.36262 6.23922,2.87964 0.65539,0.65539 3.66407,-0.17545 4.31946,0.47994 3.18834,3.18833 9.84177,6.59767 13.43832,4.7994 1.00567,-0.50284 0.47994,-4.77701 0.47994,-6.23922 0,-1.05927 -0.56435,-2.00417 -0.95988,-2.3997 -1.66325,-1.66325 -0.0378,-18.19993 0.95988,-19.1976 0.88863,-0.88863 -0.43463,-4.84472 0.47994,-5.75928 3.71833,-3.71834 7.75043,3.43097 10.07874,5.75928 0.23997,0.23997 1.19985,-0.23997 1.43982,0 1.15324,1.15324 2.38517,1.90522 3.35958,2.87964 0.12704,0.12704 1.2422,0 1.43982,0 3.80637,0 2.47666,-10.48172 2.3997,-10.55868 -1.27568,-1.27568 -3.53851,-3.05857 -4.7994,-4.31946 -0.39995,-0.39995 -0.08,-1.51981 -0.47994,-1.91976 -3.55111,-3.55111 -5.61186,-8.4915 -8.63892,-11.51856 -0.64363,-0.64363 -3.06179,-0.18215 -3.83952,-0.95988 -3.78198,-3.78198 -11.76915,-9.1401 -13.43832,-12.47844 -0.60412,-1.20825 -0.47994,-10.6121 -0.47994,-12.47844 5.29175,-2.31728 8.63892,-5.23089 8.63892,-11.9985 0,-1.2953 0.16578,-2.71386 -0.47994,-3.35958 0.7999,0.47994 1.67128,0.85708 2.3997,1.43982 1.7117,1.36936 2.8335,3.31343 4.31946,4.7994 0.11629,0.11629 2.03431,1.91976 1.91976,1.91976 -0.5338,0 11.9985,-3.28836 11.9985,-2.3997 0,1.28116 -0.2259,2.20193 0,2.87964 0.19196,0.57589 11.72173,-0.75671 12.95838,0.47994 1.34344,1.34344 13.90455,5.28619 16.7979,3.83952 1.75776,-0.87888 3.32178,-2.3997 5.27934,-2.3997"
       id="path3057"
       inkscape:connector-curvature="0"
       transform="translate(66.587914,-7.6640606)" />
    <path
       style="fill:none;stroke:#000000;stroke-width:1px;stroke-linecap:butt;stroke-linejoin:miter;stroke-opacity:1"
       d="m 581.68729,318.83764 c -2.11856,2.82475 -0.87421,1.35415 -3.83952,4.31946 -1.45094,1.45095 -6.26436,5.80956 -7.1991,7.67904 -0.95993,1.91986 -1.17777,5.97717 -2.3997,7.1991 -0.82788,0.82789 0.14358,4.17588 -0.95988,5.27934 -1.85837,1.85837 -1.45487,2.86459 -3.83952,0.47994 -0.76546,-0.76545 -1.63425,-1.1543 -2.3997,-1.91976 -0.95988,-0.95988 0.95988,-4.7994 0,-5.75928 -0.47994,-0.47994 -1.43982,-0.47994 -1.91976,-0.95988 -0.34044,-0.34043 -0.0743,-1.16269 -1.43982,-0.47994 -2.11517,1.05759 -5.53296,8.4126 -7.1991,10.07874 -0.45914,0.45914 -0.71047,3.57123 -0.95988,4.31946 -1.17763,3.53289 -2.65443,5.30886 -3.83952,7.67904 -0.67023,1.34047 -0.72456,3.36889 -1.43982,4.79941 -0.7894,1.57879 -2.36625,2.84618 -3.35958,3.83952 -0.5081,0.5081 -3.09455,5.44412 -3.35958,6.23922 -0.57288,1.71862 -7.38258,8.34246 -9.5988,10.55868 -1.53864,1.53863 -4.70058,-0.38113 -6.23922,-1.91976 -3.86307,0.38138 -11.0921,-4.7994 -13.43832,-4.7994 1.20677,3.42696 4.7994,6.55012 4.7994,10.07874 0,0.36553 2.94497,5.75928 1.91976,5.75928 -0.7999,0 1.56203,0.72436 1.91976,1.43982 1.18818,2.37636 0.58838,13.22144 -0.47994,15.35808 -1.94696,3.89392 -4.19511,8.87015 -6.71916,13.91826 -1.49022,2.98043 -2.84837,5.21679 -4.31946,8.15898 -0.33952,0.67902 0.0552,2.34448 -0.47994,2.87964 -0.58085,0.58084 -1.88392,1.36813 -2.3997,2.3997 -1.44612,2.89223 -0.42186,10.98053 -1.43982,11.9985 -0.47994,0.47994 -0.47994,1.43982 -0.95988,1.91976 -1.65839,1.65839 -7.1991,2.72926 -7.1991,5.75928 0,2.3997 0,4.7994 0,7.1991 0,0.63992 0.63992,1.91976 0,1.91976 -0.15603,0 3.50542,1.58566 6.23922,4.31946 1.58513,1.58512 -2.07455,3.18921 -2.87964,4.7994 -2.08046,4.16091 5.03274,4.91607 7.67904,6.23922"
       id="path3065"
       inkscape:connector-curvature="0"
       transform="translate(66.587914,-7.6640606)" />
    <path
       style="fill:none;stroke:#000000;stroke-width:1px;stroke-linecap:butt;stroke-linejoin:miter;stroke-opacity:1"
       d="m 331.22398,590.08592 c -0.74227,-6.43939 1.99862,-6.41041 5.09053,-9.50233 0.83229,-0.83228 1.90004,-3.12132 2.37559,-4.07242 0.55436,-1.10872 3.05432,-2.79288 3.05432,-3.05432 0,-4.21792 0.4528,-7.24019 3.05432,-9.8417 0.15998,-0.15998 0.51875,0.15998 0.67873,0 0.34632,-0.34632 0.55386,-1.57196 1.01811,-2.03621 2.12974,-2.12974 5.57544,-4.55734 7.46611,-6.44801 1.42853,-1.42852 2.44632,-3.46442 3.73306,-4.75116 1.0416,-1.0416 -0.76753,-5.26812 -1.01811,-5.76927 1.77137,-0.0641 8.36856,0.90244 9.16296,1.69684 0.85594,0.85594 1.5072,1.7717 2.71495,2.37558 0.60694,0.30347 0.89793,1.29739 1.69685,1.69685 4.38971,2.19485 5.4782,5.11468 9.50233,7.12674 3.15192,1.57596 6.08198,-0.66541 8.14485,-1.69684 0.53504,-0.26752 1.46855,0.18922 2.03621,0 2.25837,-0.75279 4.38656,-2.36297 6.44801,-3.39369 0.86207,-0.43103 2.21271,0.0814 3.05432,-0.33937 2.06249,-1.03124 3.13538,-1.39801 5.09053,-2.37558 0.50044,-0.25022 2.00727,0.0289 2.37558,-0.33937 3.93643,-3.93643 6.03901,-7.73585 9.16296,-10.8598 0.18656,-0.18656 1.41174,-0.19682 1.69685,-0.33937 1.46766,-0.73383 2.00026,-2.18792 3.73305,-3.05432 0.35662,-0.17831 1.73687,-0.04 2.03622,-0.33937 1.11118,-1.11118 2.55329,-2.89266 3.39368,-3.73306 0.79152,-0.79151 8.37292,-1.58281 10.18107,-0.67873 1.76917,0.88458 9.56725,1.63191 10.8598,0.33937 1.0152,-1.01521 2.7427,-1.01811 2.71495,-1.01811 -0.22624,0 -0.67874,-0.22625 -0.67874,0 0,0.25295 0.49988,0.1605 0.67874,0.33937 0.27474,0.27473 0,2.28331 0,2.71495 0,2.5614 -0.0417,6.19215 -1.0181,8.14485 -0.66842,1.33683 -5.50855,19.60475 -4.07243,21.04087 0.0267,0.0267 3.17163,-0.90708 3.39369,-1.01811"
       id="path3071"
       inkscape:connector-curvature="0"
       transform="translate(66.587914,-7.6640606)" />
    <path
       style="fill:none;stroke:#000000;stroke-width:1px;stroke-linecap:butt;stroke-linejoin:miter;stroke-opacity:1"
       d="m 356.33728,544.6105 c -0.52995,-6.4528 -4.63925,-10.74789 -8.48422,-14.59286 -0.87198,-0.87198 -2.89927,-1.54179 -3.73306,-2.37558 -0.4149,-0.4149 -2.55483,-0.429 -3.05432,-0.67874 -2.41742,-1.20871 -1.30524,-3.96795 -2.37558,-6.10864 -0.40815,-0.8163 -2.8392,-1.85138 -3.39369,-2.03621 -1.57461,-0.52487 -2.65793,-3.33667 -3.39369,-4.07243 -0.17243,-0.17243 -4.08245,-0.68876 -4.75116,-1.35748 -0.96669,-0.96668 -2.55934,-2.55933 -3.39369,-3.39368 -0.35606,-0.35606 -0.48763,-1.50574 -1.01811,-2.03622 -0.21526,-0.21526 -1.07492,0.14128 -1.35747,0 -1.55867,-0.77933 -2.16404,-1.93044 -3.73306,-2.71495 -1.64933,-0.82466 -3.74937,-1.19595 -5.4299,-2.03621 -2.89142,-1.44571 -4.94951,-5.62825 -6.78738,-7.46611 -5.05514,-0.0609 -7.30591,-4.59097 -10.18106,-7.46612 -1.09051,-1.0905 -3.43728,-1.40106 -4.75117,-2.71495 -2.02699,-2.02699 -3.65366,-4.3721 -7.12674,-6.10864 -1.4885,-0.74425 -2.34426,-3.37803 -3.73306,-4.07242 -0.37435,-0.18718 -5.97399,-3.12439 -6.10864,-3.39369 -1.43318,-2.86637 -3.72312,-5.59462 -7.46611,-7.46612 -0.8666,-0.43329 -7.89265,-8.65854 -8.48422,-9.84169 1.11497,-2.38989 1.06577,-5.60658 2.71495,-7.80549 0.85973,-1.14631 2.58067,-2.92004 3.39368,-3.73305 0.0581,-0.0581 1.35748,-9.41687 1.35748,-9.8417 0,-1.87503 0.72554,-4.4118 -1.69684,-4.4118 -1.85428,-0.92143 -4.68875,-1.29505 -6.10864,-2.71495 -0.11313,-0.11312 -0.22625,-0.90498 -0.33937,-1.0181 -0.39593,-0.39593 -1.97965,0.39593 -2.37558,0 -0.46402,-0.46401 -2.55173,-2.70203 -2.37559,-3.05432 0.33164,-0.66327 2.31531,-2.99405 3.05432,-3.73306 0.52677,-0.52677 0.11881,-1.37454 0.33937,-2.03621 0.59386,-1.78158 1.71756,-3.09575 2.37558,-4.4118 0.21596,-0.43191 0.0578,-1.75467 0.33937,-2.03621 0.69455,-0.69455 2.37558,-2.46125 2.37558,-3.73306 0,-2.63435 -3.26958,-1.69684 -5.4299,-1.69684 -0.59466,0 -3.35461,-0.37845 -3.73305,0 -0.68966,0.68965 -2.79128,6.18497 -3.05432,6.44801 -1.30416,1.30415 -2.08878,3.44625 -3.05432,4.41179 -1.77553,1.77553 -3.00062,2.32188 -4.4118,3.73306 -1.22977,1.22977 -1.08081,4.47449 -2.37558,5.76927 -0.61278,0.61278 -2.623,-2.96237 -3.39369,-3.73306 -0.15998,-0.15998 -0.51876,0.15998 -0.67874,0 -0.2828,-0.28281 -0.0566,-1.07467 -0.33936,-1.35747 -0.90302,-0.90302 -3.70057,0.67873 -3.73306,0.67873 -2.65699,0 -1.01811,8.07923 -1.01811,8.48422 -0.56561,0.33937 -1.07923,0.7865 -1.69684,1.01811 -2.09843,0.78691 -5.55279,-0.67874 -7.46612,-0.67874 -7.92615,0 -18.67248,-0.33937 -23.41645,-0.33937 -0.55177,0.92066 -4.21748,3.92737 -5.4299,2.71496 -0.39459,-0.3946 -0.78402,-2.48087 -1.35747,-3.05432 -1.07432,-1.07432 -4.26944,2.17857 -5.76927,0.67873 -0.11313,-0.11312 -0.22625,-0.90498 -0.33937,-1.0181 -0.95573,-0.95573 -8.79993,-0.0237 -9.16296,0.33937 -0.52335,0.52335 -1.61325,1.65504 -2.37558,2.03621 -0.98761,0.4938 -2.26533,0.22911 -3.05432,1.01811 -1.34052,1.34051 -7.0154,-0.67874 -8.48422,-0.67874"
       id="path3073"
       inkscape:connector-curvature="0"
       transform="translate(66.587914,-7.6640606)" />
    <path
       style="fill:none;stroke:#000000;stroke-width:1px;stroke-linecap:butt;stroke-linejoin:miter;stroke-opacity:1"
       d="m 86.869141,231.48856 c -2.795691,2.80799 -4.695722,8.10714 -7.67904,9.5988 -1.530571,0.76529 -5.544496,-0.21478 -6.71916,0.95988 -0.958853,0.95886 -0.677089,2.59685 -1.43982,3.35958 -0.15998,0.15998 -1.27984,0.31996 -1.43982,0.47994 -3.428173,3.42818 7.996965,8.95685 8.15898,9.11886 1.000976,1.00098 1.91976,4.81119 1.91976,6.23922 0,0.69146 -2.476565,2.32284 -2.3997,2.3997 1.448681,1.44868 3.35072,2.39084 4.7994,3.83952 0.708786,0.70879 0.763173,3.02126 2.3997,3.83952 0.859832,0.42992 7.626888,0.90773 7.679041,0.95988 0.794681,0.79469 2.686381,1.72651 3.35958,2.3997 1.52298,1.52298 1.751737,3.19156 2.87964,4.31946 0.63992,0.63992 2.719658,-0.15998 3.359578,0.47994 2.09542,2.09542 4.5491,3.4744 7.1991,4.7994 1.70363,0.85182 1.57125,3.01107 2.87964,4.31946 0.6289,0.6289 1.34117,0.28264 1.91976,1.43982 0.24278,0.48556 -2.3997,4.86928 -2.3997,5.75928 3.31282,5.23033 6.64987,7.54046 9.5988,13.43832 0.75397,1.50794 1.85394,9.53298 2.87964,10.55868 1.54722,1.54722 2.70798,5.58762 4.7994,7.67904 2.11407,2.11407 5.05075,3.61093 7.67904,6.23922 1.28469,1.2847 2.4963,3.45618 3.83952,4.7994 0.39995,0.39995 -0.39995,1.99975 0,2.3997 2.9061,2.9061 4.34362,13.46248 6.71916,15.83802 0.67352,0.67352 0.383,7.00523 1.43982,9.11887 0.71527,1.43053 -0.61029,5.62893 0.47994,6.71916 1.13904,1.13903 1.58424,3.50399 3.35958,5.27934 2.45953,2.45952 3.89681,4.37674 5.27934,5.75928 6.19504,0.69837 5.68837,-2.80873 8.15898,-5.27934 2.26531,-2.26531 3.33754,2.85759 4.31946,3.83952 0.47338,0.47337 1.57,0.61011 1.91976,0.95988 0.3533,0.35329 1.43982,6.80065 1.43982,5.75928 0,-1.18573 -1.91976,1.12993 -1.91976,1.91976 0.93943,1.56685 1.82419,2.81592 3.35958,3.83952 2.4074,1.60493 4.12582,3.64588 6.23922,5.75928 0.44409,0.44408 1.63871,3.55846 0.95988,2.87964 0.54149,4.01994 -2.19154,-0.20816 -2.87964,0.47994 -7.76573,7.76573 9.17987,3.42059 9.5988,3.83952 0.71991,0.71991 -0.71991,3.59955 0,4.31946 2.36526,2.36525 2.40413,7.20352 3.83952,8.63892 3.05553,3.05552 9.5988,-1.82681 9.5988,7.1991"
       id="path3079"
       inkscape:connector-curvature="0"
       transform="translate(66.587914,-7.6640606)" />
    <path
       style="fill:none;stroke:#000000;stroke-width:1px;stroke-linecap:butt;stroke-linejoin:miter;stroke-opacity:1"
       d="m 264.92688,429.70379 c 1.43091,-0.46211 -0.35772,-1.68425 0,-2.3997 1.71336,-3.42672 1.07718,-6.72994 0,-11.03862 -0.021,-0.084 -0.95988,-1.84742 -0.95988,-1.91976 0,-1.94591 3.6871,-3.86219 4.31946,-5.75928 0.71283,-2.13847 0.54144,-4.4732 1.43982,-6.71916 0.85226,-2.13064 3.00923,-9.72839 4.31946,-11.03862 0.22625,-0.22625 0.81679,0.28618 0.95988,0 0.94545,-1.89089 2.39611,-10.07515 3.35958,-11.03862 1.33359,-1.33359 1.21483,-3.38953 2.3997,-5.75928 0.54697,-1.09393 1.43165,-1.43165 1.91976,-1.91976 0.49046,-0.49046 3.42972,-8.77919 4.31946,-10.55868 1.88176,-3.76352 -1.87903,-13.99971 0,-17.75779 2.13087,-4.26173 9.66144,-7.74167 13.91827,-11.9985 4.23181,-4.23181 7.60269,-8.54349 11.51856,-13.43832 1.45375,-1.81719 3.84906,-2.88918 4.7994,-3.83952 4.49648,-4.49648 10.71649,-11.19643 15.35808,-15.83802 1.37528,-1.37528 2.65795,-3.61783 3.83952,-4.7994 0.59246,-0.59246 2.13112,-0.79699 2.87964,-1.91976 0.19197,-0.28796 -0.23997,-1.19985 0,-1.43982 3.04032,-3.04032 9.58156,-14.87814 13.43832,-14.87814 1.26399,-2.23521 1.37721,-6.17661 2.87964,-7.67904 0.22624,-0.22624 0.73363,0.22625 0.95988,0 0.96058,-0.96058 -0.55982,-4.3594 -1.43982,-4.7994 -0.71264,-0.35632 -1.16944,-2.02454 -1.91976,-2.3997 -4.24319,-2.12159 -6.5264,-5.08657 -10.07874,-8.63892 -1.50646,-1.50646 -2.07183,-3.0317 -3.35958,-4.31946 -0.7999,-0.7999 0.7999,-3.9995 0,-4.7994 -0.9735,-0.97349 -9.10525,-0.97349 -10.07874,0 -0.048,0.048 -0.36796,1.07187 -0.95988,0.47994 -2.49553,-2.49553 3.46145,-15.15433 2.87964,-16.31796 -0.38102,-0.76203 -1.28415,-1.60841 -1.91976,-2.87964 -1.21091,-2.42182 0.18125,-9.78005 1.43982,-11.03862 0.86461,-0.86461 -0.1675,-5.42429 0.47994,-6.71916 2.17572,-4.35145 -2.17573,-11.9665 0,-16.31796 1.05591,-2.11183 3.28217,-6.16181 5.27934,-8.15898 1.26275,-1.26275 3.39447,-1.95465 4.7994,-3.35958 1.00456,-1.00456 4.6025,0.1969 5.75928,-0.95988 1.08035,-1.08035 1.80667,-3.543 3.35958,-4.31946 0.2965,-0.14825 1.74186,-0.30204 1.91976,-0.47994 2.37391,-2.37391 -3.52909,-9.90923 -2.3997,-11.03862 0.47994,-0.47994 1.91976,0 2.3997,-0.47994 3.0856,-3.08561 5.6043,1.51731 7.67904,0.47994 1.91305,-0.95652 2.55663,-3.99645 3.83952,-5.27934 1.03987,-1.03987 5.19935,1.03987 6.23922,0 1.84954,-1.84954 6.63563,-3.756 9.11886,-6.23922 1.5702,-1.57021 0.0844,-5.84366 1.91976,-7.67904 4.87603,-1.34419 6.40307,-4.48331 8.63892,-6.71916 0.71991,-0.71991 -0.23997,-3.11961 0.47994,-3.83952 0.33696,-0.33696 2.41341,-0.95302 3.35958,-0.47994 2.4043,1.20215 0.81858,7.98966 6.23922,5.27934 2.78917,-1.39459 11.06589,-9.62607 12.95838,-11.51856 1.51457,-1.51458 17.20767,0.27505 19.67754,-0.95988 4.06797,-2.03398 24.23167,0.12264 27.35658,-1.43982 0.75202,-0.37601 5.04791,-2.15119 5.75928,-1.43982 0.56089,0.56089 0.83291,2.27273 1.43982,2.87964 0.7999,0.7999 2.07974,1.11986 2.87964,1.91976 1.12455,1.12456 3.36349,-2.40361 4.31946,-3.35958 3.6385,-3.6385 2.68828,4.51082 4.7994,2.3997 0.33253,-0.33253 0.14741,-2.06717 0.47994,-2.3997 2.02545,-2.02545 4.7781,1.94106 6.23922,0.47994 0.71698,-0.71698 0.91399,-2.3997 0.95988,-2.3997 2.83579,0 12.93483,0.50349 14.3982,-0.95988 1.08573,-1.08573 2.33966,-2.8196 3.35958,-3.83952 1.2608,-1.2608 3.87356,-0.73693 5.27934,-1.43982 2.84145,-1.42073 7.48311,-5.36743 9.11886,-8.63892 3.27334,-6.546673 6.69597,-20.134291 11.03862,-24.47694 2.42276,-2.422759 13.62985,-0.19153 14.3982,-0.95988 2.09309,-2.093091 4.96293,-2.563233 7.1991,-4.7994 1.82689,-1.826892 3.50225,-3.982194 5.27934,-5.75928 0.94558,-0.945583 4.62824,-0.394359 4.7994,-0.47994 0.15441,-0.0772 0,-2.146704 0,-2.3997 0,-5.358182 0.47994,-10.743898 0.47994,-15.83802"
       id="path3081"
       inkscape:connector-curvature="0"
       transform="translate(66.587914,-7.6640606)" />
    <path
       style="fill:none;stroke:#000000;stroke-width:1px;stroke-linecap:butt;stroke-linejoin:miter;stroke-opacity:1"
       d="m 289.40382,92.305961 c 0.18638,3.601919 2.55317,4.626384 4.31946,8.158979 2.69006,5.3801 4.94788,7.82752 8.63893,11.51856 1.07566,1.07567 3.05063,1.13087 3.83952,1.91976 1.18164,1.18165 2.06811,3.02799 3.35958,4.31946 1.5242,1.52421 4.40407,2.00437 5.75928,3.35958 0.30072,0.30072 0,0.70069 0,1.43982 0,0.46099 1.04074,1.8389 0.47994,2.3997 -1.40522,1.40521 -4.80259,5.76246 -6.23922,7.1991 -0.17291,0.1729 0,10.92995 0,12.47844 0.5377,2.68237 -0.31841,3.03652 -0.95988,4.31946 -0.39703,0.79405 -5.71213,5.3265 -4.7994,6.23922 0.95375,0.95376 8.57323,13.02406 6.23922,15.35808 -2.90505,2.90505 -8.35352,-0.19453 -9.5988,-1.43982 -1.06819,-1.06818 -6.12804,0.95988 -6.71917,0.95988 -0.31818,0.82928 -0.28143,3.55808 0.47994,4.31946 1.07929,1.07929 3.37249,5.25353 2.3997,7.1991 -0.5642,1.12841 -2.20142,2.20143 -2.87964,2.87964 -0.47994,0.47994 0,1.91976 -0.47994,2.3997 -0.72944,0.72945 -4.47397,12.32392 -2.87964,13.91826 1.38902,1.38902 1.708,3.89593 2.87964,6.23922 4.49534,3.47935 15.62118,9.70722 20.63743,7.1991 0.31996,-0.15998 0.12221,-0.95988 0.47994,-0.95988 1.05958,0 4.474,-3.68497 5.75928,-2.3997 1.17363,1.17364 1.54225,4.90184 3.83952,7.1991 1.42495,1.42496 3.56392,1.64417 4.7994,2.87964"
       id="path3087"
       inkscape:connector-curvature="0"
       transform="translate(66.587914,-7.6640606)"
       sodipodi:nodetypes="cssssssscc" />
    <path
       style="fill:none;stroke:#000000;stroke-width:1px;stroke-linecap:butt;stroke-linejoin:miter;stroke-opacity:1"
       d="m 149.26134,256.92538 c 4.53369,9.76295 7.49297,2.10584 11.03862,-1.43982 0.58274,-0.58273 6.99858,-3.5601 7.67904,-2.87964 0.48639,0.4864 0,4.03514 0,4.7994 0,1.86165 0,1.71587 0,2.3997 1.52496,5.32795 3.99936,8.31882 6.71916,11.03862 0.99665,0.99665 0.4031,9.04202 1.91976,10.55868 1.62072,1.62072 6.31514,3.99137 7.67904,6.71916 0.35793,0.71585 0.34737,2.26713 0.95988,2.87964 2.19695,2.19696 4.7994,4.25918 4.7994,7.1991 0,0.57675 0.69988,1.13975 0.95988,1.91976 1.0273,3.08188 0,6.65358 0,9.11886 0,1.5998 0,3.1996 0,4.7994 0,0.31996 0.31996,0.95988 0,0.95988 -0.70502,0 2.77018,-3.73006 2.87964,-3.83952 2.72045,-2.72044 7.08994,-6.77374 11.03862,-4.7994 3.71433,4.44115 8.76618,2.87964 13.43832,2.87964 -5.07817,3.98581 -1.06496,6.61408 2.3997,10.07874 0.55594,0.55594 5.82272,-3.32786 7.67904,-2.3997 1.69789,0.84895 -0.94467,7.69425 1.43982,10.07874 2.18068,2.18069 7.54132,3.7018 11.03862,2.99963 0.70578,-0.14171 2.50209,0.11117 3.47957,0.59992 2.39034,1.19517 1.60217,1.00225 3.23959,2.63967 1.16707,1.16707 1.65013,3.70471 2.87964,4.31946 3.9087,-3.4578 8.20642,-5.78299 11.9985,-7.67904 0.3996,-0.19979 1.61533,0.30444 1.91976,0 0.39995,-0.39995 0.08,-1.51981 0.47994,-1.91976 1.85642,-1.85641 4.42094,-5.38082 6.23922,-7.1991 0.58829,-0.58828 3.13162,0.22797 3.83952,-0.47994 0.51028,-0.51028 0.87933,-0.95988 1.91976,-0.95988 0.31996,-0.7999 0.51664,-1.66095 0.95988,-2.3997 0.19826,-0.33042 1.02388,-0.12799 1.43982,-0.95988 0.60742,-1.21483 -0.9233,-4.83597 0,-5.75928 0.46818,-0.46817 3.98385,-1.58414 4.7994,-2.3997 -0.4722,-3.6324 -1.33815,-9.70046 0.95988,-11.9985 0.35963,-0.35962 -0.23967,-1.68039 0,-2.15973 0.48804,-0.97606 0.62316,-2.54291 1.19985,-3.11961 0.15398,-0.15398 4.90782,0.6115 7.19911,-1.67979 0.29741,-0.29741 0.11392,-0.82172 0.23997,-1.19985 0.21089,-0.6327 2.83309,-4.1762 3.11961,-4.31946 0.45774,-0.22887 1.63661,0 2.15973,0 0.46474,0 1.51307,-0.20334 1.91976,0 0.95171,0.47586 2.50007,0.82029 3.35958,1.67979 1.54884,1.54884 2.00278,2.20125 4.31946,3.35958 1.19369,0.59685 2.47158,2.67561 3.83952,3.35958 0.77271,0.38636 1.0768,1.07681 1.67979,1.67979 1.9831,1.98311 3.87387,4.07949 6.71916,4.07949 0.0842,0 1.10804,0.0918 1.19985,0 0.50784,-0.50784 0.21206,-1.41191 0.71991,-1.91976 0.72059,-0.72059 1.37776,-1.37776 1.91976,-1.91976 0.60549,-0.60549 1.12981,-3.28954 2.15973,-4.31946 0.42887,-0.42887 0,-3.68604 0,-4.31946 0,-0.54476 0.24109,-1.67753 0,-2.15973 -0.43852,-0.87703 -1.50492,-6.58896 -0.95988,-7.67904 1.25567,-2.51135 1.2038,-0.72189 3.11961,-1.67979 1.54976,-0.77488 2.85227,-1.42613 4.31946,-2.15973 0.95145,-0.47573 7.80321,1.08406 8.15898,1.43982 0.51829,0.5183 9.76465,1.12573 9.83877,1.19985 0.58163,0.58163 1.542,0.75398 2.15973,0.95988"
       id="path3089"
       inkscape:connector-curvature="0"
       transform="translate(66.587914,-7.6640606)"
       sodipodi:nodetypes="cssscssssssssssccssssssccccssccscc" />
    <path
       style="fill:none;stroke:#000000;stroke-width:1px;stroke-linecap:butt;stroke-linejoin:miter;stroke-opacity:1"
       d="m 449.46382,528.33146 c -0.0396,-2.93776 0.32146,-5.39707 -1.19985,-7.67904 -0.79122,-1.18683 -2.33091,-6.08484 -3.59955,-6.71916 -2.68199,-1.341 -7.46365,2.41199 -9.35883,3.35958 -0.35387,0.17693 -1.41936,-0.0205 -1.67979,0.23997 -0.17152,0.17151 -0.68847,0.71991 -0.95988,0.71991 -0.25511,0 -2.57385,0.69866 -2.87964,0.23997 -0.52966,-0.79448 -0.66869,-2.24603 -0.95988,-3.11961 -1.28386,-3.85157 -2.1753,-6.25479 -4.55943,-8.63892 -0.331,-0.331 -0.52972,-1.72957 -0.95988,-2.15973 -0.21524,-0.21524 -3.87817,1.67979 -4.55943,1.67979 -0.8303,0 -7.16616,0.99282 -7.67904,0.47994 -0.37475,-0.37475 -7.65093,-3.3877 -8.87889,-2.15973 -0.69745,0.69745 -2.02939,1.30948 -2.63967,1.91976 -0.35821,0.3582 -0.63754,1.11747 -0.95988,1.43982 -0.43303,0.43302 -1.17368,0.46685 -1.67979,0.71991 -1.01091,0.50545 -1.72002,1.48005 -2.3997,2.15973 -0.16428,0.16427 -4.79433,1.68486 -5.03937,1.43982 -1.19903,-1.19903 -0.67594,-3.75158 -1.43982,-5.27934 -0.93809,-1.87617 -4.43269,-1.97637 -6.23922,-2.87964 -2.04058,-1.02029 -3.7556,-2.11777 -5.27934,-2.87964 -1.13665,-0.56833 -2.41729,-1.45741 -3.11961,-2.15973 -0.56313,-0.56313 -3.33546,0.2279 -3.83952,0.47994 -1.2144,0.60719 -4.11683,0 -5.51931,0 -0.1879,0 -1.08011,0.11974 -1.19985,0 -0.70179,-0.70179 -2.37231,-0.93249 -3.11961,-1.67979 -0.52424,-0.52424 -1.28524,-1.28524 -1.67979,-1.67979 -0.30799,-0.30799 -1.13183,-0.17195 -1.43982,-0.47994 -0.54169,-0.54169 -0.90981,-1.86969 -1.43982,-2.3997 -0.18171,-0.18171 -2.63803,-1.68144 -2.87964,-1.43982 -0.43247,0.43246 -1.38737,1.14739 -1.91976,1.67979 -0.43995,0.43994 0.43994,2.19972 0,2.63967 -0.50855,0.50855 -0.55027,1.3405 -0.95988,2.15973 -0.50884,1.01767 0.36317,3.23637 -0.47994,4.07949 -1.4593,1.45929 -3.75631,7.03266 -4.7994,9.11886 -1.53882,3.07763 -5.4725,6.43238 -7.67904,8.63892"
       id="path3093"
       inkscape:connector-curvature="0"
       transform="translate(66.587914,-7.6640606)" />
    <path
       style="fill:none;stroke:#000000;stroke-width:1px;stroke-linecap:butt;stroke-linejoin:miter;stroke-opacity:1"
       d="m 276.5856,320.2877 c -0.27724,7.80934 2.4816,2.93764 6.10864,4.75116 0.77715,0.38858 2.53587,1.1784 3.05432,1.69685 0.52485,0.52484 -0.005,1.69183 0.67874,2.37558 0.2938,0.2938 1.59845,3.49208 1.0181,4.07242 -0.57234,0.57234 -6.46143,-0.32594 -7.80548,1.01811 -0.62736,0.62736 -1.04573,2.06384 -1.69684,2.71495 -1.5517,1.5517 -3.5482,3.5482 -5.09054,5.09053 -0.96916,0.96917 -2.49094,1.13347 -3.39369,2.03622 -0.64794,0.64795 -1.45375,2.81122 -2.37558,3.73305 -0.59582,0.59583 -4.78159,0 -5.76927,0 -4.94696,4.32267 -9.17849,8.49199 -13.91412,10.85981 -1.4767,0.73834 -3.38705,0.33605 -4.75116,1.0181 -0.40605,0.20302 -1.12933,0.62313 -1.69685,0.33937 -1.15639,-0.57819 -1.43122,-3.12806 -2.37558,-4.07242 -0.64867,-0.64867 -3.95302,-1.13752 -4.75116,-0.33937 -0.22625,0.22624 -0.11313,0.79186 -0.33937,1.0181 -0.80389,0.80389 -2.37684,-0.16905 -3.39369,0.33937 -2.33077,-0.45499 -2.16676,-1.48802 -3.05432,-2.37558 -1.12866,-1.12866 -2.09557,1.07746 -2.37558,1.35748 -0.16934,0.16933 -1.43112,0 -1.69685,0 -1.62809,0 -2.29154,1.0181 -4.41179,1.0181 -1.0476,0 -1.72797,-1.20335 -2.71495,-1.69684 -0.1614,-0.0807 -8.03057,1.58256 -8.48422,2.03621 -1.51794,1.51794 -3.08476,3.74828 -5.09053,4.75116 -2.26592,1.13296 -4.85581,-0.96578 -6.78738,0 -0.79093,0.39547 -0.55885,1.91633 -1.01811,2.37559 -1.47497,1.47497 -9.61451,-6.33583 -11.87791,-4.07243 -0.2828,0.28281 -0.0566,1.07467 -0.33937,1.35748 -4.40648,4.40648 -0.25636,8.22785 3.39369,11.8779 0.30609,0.30609 -3.67988,4.51815 -2.71495,6.44801 0.45074,0.90148 2.10421,0.74674 2.71495,1.35748 0.32577,0.32576 0.8555,1.8736 1.01811,2.03621 0.62469,0.6247 6.42372,4.75116 3.39369,4.75116 -0.9171,0 -1.54623,1.54623 -2.03622,2.03622 -1.22113,1.22114 -2.54997,2.54997 -3.73305,3.73305 -0.51855,0.51856 4.51234,6.0081 2.03621,8.48423 -0.87989,0.87989 -2.4887,0 -3.73306,0"
       id="path3095"
       inkscape:connector-curvature="0"
       transform="translate(66.587914,-7.6640606)" />
  </g>
</svg>
